<svg xmlns="http://www.w3.org/2000/svg" viewBox="0 0 512 512"><path fill="#fff" fill-rule="evenodd" d="M347.5 503C344.3 501.4 326.8 494.2 324.7 493.7C320.7 492.7 312.2 488.9 311.3 487.7L310.2 486.4L308 487.5C305.5 488.8 297.7 489.7 295.2 489C293.4 488.5 290.7 486.8 289.4 485.3C288.9 484.7 287.7 482.6 286.6 480.5L284.8 476.8L284.8 469C284.8 462.6 284.9 460.5 285.8 457C286.4 454.7 287.1 452.4 287.2 452C287.5 451.3 286.7 451.1 282.6 450.6C279.8 450.3 276.4 449.6 274.9 449C272.4 448.1 272 447.7 270.7 445.1C269.3 442.4 269.3 442 269.4 436.1C269.5 429.5 270.1 426.3 271.3 425.8C271.9 425.6 272 423.6 272 412.3L272 399.1L270.3 393.9C269.4 391.1 268.1 387.4 267.4 385.8C266.7 384.1 265.3 380.3 264.3 377.3L262.4 371.8L262.7 363.4C263.1 354.7 263.4 352.8 265 351.7C265.8 351.1 265.8 350.8 265.2 347.4C264.9 345.4 263.9 341.4 263 338.6C262.2 335.7 261.5 332.9 261.5 332.4C261.5 328.9 256.5 317 253.4 313.2C252.6 312.1 251.5 310.3 251 309.1C249.9 306.8 249.6 306.7 247.5 307.8C245.5 308.8 245.2 309.6 244.8 314C244.4 318.6 243.3 324.1 241.9 328.7C240.3 334 236.7 341.3 235.3 342.2C234.4 342.9 234 343.8 233.5 346.2C232.9 349.8 230.3 356.4 229.2 357.3C228.7 357.6 228.3 359.4 228 362.6C227.4 368.8 226.7 373.3 225.5 378.2C225 380.4 224.4 383.3 224.2 384.5C224 385.7 223.4 388.3 222.8 390.2C222.1 392.9 221.8 395.3 221.7 400.2C221.7 403.8 221.4 409.1 221.1 412C220.8 414.9 220.4 421.3 220.2 426.3L219.9 435.3L221.2 438C221.9 439.4 222.5 440.9 222.5 441.2C222.5 441.6 223.7 444.4 225.2 447.6C227.8 453.1 232.7 460.8 239 469.2C243 474.5 244 476.6 244.4 479.8C244.7 483 243.9 485.3 242.1 486.2C241.3 486.6 238.9 487.2 236.6 487.7C233 488.4 232 488.4 229.1 487.8C227.2 487.4 223.9 487 221.8 486.8C214 486.2 205.5 483.4 204.3 481.1C202.5 477.5 197.4 460.5 197 456.8C196.8 454.6 196.4 451.9 196.1 450.8C195.8 449.6 195.5 444.8 195.5 440C195.5 427.4 194.9 422.1 192 410.8C189 398.8 188.5 393.5 189.7 386.8C191.6 377 194.3 369.2 196.4 367.6L197.8 366.6L198.2 357.6C198.5 348.3 199.4 341.8 201 336.7C202.3 332.6 202.9 325.5 203 314.2C203.1 302.5 202.9 301.5 199.7 300.3C198.2 299.7 197.4 299.1 197.2 298.2C196.9 296.9 198 289.4 199.5 282.5C200.1 279.9 200.8 275.9 201 273.8C201.3 271.6 201.7 267.5 202 264.8C202.4 261.8 202.5 256.2 202.3 250.9C202.1 246 202.2 240.5 202.5 238.6C202.8 236.8 203.2 233.7 203.4 231.8L203.8 228.4L202.4 227.9C200.9 227.4 199.8 225.6 198.8 222.3C198.3 220.7 197.8 220.1 196.5 219.4C194.4 218.4 191 214.9 189.8 212.5C189.3 211.5 188.2 209.7 187.3 208.5C184.5 204.6 183.1 201.9 180.8 195.8C178.9 190.6 178.5 188.8 178 183.6C177.7 180.2 177.5 176.7 177.6 175.9C177.8 175 177.6 173.5 177.4 172.5C176.1 167.4 175.4 164.3 174.8 159.8C174.1 155.4 174.1 154.3 174.8 150.3C175.2 147.8 176.2 144.6 176.9 143.1C178.4 140.1 182.8 134.9 187.2 130.9C188.9 129.5 192.6 125.9 195.5 123C201.1 117.5 203.9 115 207.3 112.8C209.1 111.6 209.6 110.9 210.5 108.2C211.1 106.2 211.5 103.7 211.5 101.5C211.5 99.5 211.7 97.5 212 97C212.4 96.3 212.2 95.5 211.2 93.8C210.6 92.5 209.6 89.9 209.2 88.1C208.8 86.3 207.6 83.1 206.6 81.1C204.9 77.6 204.9 77.3 205.1 72.6C205.3 68.4 205.5 67.3 206.9 64.2C207.8 62.3 209.3 60 210.2 59.1C212.6 56.6 217.5 52.9 219.2 52.4C223.2 51.2 224.5 50.9 227.8 50.5C232.3 50 238.8 50.7 242.1 52C250 55.1 254.7 66.2 255.3 83.2C255.5 87.1 255.4 92.3 255.1 94.8C254.5 100.8 252.6 111.4 252 112.5C251.7 113.1 251.7 113.5 252.1 113.9C253.2 114.7 259.9 116.4 265.6 117.2C274.2 118.5 279.8 121.9 283.8 128.3C287.8 134.8 289.1 139.4 289.8 149.8C290.1 155.4 289.9 156.1 287.3 159C286.1 160.3 285.5 161.4 285.3 163.1C285 166 285.7 166.8 288.3 166.3C290.9 165.8 305.7 160.8 309.1 159.3C310.7 158.6 312.4 158 312.9 158C314.2 158 315.2 156.7 316.2 153.9C317.2 151.3 318.1 150.8 322.6 150C325.8 149.5 330.4 150.4 331.2 151.7C331.5 152.1 332.3 153.4 333 154.5C333.6 155.6 334.5 156.5 334.8 156.5C335.6 156.5 340.2 159 340.6 159.7C341.3 160.7 341 161.4 338.8 163.8C337.6 165.1 336.3 167 336 168.2C334.9 171.7 334.1 172.9 330.4 175.8C324 180.9 320.4 185.1 313 196C305.8 206.6 298 212.5 290.9 212.5L289 212.5L289 214.6C289 217.3 289.9 239.1 290.3 247.5C290.6 253.6 290.6 253.8 289.4 255.6C288.6 256.7 288.3 257.6 288.5 258.1C288.7 258.4 289 260.2 289.2 262C289.4 263.8 289.9 267.2 290.3 269.5C291.7 278.6 292.4 291.3 292.6 312C292.7 318.2 292.9 321.2 293.4 322.5C294 323.9 294 326.7 293.8 338.5C293.5 349.4 293.6 354.9 294.2 362C294.6 367.1 295.2 379.2 295.5 389C296.1 407.8 296.6 415.2 297.5 416.3C297.8 416.6 299.4 417.4 301 417.9C303.6 418.8 304.7 419.7 311.1 426.1C318.6 433.6 319 433.9 327.3 437C332.5 438.9 333.7 439.9 334.7 442.9C335.4 445.1 335.4 445.5 334.8 447.5C333.7 450.5 333.4 450.8 329.3 452.7C325.5 454.6 323 455.3 319.4 455.7C317.8 456 316.8 456.5 315.8 457.5C314.4 458.9 314.4 459.1 314.5 463.6C314.5 466.2 314.2 469.8 313.8 471.9C313.3 473.9 313 477.2 313 479.2C313 482.8 313.1 483 314.7 484.4C315.6 485.2 318.4 486.5 321 487.5C331.7 491.3 342.6 495.6 349 498.7C350.6 499.4 352.1 500 352.4 500C353.1 500 354.5 501.4 354.5 502.2C354.5 503.4 353 504.5 351.6 504.5C350.9 504.5 349 503.8 347.5 503ZM303.3 484.2C304.4 484.1 306 483.5 306.9 483C308.5 482 308.5 481.9 308.5 478.3C308.5 476.3 308.9 472.9 309.3 470.7C309.8 468.4 310 465.4 309.9 463.1C309.7 459.7 309.6 459.3 308.1 458.1C307.2 457.4 305.5 455.9 304.3 454.9L302.1 453.1L296.9 453L291.8 452.9L290.5 457.3C289.5 461 289.3 463 289.3 468.5C289.3 474.8 289.4 475.4 290.7 478.2C292.3 481.7 293.7 483.4 295.7 484.3C297.1 484.8 298.1 484.8 303.3 484.2ZM236.8 482.9C239.6 482.5 240 482.3 240 481.3C240 479.1 238.8 476.7 235 471.8C228.8 463.6 224.8 457.2 221.3 449.9C219.5 446.1 218 442.7 218 442.4C218 442 217.7 441.4 217.3 440.9C216.7 440.1 216.5 440.1 214.7 440.8C213 441.5 212.1 442.4 209.5 446.4C206.6 450.6 206 451.3 203.8 452.2L201.4 453.2L201.6 456.5C201.8 458.6 202.9 463 205 469.2C207.8 477.3 208.3 478.7 209.5 479.3C211.9 480.5 218.5 481.9 224.2 482.5C227.2 482.8 229.8 483.1 229.9 483.2C230.3 483.7 233.5 483.5 236.8 482.9ZM313.3 453.1C314.6 451.9 315.6 451.5 318.1 451.3C321.8 450.8 325 449.9 327.7 448.4C330.1 447 330.7 446 330.3 444.4C330.1 443.4 329.2 442.8 326.1 441.5C315.5 437.1 316.3 437.7 308.3 430C302.9 424.8 300.1 422.5 298.6 421.9L296.4 421L296.7 424.1C296.9 425.8 297 432 297 437.8L297 448.5L300.4 448.5C304.1 448.5 304.6 448.7 308.7 452.3C310 453.5 311.2 454.5 311.4 454.5C311.5 454.5 312.4 453.8 313.3 453.1ZM202.4 447.7C203 447.3 204.8 444.9 206.6 442.2C208.4 439.5 210.1 437.4 210.7 437.2C211.3 437.1 212.6 436.6 213.6 436.2L215.4 435.4L215.7 425.6C215.9 420.2 216.3 413.5 216.6 410.8C216.9 408 217.2 402.8 217.2 399.2C217.3 394.9 217.6 391.8 218.2 389.8C218.7 388.1 219.4 385 219.8 382.9C220.2 380.8 220.8 377.9 221.2 376.3C222 373.4 223.3 364.6 223.6 360.1C223.9 357.4 223.6 357 221.4 357C220 357 217.6 355.6 217 354.5C215.8 352.3 217.9 350.3 220.1 351.6C220.7 351.9 222.4 352.5 223.8 352.8L226.4 353.3L227.6 350C228.3 348.2 229 345.7 229.2 344.4C229.5 342.1 229.5 342 227.9 341.3C227 340.9 225.7 340 225.1 339.3C223.1 337 217.9 337.8 215.6 340.9C213.5 343.8 212.7 344.1 211.3 342.7C210.2 341.6 210.3 340.5 211.8 338.2C213.6 335.4 216.3 334 220.7 333.6C223.7 333.4 224.6 333.5 226.4 334.4C227.5 335 228.6 335.8 228.8 336.2C229.1 336.6 230 337.3 231 337.7C232.9 338.8 232.8 338.9 235.2 333.5C237.4 328.5 239.5 320.3 240.2 314.6L240.5 311.9L238.6 312.2C237.6 312.3 233.7 312.6 230 312.8C223.2 313.1 217.6 312.4 214.8 310.9C214.2 310.6 212.3 310 210.6 309.7L207.5 309.1L207.5 316.8C207.5 326.2 206.8 333.8 205.5 337.8C203.9 342.7 203 349.1 202.7 358.2L202.4 366.8L203.7 367.5C205.7 368.5 206.8 370.3 208.5 375.1C210.1 379.5 210.1 380.8 208.5 381.3C206.7 381.8 205.6 380.6 204 376.2C202.2 371.6 200.8 370.2 199.3 371.5C198.3 372.3 195.2 382.2 194.2 387.7C193.3 393 193.6 399 195.1 403.9C196 407 197.4 412.4 198.8 419.2C199.3 421.5 199.6 427.4 199.8 435.6C200.1 444.7 200.3 448.5 200.7 448.5C201 448.5 201.8 448.2 202.4 447.7ZM292.3 433.2C292.4 425.3 292.5 418.3 292.5 417.8C292.6 417.2 292.3 414.7 292.1 412.2C291.8 409.6 291.3 399.7 291 390.2C290.7 380.6 290.1 368.4 289.7 363C289.1 355.4 289 350.1 289.2 339C289.4 331.1 289.4 324.6 289.2 324.4C288.6 323.8 285.8 325.5 284 327.6C283 328.6 281.3 329.8 280 330.2C276.8 331.4 274.7 330.8 271.9 328C270.7 326.8 269.3 325.5 268.8 325.1C267.2 323.8 268.2 319.5 270.2 319.5C271 319.5 271.5 319.9 274.2 323.1C277 326.5 278.2 326.8 280.5 324.4C281.3 323.5 282 322.6 282 322.4C282 322.3 283.4 321.5 285 320.8C287.7 319.6 288 319.3 288 317.8C288.1 311.7 287.9 296.3 287.8 296.1C287.3 295.7 282.3 297.4 278.4 299.4C272.2 302.4 269.8 303 260.8 303.1C253.5 303.2 252.2 303.4 253.6 304.3C253.9 304.5 254.4 305.4 254.8 306.3C255.2 307.2 256.5 309.5 257.8 311.4C259 313.2 260.9 316.5 261.9 318.6C263.4 322 263.8 322.4 264.8 322.2C266 321.9 267.5 323.1 267.5 324.5C267.5 325 267 325.9 266.5 326.7C265.6 327.8 265.5 328.3 266 331C266.2 332.7 267 336 267.8 338.3C269.1 342.6 270.5 349.7 270.5 351.9C270.5 352.6 269.8 353.7 269 354.5C267.6 356 267.6 356.1 267.2 363.4L266.9 370.8L268.9 376.5C270 379.7 271.3 383.1 271.7 384.2C272.2 385.4 273.5 388.9 274.6 392.2L276.6 398.2L276.5 410.8L276.5 423.3L279.4 425.2C281.8 426.6 282.5 427.4 283.2 429.1C284.5 432.8 284.6 433.8 283.8 434.7C282.1 436.3 280.4 435.3 279.3 432.3C279 431.2 278.1 429.8 277.3 429.3C276 428.3 276 428.3 275 429.3C274.1 430.1 274 431 273.9 435.8C273.8 444.5 274.3 445 284.5 446.2C287.6 446.6 290.3 447.1 290.6 447.4C292.1 448.9 292.3 447.5 292.3 433.2ZM234 308C240.4 307.5 240.8 307.4 242 306.1C242.7 305.3 244 304.4 244.8 304.1C246.4 303.4 246.4 303.4 246.1 300.3C245.9 298.1 246.2 296.3 246.9 293.7C248.2 289.6 249.4 288.5 254.3 287C256.3 286.3 258.3 285.3 259.5 284.2C261.5 282.4 265 277.1 265 275.8C265 274.9 266.3 273.5 267.2 273.5C268.3 273.5 269.5 275 269.5 276.3C269.5 278.4 265.7 284.6 262.9 287.3C260.9 289.3 259.4 290.1 256.7 291C254.8 291.6 252.9 292.4 252.5 292.8C251.9 293.4 250.5 297 250.5 298.3C250.5 298.6 253.5 298.7 259.1 298.6C268.8 298.5 271.2 298 277.6 294.6C279.6 293.5 282.7 292.4 284.4 292L287.5 291.4L287.5 288.2C287.5 285.1 286.1 271.1 285.8 270.5C285.7 270.4 285.3 268 285 265.2C284.2 258.4 283.8 257.4 280.9 255.7C279.6 254.9 278.3 253.7 278 253.1C277.7 252.5 277.2 252.1 276.8 252.3C276.4 252.5 275.6 252.3 275 252C274.4 251.7 274 251.7 274 251.9C274 252.6 272.8 252.9 268.9 253.5C265.2 254 258.1 255.9 257.1 256.7C256.7 257 255.9 258.3 255.2 259.6C254.6 260.9 253.2 262.5 252.3 263.2C251.4 264 250.3 265.2 250.1 266C249.6 267.5 249.6 267.5 251.2 267.5C253.9 267.5 263.7 266.1 265.2 265.5C267.1 264.8 268.8 264.9 269.7 265.8C270.8 266.8 270.7 267.8 269.6 268.9C269 269.3 268.5 270.2 268.3 270.8C267.8 272.4 266.3 272.7 264.5 271.7C263.2 270.9 262.6 270.9 258.1 271.4C255.4 271.8 251.4 272 249.2 272C247 271.9 244.6 272.1 243.9 272.4C243.1 272.7 240.1 273.1 237.1 273.3C232.4 273.6 231.6 273.5 230.9 272.8C230.4 272.3 230 271.6 230 271.2C230 269.7 231.5 269.2 236.3 268.8C241.3 268.5 245 267.7 245 266.9C245 266.7 245.5 265.3 246 263.7C246.8 261.7 247.5 260.7 248.9 259.8C250 259.1 251 257.9 251.4 257L252 255.4L249 255.7C245.8 256.1 242.1 257.2 238.4 259C235.9 260.2 233.8 260.1 233.3 258.7C232.7 257 233.6 256.2 238.4 254.1C242.2 252.4 244.4 251.7 248.6 251.1C253.3 250.4 254.1 250.4 255 251.1C256 251.7 256.6 251.7 260.4 250.6C265.9 249.1 272.1 248.2 273.3 248.9C273.9 249.2 274.4 249.1 275.2 248.3C276.1 247.4 276.1 247.1 275.5 244C275.2 242.2 274.8 239.9 274.6 238.9C274.5 237.6 273.9 236.6 272.9 235.8C271.7 234.7 271.2 234.6 268.9 234.8C267.4 235 265.8 235.5 265.3 235.8C264.7 236.2 263.8 236.5 263.2 236.5C262.5 236.5 261.7 237.4 260.5 239.3C258.1 243.3 257.1 243.6 246.8 243.9C238.1 244.1 235.1 243.8 227.1 242C224.8 241.4 222 241 220.8 241C218.8 241 218.6 241.1 217.8 242.9C217.4 243.9 216.5 246.3 215.9 248.1C214.9 251.5 214.1 252.3 212.4 251.7C210.6 251.1 210.6 248.8 212.5 244C213.1 242.5 213.8 240.5 214.1 239.6C215 236.4 220.3 235.6 228.1 237.5C237.1 239.5 244.9 240.1 252.4 239.2C254.8 238.9 255.2 238.6 256.3 237C257 235.9 257.5 234.8 257.3 234.6C257.1 234.3 255.5 234.2 253.4 234.3C243.3 235.1 220.9 231.8 218 229.3C217.1 228.4 210 228.8 208.8 229.7C207.6 230.6 206.8 240 206.9 251.2C207 256.8 206.8 263.4 206.5 266C206.2 268.6 205.8 272.6 205.5 274.8C205.3 276.9 204.6 281 204 283.8C203.4 286.5 202.7 289.6 202.5 290.8C202.2 291.9 202 293.5 202 294.5C202 296 202.2 296.4 203.9 297.2C205.4 298.1 205.9 298.8 206.8 301.2C207.4 302.8 208.1 304.3 208.5 304.5C208.9 304.7 210.5 305.1 212 305.3C213.5 305.5 215.4 306 216.2 306.4C218.1 307.4 222.6 308.4 225.3 308.4C226.4 308.5 230.3 308.3 234 308ZM285.8 248.8C285.6 246.9 285.3 237.8 285 228.8C284.7 219.7 284.2 211.2 284 210C283.8 208.8 283.3 206.2 283 204.4C282.1 199.5 281.9 199.2 278.4 200.8C275.7 202 275.6 202.2 275.8 203.7C276.2 206.7 277 219.9 277 223.5C277 225.4 276.6 228 276.2 229.3L275.4 231.6L277 233.3C278.1 234.4 278.8 235.7 279 237.1C279.2 238.3 279.7 240.9 280 243C281 249.1 281.5 250.5 283.4 251.8C284.4 252.4 285.4 252.8 285.6 252.7C285.9 252.5 286 250.8 285.8 248.8ZM264.8 231.1C265.6 230.8 267.3 230.4 268.6 230.2C270.7 230 271 229.8 271.7 228C272.7 225.6 272.7 224.3 271.9 212.8L271.3 203.9L266.3 204.1C263.5 204.3 260.1 204.6 258.8 204.9C257.4 205.3 255.2 205.8 254 206.1C252.8 206.4 250.2 207.1 248.3 207.6C245 208.5 244.6 208.6 242 207.8C240.5 207.4 238.4 206.9 237.4 206.8C235.6 206.6 235.4 206.7 234.5 208.4C232.9 211.6 226.8 219.3 224.5 221.2C222.6 222.7 221.1 224.6 221 225.5C221 226.5 234.4 229 243 229.6C246.7 229.8 251.6 229.9 253.8 229.7C257.5 229.5 257.9 229.5 259.5 230.7C261.3 232 262.1 232 264.8 231.1ZM213.6 224.2L216.9 223.9L217.7 221.7C218.3 220.3 219.2 219.2 220.2 218.5C222.3 217.2 227.8 210.6 230.2 206.5C231.3 204.7 232.6 202.8 233.3 202.2C234 201.5 234.5 200.7 234.5 200.2C234.5 196.7 244.4 184.9 251.8 179.4C253.1 178.5 255.9 176.1 258.1 174L262 170.3L258.7 166.9C256 164.2 255 163.5 253.7 163.5C252.3 163.5 250.3 162.5 249.2 161.2C249 160.9 246.9 160.5 244.8 160.3C242.6 160.1 239.7 159.8 238.5 159.6C235.5 159.1 233.2 159.8 232.5 161.5C231.8 163.1 230 165 226.1 168.2C223.3 170.5 223.1 170.7 222.8 173.3C222.4 176.6 219.4 186.2 217.7 189.6C216.4 192.1 214.9 193.5 212.4 194.5C206.6 196.7 201.8 198.8 200.4 199.8C198.5 201.2 197.4 201.3 196.3 200.2C195.2 199.1 195.3 198.3 197 196.6C198.3 195.3 207.3 191.1 210.6 190.2C211.3 190.1 212.5 189.1 213.2 188.1C214.6 186 217.8 176.4 218.3 172.7L218.6 170.1L215.5 168.6L212.5 167.1L209.1 168C204.1 169.3 200.2 169.6 199.2 168.7C197.3 166.7 199 164.9 203.2 164.5C205 164.3 206.6 164 206.7 163.9C206.8 163.8 207.1 160.3 207.4 156C208.5 142 206.6 137.5 200.4 138.9C197.7 139.6 196.7 139.3 196.2 138C195.2 134.7 201.6 132.8 206.3 135C211.7 137.4 213.5 146.1 211.7 159.9C211.4 161.9 211.5 162.1 212.6 162.4C213.2 162.5 215.4 163.5 217.4 164.5L221 166.3L222.9 164.7C223.9 163.7 225.5 162.4 226.3 161.6C227.2 160.8 228.4 159.3 228.9 158.1C229.7 156.6 230.4 155.9 231.4 155.7C232.1 155.5 233.5 155.2 234.3 154.9C235.4 154.6 237 154.7 239.1 155C243.8 155.9 248 156.2 248 155.7C248 154.4 246.4 146.6 245.9 145.4C244.9 142.8 246.3 140.6 248.5 141.2C249 141.4 249.7 142.4 250.2 143.4C251.1 145.4 252.5 153.2 252.5 156C252.5 158.1 253.2 159 254.9 159C256.7 159 258 159.8 262.2 164L266.2 167.9L273.8 168.1C281.1 168.2 281.4 168.2 280.9 167.3C280.6 166.8 280.5 165 280.7 163.1L281.1 159.8L279 157.8C276 154.9 275.1 150.2 277.3 149.3C278.8 148.7 280 149.5 280.6 151.5C280.9 152.6 281.7 154 282.3 154.6C283.5 155.6 283.5 155.6 284.5 154.7C285.4 153.9 285.5 153.4 285.2 150C284.5 140.5 283.4 136.4 280.1 131.2C276.4 125.5 272.1 122.8 264.3 121.7C261.5 121.3 257.9 120.6 256.4 120.2C253.5 119.4 253.4 119.4 252.3 120.4C251.7 121 250.6 122.6 250 124C249.1 126 248.4 126.6 246.3 127.7C240.9 130.3 239.7 130.4 231 128.8C227 128 223 128.5 217.8 130.3C214.2 131.5 212 130.5 212.8 128C213.1 127 217.5 125.2 221 124.6L223.2 124.2L223.2 122.1C223.2 120.6 222.5 119 220.5 115.6C217.8 111.2 217.7 111.1 216.1 111.2C214.7 111.3 214.2 111.7 213.3 113.3C212.7 114.5 211 116 209.2 117.2C204.8 120.2 184.2 140.2 181.7 143.9C179.4 147.5 178.4 154.5 179.5 160.5C180.1 163.7 181.2 168.7 182 172C182.3 173.2 182.4 175 182.3 175.8C181.6 179.2 183 188.5 184.8 193.2C187.6 200.8 192.8 209.6 196.5 213.2L198.8 215.5L202.3 214.7C204.2 214.3 206.8 213.5 208.1 212.9C211.5 211.4 214.1 212.4 213.3 215C212.9 216.1 207.9 218.4 204.9 218.8L202.6 219.1L203.2 221.1C204 223.6 206.1 225 208.5 224.8C209.5 224.6 211.7 224.4 213.6 224.2ZM258.3 218.2C257.9 217.8 257.5 217.1 257.5 216.6C257.5 214.9 260.9 211 262.3 211C263.2 211 264.5 212.4 264.5 213.5C264.5 214.4 262.1 217.6 260.8 218.6C260 219.2 259.1 219.1 258.3 218.2ZM296.2 206.5C300.5 204.4 306.1 198.4 311.8 189.5C316.5 182.2 320.5 177.7 325.9 173.5C329.8 170.5 330.5 169.6 332.2 165.5C333 163.7 333.7 162 333.8 161.7C333.9 161.4 333.2 160.8 332.2 160.3C331.3 159.9 330.1 158.8 329.6 157.9C328.1 155.2 327.2 154.5 324.9 154.5C321.3 154.5 320.7 154.9 319.8 157.5C318.7 160.7 318 161.2 313 162.9C310.7 163.7 306.5 165.2 303.8 166.2C301 167.2 296.4 168.7 293.5 169.6C286 171.7 286.2 171.6 285.9 174.9C285.7 176.5 285.2 178.8 284.8 180C284.2 181.6 284 184.1 284 188.9C284 195.3 284.1 195.7 285.2 197C286.4 198.5 288 204.1 288 206.8C288 208.1 288 208.1 291 207.9C292.6 207.7 295 207.1 296.2 206.5ZM250.9 202.1C253 201.5 255.8 200.9 257 200.8L259.3 200.4L259.1 196.8C258.9 193.9 259.1 193 259.7 192.3C261.6 190.4 263.5 192 263.5 195.5C263.5 199.4 263.6 199.5 267.6 199.5C270.8 199.5 271.6 199.3 275.3 197.4L279.5 195.3L279.6 187.8C279.8 182.5 280.1 179.2 280.8 176.9C281.3 175 281.5 173.4 281.3 173.2C281.1 173 277.8 172.7 274 172.6L267 172.4L262.5 176.7C260 179.1 257.8 181 257.5 181C257 181 256.7 181.3 251 186.3C245.5 191.2 239.5 198.6 238.9 201.4C238.6 202.3 238.8 202.5 239.9 202.5C240.7 202.6 242 202.9 243 203.2C244.1 203.6 245.2 203.7 245.9 203.4C246.5 203.2 248.7 202.6 250.9 202.1ZM242.2 124.5C244.7 123.5 245.1 123.2 246.7 120.2C248.4 117.1 248.5 117 247.6 115.5C246.7 113.8 246.3 113.7 241.2 113.3C237.7 113 232.3 111.4 229 109.7C226.4 108.4 221.9 104.7 220.8 103C220.2 102.2 219 101.2 218 100.8L216.2 100.1L216.1 103.1C215.9 106.8 217 108.6 219.1 108.2C220.8 107.9 222.1 109.2 225.3 114.5C226.8 117.2 227.6 119.2 227.8 121C228.1 123 228.3 123.6 229.2 123.7C238.5 125.7 238.8 125.7 242.2 124.5ZM249.1 104C251.3 91.1 251.5 81.7 249.8 73.2C246.8 58.8 242.9 55 231.1 55C224 55 219.1 56.9 214.6 61.4C211.2 64.7 209.9 67.7 209.6 72.5C209.4 76 209.5 76.5 211.1 79.8C212.1 81.7 213.1 84.6 213.5 86.2C213.8 87.9 214.8 90.7 215.7 92.5C217.1 95.3 217.5 95.7 219.4 96.4C220.9 96.9 222.5 98.1 224.7 100.3C228.2 104 230.7 105.7 235.5 107.4C238.3 108.3 246.1 109.6 247.8 109.3C248 109.2 248.6 106.8 249.1 104Z"/></svg>
