<svg xmlns="http://www.w3.org/2000/svg" viewBox="0 0 512 512"><path fill="#fff" fill-rule="evenodd" d="M108.5 463.8C100.3 462.5 96.4 458.8 97.2 453.1C97.5 451.2 98.1 450.3 100.5 447.7C102.2 446.1 103.5 444.5 103.5 444.3C103.5 443.4 97.6 444.9 92.2 447.3C82.1 451.8 76 452.9 64.1 452.3C54.2 451.9 49.6 450.5 48.6 447.4C47.2 443.5 48.5 439.3 51.8 437C54 435.5 61.2 431.4 67.8 428C73.2 425.2 76 423.1 82.3 417.2C94.6 405.8 100 398.6 106.5 385.2C108.6 380.9 113 371.9 116.2 365.2C125.5 346.1 129 340.5 139.6 327.5C142.6 323.8 143.2 322.5 145.8 314.2C148 306.8 150.2 302.8 153.8 299.6C155.3 298.2 156.8 297 157 297C157.5 297 161 294.3 163.1 292.2C164.1 291.2 165.8 288.6 167 286.6C171.5 278.6 180.4 268.2 184.2 266.5C185.8 265.8 186.6 265 187.2 263.5C188.2 261.4 188.7 261 196.8 256C202.2 252.5 215.4 245.8 217.7 245.3C218.5 245.1 219.5 244.5 219.9 244C220.3 243.4 222.1 242.2 224 241.3C226.4 240 227.5 239.2 228 238.1C228.7 236.3 230.2 234.9 232.5 233.8C236.7 231.8 236.5 232.2 236.8 222.2C237.1 211.2 236.5 205.1 234.7 201.3C233.3 198.2 232.2 193 231.7 186.9L231.4 183L228.5 180.1C226.8 178.4 225 175.8 224 173.9C222.5 170.8 222.4 170.2 222.1 163.8L221.9 157.1L220.5 156.5C216.3 154.8 213.5 146.3 214.2 137.7C215.2 126.7 224.3 116.5 235.1 114.4C237.2 114 238.5 113.5 238.5 113.1C238.5 112.8 239.2 111.9 240 111.2L241.5 109.8L240.4 108.5C235.3 102.9 234 99.3 231.6 84.8C230.5 77.8 230.4 59.6 231.4 55.7C232 53.3 235.8 46.7 237.8 44.4C239.1 42.9 243.3 39.9 246.5 38.1C249.6 36.4 251.7 35.8 258.2 34.7C263.2 33.9 267.5 34.2 274.1 36C282.9 38.3 289.8 46.6 291.3 56.7C292.2 62.4 291.8 71.5 290.4 75.8C289.9 77.4 289.3 79.4 289 80.2C288.8 81.1 288.7 85.2 288.9 89.4L289.2 97.1L291.8 98.2C293.2 98.8 297.3 100.8 300.9 102.7C307.3 106 310.1 108 310.6 109.4C310.7 109.9 312.6 110.2 317.3 110.5C324.1 111 324.4 111 329.5 112.6C335.3 114.4 339.1 117.1 344.6 123.3C346.1 125 346.9 125.4 348.7 125.7C350.8 126 356 129.1 359.3 131.9C362.2 134.4 369.1 146.1 370.5 150.8C371.4 153.9 373.1 157 374.2 157.3C374.8 157.5 377.2 159.5 379.5 161.7L383.8 165.9L400.8 165.2C433.8 163.9 438.1 163.9 442.1 164.4C446.9 165.1 448.7 166 449.4 168C449.9 169.5 448.9 182.9 448 186.5C447.8 187.5 447.3 190.5 447 193.2C446.7 196 446 200.7 445.5 203.8C445 206.8 444.4 210.7 444.2 212.5C444.1 214.3 443.4 219 442.7 223C441.7 229.3 439.5 246.9 438 260.5C437.7 263.5 437.7 265.6 438.1 267.6C438.6 270.1 438.6 271.1 437.8 274.4C437.1 277.2 436.8 280.3 436.8 286C436.7 295.3 437.8 321.7 438.8 336.2C439.1 342 439.6 353.5 439.8 361.8C440.2 378.9 440 380.1 437.2 381.3C433.8 382.7 427.1 381.9 425.8 379.9C425 378.5 423.8 365.9 422.5 344C421.9 333.2 421.1 321.8 420.2 308C419.8 301.5 419.3 293 419.2 289.1L418.9 281.9L414.1 282.2C411.4 282.4 405.8 283 401.6 283.5C397.5 284.1 391.8 284.6 389 284.7C386.2 284.9 383.8 285.1 383.6 285.2C383.4 285.3 383.2 291.7 383.1 299.3C382.9 316.8 382.1 355.4 381.5 375.7C381.1 388.8 380.9 391.4 380.1 392.9C379.1 395.1 377.1 395.9 372.8 396C368.2 396 366.2 395.3 365.5 393.4C365.2 392.3 365 376.5 365 341.3L365 290.7L363 290.1C361.9 289.8 360.2 289.5 359.1 289.5C358.1 289.5 356.3 289.1 355.3 288.5C354.2 288 352.4 287.4 351.2 287.2C350 287 348 286.3 346.9 285.5C344.8 284.1 344.3 284 336.2 283.6C331.6 283.3 323.4 282.9 318 282.8L308.2 282.5L306.5 285.9C304.2 290.3 299.1 297.9 295.8 301.7C294.3 303.4 293 305.2 292.8 305.8C292.6 306.3 292.4 311.9 292.5 318.2C292.5 324.6 292.2 338.2 291.8 348.5C291.3 358.8 291 369.6 291 372.5C291 376 290.7 378.6 290.2 380.2C289.5 382.3 289.2 382.5 286.9 383.2C283.9 384.1 281 384.2 278.4 383.5C275.4 382.6 275.4 382.4 275.6 350.3L275.8 321.9L272.3 322.2C270.4 322.4 268.5 322.8 268 323.2C267.6 323.5 265.7 324.7 263.9 325.7C261.2 327.1 259.6 327.6 256.1 328C241.8 329.6 236.1 332.2 232.9 338.2C232.2 339.5 231.8 341.7 231.5 345.9C230.6 358 226.3 368.5 218.6 377.3C216.5 379.8 209 387.6 202 394.8C182.9 414.2 176.2 421.8 175.9 424.4C175.8 424.9 175.8 429.3 175.8 434.2C175.8 442.7 175.7 443.4 174.6 445.6C173.6 447.7 172.9 448.3 170.1 449.7C168.2 450.6 163.7 452.2 160 453.2C156.3 454.3 152.2 455.6 150.8 456.3C146.6 458.3 140.5 460.8 137 461.9C129.7 464.2 116.7 465.1 108.5 463.8ZM126.6 459.3C133.7 458.3 138.6 456.9 146.2 453.3C149.6 451.8 155.3 449.8 159 448.7C166.7 446.6 169.1 445.5 170.4 443.6C171.1 442.5 171.2 441 171.2 432.5C171.3 421.4 171.1 422.1 176 415.6C179.3 411.1 185.7 404.3 200.1 389.9C216.7 373.2 221.2 367.6 223.9 359.8C225.9 354 226.6 350.7 227 345C227.6 337 229.7 332.6 234.4 329.3C238.2 326.7 249.6 323.6 255.6 323.5C257.9 323.4 260.5 322.4 263.9 320.2C267.1 318.1 267.7 317 269 310.8C269.3 309.1 269.8 307.1 270.1 306.4C270.4 305.5 270.4 303.3 270 299.6C268.7 287.8 263.5 280.2 253.6 275.9C250.9 274.7 242.6 273.5 236.9 273.5L233.1 273.5L228.8 278.1C225.1 282 224.6 282.8 225.3 283C225.8 283.2 227 283.3 227.9 283.1C229 282.9 229.8 283.1 230.5 283.8C231.1 284.3 231.5 284.4 231.5 284.1C231.5 283.6 232.1 283.6 233.4 283.8C236.4 284.3 237 284.5 237 285.2C237 286.4 231.9 287.1 231.2 285.9C231 285.6 230.8 285.6 230.5 286.1C230.2 286.4 229.3 286.8 228.4 286.9C220.7 287.6 221.4 287.4 219 290.4C216.4 293.6 213.6 297.8 213.2 299.2C213 299.7 213.3 300.4 214 301.1C215.6 302.6 215.3 303.9 212.8 305C209.9 306.4 204.8 316 202.3 324.8C201.8 326.4 200.8 328.8 200.2 330C199.5 331.2 199 332.5 199 332.9C199 334.1 196.4 338.6 190.6 347.4C186.6 353.5 183.3 359.4 179.8 366.5C173.3 380 168.2 389.1 163.6 395.5C158.9 402.1 148.4 414.2 144.6 417.4C143.1 418.7 140.3 421.1 138.5 422.8C134 426.9 129.3 430.4 127.5 430.7C126.6 430.9 125.9 431.5 125.5 432.5C124 436.2 117.2 441.4 111.4 443.3C108.9 444.1 108.4 444.4 107.9 445.9C107.6 446.9 106 449.1 104.4 450.8C102.8 452.6 101.5 454.2 101.5 454.4C101.5 458.9 112.9 461.1 126.6 459.3ZM76.9 447.3C82.6 446.4 84 446 90.7 442.8C96 440.3 100.1 439.4 105.2 439.6C109.8 439.7 115.5 437 119.7 432.6L121.6 430.6L121 427.7C120.6 426.1 120.3 422.4 120.3 419.5C120.3 415.1 120.4 413.9 121.3 412.2C122.9 409.3 127.6 402.9 131 399.1C132.6 397.2 136.1 393.3 138.8 390.2C141.5 387.2 148.1 380.1 153.5 374.5C166.7 360.7 167.6 359.2 170.7 348C174.2 335.3 174.4 334.7 177.4 332.8C179.7 331.3 189 328.1 193.5 327.3L196.8 326.7L197.9 323C199.9 317 202.3 311.2 204.2 308.4C207.2 303.6 207.9 302.3 208.3 300C208.6 297.7 210 294.6 211.6 292.5C215.7 287.1 217.5 284.5 217.5 284.1C217.5 283.9 216.6 282.9 215.5 281.8C214.4 280.6 213.5 279.6 213.5 279.4C213.5 278.9 208.8 275.6 206.1 274.2C203.6 272.9 194.8 271 191 271C189.8 271 188.4 270.8 188 270.5C186.9 269.8 184.9 271.1 181.2 275.3C176.8 280.4 172.6 285.9 170.5 289.8C168.1 294.2 165.9 296.7 162 299.2C154.9 304 152.8 306.8 150 316C147.5 324.4 145.8 327.7 141.8 332.5C132.9 343 130.7 346.7 117.2 373.8C106.1 396.2 104.1 399.9 100.6 404.6C93.7 413.6 84 423.2 76.2 428.3C74.6 429.4 69.4 432.3 64.8 434.8C55.3 439.8 52.3 442.1 52.6 444.3C52.7 445.3 53.2 446 54.2 446.4C57.4 448 69.3 448.4 76.9 447.3ZM161.6 428.2C160.6 427.7 160.9 425.3 162.5 422.2C164.7 417.9 165.6 416.8 166.9 417.2C168.5 417.7 168.3 419.1 165.7 424C163.5 428.3 163.1 428.7 161.6 428.2ZM128.5 424.9C132.9 421.8 142.1 413.3 148.2 406.8C157.2 397.2 159.9 393.3 168.6 378.5C170.2 375.9 171.7 373.1 172 372.3C174 367 182.8 350.8 188.2 342.5C191.7 337.2 194.5 332.6 194.5 332.4C194.5 331.7 191.9 332.2 186.5 334C178.5 336.7 178.7 336.5 176.8 343.5C173.8 354.6 173.1 356.9 171.5 360C169 365 166.9 367.6 158.8 376C136.8 398.7 126.3 411.2 125 416.2C124.2 418.9 124.9 426.5 126 426.5C126.2 426.5 127.3 425.8 128.5 424.9ZM111.6 417.2C110.3 416.6 111.6 411.9 114.2 408.1C115.4 406.3 116.1 406.1 117.2 407.3C117.9 407.9 117.8 408.4 116.4 411.6C114.1 417.2 113.5 417.9 111.6 417.2ZM375.7 390.9C376.4 390.3 376.6 388.5 377 374.5C377.8 347.6 378.5 314.8 378.5 302.1L378.5 290L377.4 290C376.8 290 374.7 290.2 372.9 290.3L369.5 290.6L369.5 340.7C369.5 368.3 369.6 391 369.8 391.2C370.4 391.7 374.8 391.5 375.7 390.9ZM190.5 386.5C190.5 385.7 192.4 382 193.8 380.2C194.4 379.3 198.1 373.5 201.9 367.2C208.9 355.8 211 352.5 211.5 352.5C211.6 352.5 212 352.7 212.4 352.9C212.9 353.2 212.9 353.7 212.3 355.4C210.6 360.2 205.8 369.5 203.2 373C195.8 382.9 192.3 387 191.4 387C190.9 387 190.5 386.8 190.5 386.5ZM285.9 378.7C286.1 378.6 286.3 376.2 286.4 373.6C286.5 370.9 286.9 359.6 287.3 348.5C288.1 325.7 288.2 311 287.6 311C286.9 311 283.2 314.3 281.7 316.3L280.3 318.1L280.1 348C280 364.5 280 378.3 280.2 378.8C280.5 379.5 281 379.6 283.1 379.3C284.5 379.2 285.8 378.9 285.9 378.7ZM135.3 378.2C134.7 377.5 135 375.9 136.5 371.8C139.4 363.6 145.9 352.6 150.4 348.1C152.8 345.8 153.1 345.7 154.2 346.8C155.1 347.7 155.3 347.2 151.3 353.5C149.8 355.8 147.9 358.8 147.1 360.2C146.4 361.5 144.8 364.1 143.6 365.9C142.4 367.7 140.5 370.9 139.5 373C136.9 378 136.1 379 135.3 378.2ZM434.9 377C435.5 376.7 435.6 374.3 435.3 362.4C435.1 354.6 434.6 343.2 434.2 337C433.5 326.2 432.8 309.4 432.1 289.6C431.9 280.6 431.8 280.4 430.8 280.7C430.2 280.9 428.3 281 426.6 281L423.4 281L423.7 288.1C423.8 292 424.3 300.5 424.7 307C425.6 320.7 426.4 332.2 427 343C428.3 364.8 429.4 376.6 430.2 377.1C431 377.6 434.1 377.6 434.9 377ZM224.8 325.7C223.7 324.7 223.8 324.5 225.4 322.2C227.6 319.2 230.9 316.6 234.2 315.2C237.8 313.8 238.8 313.7 239.2 314.8C239.6 315.8 239 316.6 235.4 319.4C233.7 320.6 231.2 322.7 229.6 324.1C226.6 326.7 226 326.9 224.8 325.7ZM179.7 323.1C176.7 322.3 172.5 318.4 172.5 316.5C172.5 315.4 173.8 314 174.8 314C175.2 314 176.5 315 177.8 316.2C179 317.5 180.6 318.6 181.3 318.8C182 319 184.9 319 187.8 318.8C192.3 318.5 192.9 318.6 193.2 319.3C193.7 320.7 193.1 321.7 191.4 322.4C189.4 323.2 181.9 323.6 179.7 323.1ZM276.5 315.8C277.2 313.5 283.8 307.2 285.9 306.8C287.3 306.5 287.7 306 288.7 303.8C289.3 302.4 291.2 299.6 292.9 297.7C297 292.9 302.1 285 303.7 281C305.4 276.7 306.5 267.3 306 261.5C305.8 259.2 305.6 256.8 305.5 256.2C305.5 255.6 305.1 254.6 304.5 254C303.4 252.7 303.3 252.3 304 250.9C304.5 250.2 304.4 249.1 303.7 246.6C302.6 242.2 302.2 241.5 301 241.5C300.4 241.5 298.7 241 297.1 240.5C291.2 238.4 285.2 238 263 238L242.2 238L240.5 236.8L238.8 235.6L236.5 236.9C232.9 238.9 231.9 240 232.3 241.5C232.6 243.2 231.3 244.7 229.8 244.3C228.3 243.9 223.6 246.4 223.3 247.9C223.1 248.6 222.5 249.1 221.6 249.3C218 250 215.9 250.8 209.6 254C202.9 257.4 191.5 264.7 191.1 265.8C191 266.2 192 266.5 193.8 266.7C205.2 268 210.8 270.3 216.9 276.4L220.5 280L223.6 276.6C228 272 230 270.1 231.6 269.5C232.6 269 233.1 268.4 233.3 267.2C233.5 266.2 234.5 264.4 235.6 263.2C236.6 261.9 237.5 260.5 237.5 260C237.5 259.5 236.3 258 234.8 256.6C232.1 254.1 229.7 252.6 226.4 251.5C224.2 250.8 223.8 250.4 224.3 248.9C224.6 248 224.9 247.9 226.5 248.2C231.4 249 240 253.7 240.8 256.1C241 256.7 241.4 257 241.8 256.8C242.2 256.6 242.9 256.5 243.2 256.5C243.6 256.5 244.3 255.5 244.7 254.2C245.2 253 245.8 252 246 252C246.2 252 247.2 251.3 248.3 250.4C249.4 249.6 251.5 248.3 252.9 247.7C258.9 245 272 242.5 272 244C272 244.6 272.1 244.6 272.6 244.1C273.4 243.3 278.4 243.3 281.3 244.1C282.9 244.5 283.5 244.9 283.4 245.4C283.3 246.1 282.4 246.3 278.1 246.4C274.2 246.5 273 246.4 273 245.9C273 245.4 272.8 245.5 272.4 246C272 246.5 270.6 247 269 247.2C266.5 247.5 264.3 248.1 259.5 249.6C256.5 250.6 249.6 254.1 249.3 254.9C249.1 255.3 249.3 255.9 249.8 256.3C251.7 258.2 249.8 260.1 245.3 260.8C242.7 261.2 242.8 261.1 240.3 264.8C237.2 269.2 237.2 269 239.6 269C240.8 269 244.2 269.3 247.1 269.7C251.8 270.3 253.2 270.7 257.1 272.6C259.7 273.9 262.7 275.6 263.9 276.4C268 279.5 273.5 289.9 274.2 296.1C274.5 298.3 274.8 299 275.4 299C276.2 299 278.6 296.6 279.9 294.4C280.8 292.8 281.6 292.7 282.7 293.8C283.5 294.5 283.4 294.9 281.7 297.9C279.6 301.7 279.1 302.3 276.8 303.3C275.4 303.8 275 304.3 275 305.2C275 305.9 274.8 307 274.5 307.6C274.3 308.2 273.8 310.1 273.5 311.8C273.2 313.4 272.7 315.4 272.5 316.1C272.1 317.5 272.1 317.5 274 317.5C275.7 317.5 276 317.3 276.5 315.8ZM368.2 283.7C368.4 282.4 368.5 280.3 368.5 278.9C368.5 276.2 369.2 274.5 370.2 274.5C371.4 274.5 371.8 276 372.2 280.9C372.3 283.5 372.6 285.7 372.7 285.9C372.8 286 373.8 286 374.9 285.8L376.8 285.4L376.6 281.5C376.5 279.3 376.5 277 376.7 276.3C376.9 275.6 378.8 273.2 381.1 270.9C384.3 267.7 385 266.7 384.8 265.8C384.1 263.3 383.9 252.6 384.4 249.2C385.5 242.7 386.9 235.3 388 230.5C389.6 223 391.5 209.3 391.5 204.6C391.5 198 390.5 186.6 389.7 183.4C389.3 181.7 388 179 386.8 177.2C385.5 175.4 384.4 173.2 384.2 172.4C384 171.3 383.4 170.7 382.1 170.2C381.1 169.7 378.5 167.6 376.4 165.4C373 162.1 372.3 161.6 371.5 162C370.2 162.7 369.7 162.6 368.7 161.7C368.2 161.1 368 160.4 368.2 159.2C368.4 158.3 368.3 157.4 368 157.3C367.8 157.1 367 155.3 366.5 153.4C364.1 145.5 359.1 137.8 353.6 133.6C351.4 132 349.2 130.5 348.5 130.3C347.5 129.9 347.4 130 347.7 131.3C347.9 132.1 348.1 134.7 348.3 137.1C348.6 141.2 348.6 141.4 347.5 141.7C346.9 141.9 346.2 141.8 345.8 141.5C345 140.9 343.7 136.2 343.2 132.5C342.7 128.5 341.9 127.1 337.9 123.2C332.1 117.7 326.9 115.7 317 115.1C311.5 114.8 311.2 114.8 310 115.9C309.3 116.6 308.3 117 307.5 116.9C306.7 116.8 305.8 117 305.4 117.3C304.7 117.9 300.7 119.3 298.2 120C296.6 120.4 296 119.9 296 118.5C296 118 303.9 113.9 304.4 114.2C304.9 114.5 306.5 112.7 306.5 111.8C306.5 110.9 304.8 109.9 295.6 105.2C289.7 102.1 288.3 101.6 287.5 102C286.3 102.6 284.5 102.2 284.4 101.3C284.4 101 284.4 97.4 284.5 93.4L284.6 86L283.3 86C282 86 280.5 84.8 280.5 83.8C280.5 82.9 281.7 81.7 283 81.3C283.7 81 284.4 79.6 285.5 76C286.9 71.6 287.1 70.4 287.1 64.7C287.1 61.1 286.9 57.1 286.6 55.8C284.7 48.2 279.1 42 272.5 40.3C266.5 38.8 263 38.6 258.8 39.3C250.5 40.6 247.4 42.1 242.2 47.2C237.7 51.8 236.2 54.7 235.4 60.1C234.8 64.8 235.1 76.9 236 82.5C238.4 97.3 239.6 100.8 243.4 104.9C245.2 106.8 245.6 107 247.7 107C248.9 107 250.8 106.7 251.9 106.3C252.9 105.9 255.6 105.1 257.8 104.5C262 103.5 266.6 101.4 270.4 98.9C272.8 97.3 275 94.2 277 89.8C278.6 86.2 279.1 85.8 280.5 86.3C282.2 86.8 281.8 90.2 279.7 94.6C277.2 99.6 273.6 103 268.1 105.6C263.9 107.7 263.4 107.8 257.3 109.4L253.9 110.2L254.2 112C254.4 113 255.2 115.9 256.1 118.5C257.5 123.1 257.9 127.7 257.1 131.4C256.5 134.4 252.6 134 246.9 130.2C244.6 128.6 242.7 127.3 242.6 127.2C242.5 127.1 242.6 126.6 242.7 126C243.2 124.5 244.9 124.7 249.6 127C253.5 128.9 253.8 129 253.9 128C254 127.5 253.2 124.6 252.3 121.7C251.3 118.7 250.2 115.2 249.9 113.9C249.4 111.5 249.4 111.5 247.5 111.5C246 111.5 245.5 111.7 245.2 112.5C245.1 113.1 244.4 113.9 243.7 114.3C242.9 114.9 242.6 115.4 242.8 116.2C243.2 118.1 242.3 118.7 238.6 118.7C235.8 118.8 234.5 119.1 231.7 120.5C227.2 122.7 222.4 127.5 220.4 131.9C219 134.9 218.8 135.6 218.8 140.5C218.8 145.5 218.9 146 220.4 149.1C222.2 152.8 223.2 153.6 223.7 151.7C223.9 151 224.2 150.5 224.5 150.5C224.8 150.5 225 149.9 225 149.1C225 147.1 226.1 145.8 227.4 146.2C228.2 146.5 228.5 147 228.5 148.3C228.5 149.2 228.3 150.1 228 150.3C227.7 150.4 227.6 151.1 227.8 151.8C228 152.5 227.7 154 227.2 155.4C226.5 157.3 226.4 158.6 226.7 163.5C227 170.4 227.9 172.8 231.6 176.4L233.9 178.6L238.1 178.7C240.4 178.7 243.2 178.6 244.3 178.3C246 178 246.4 178 246.7 178.7C247.5 180.9 244.6 182.5 239.6 182.7C237.9 182.7 236.4 182.9 236.3 183.1C236.1 183.2 236.2 185.8 236.5 188.7C237 193.8 237.4 195.2 240.1 202.4C241.1 205.1 241.2 206.1 241.2 218.6L241.2 231.9L242.6 232.7C243.7 233.4 246.1 233.5 258.4 233.5L272.9 233.5L273.3 231.4C273.4 230.2 274.1 228.2 274.8 227C276 224.8 276.5 221.8 277.5 211.8C277.8 209 278.2 206 278.5 205C278.8 204 279 202.6 279 201.9C279 200.5 280.1 199 281.2 199C282.1 199 285 201.9 285 202.8C285 203.1 284.6 203.9 284 204.4C283.3 205.1 282.8 206.5 282.4 209.4C281.9 213.4 281.9 213.6 282.9 214.5C284.5 216 284.3 217.3 282.1 218.4C281.2 218.9 281 219.5 281 221.3C281 222.7 281.3 223.9 281.8 224.3C282.2 224.7 282.5 225.4 282.5 225.8C282.5 226.6 281.1 228 280.3 228C279.6 228 278.3 230.2 277.8 232.1L277.5 233.5L281.2 233.5C286 233.5 295 234.8 298.5 236C300 236.6 301.5 237 301.8 237C302.2 237 302.5 235.7 302.7 233.6C303.1 230.3 305.6 213.5 306.6 208C306.8 206.5 307.1 204.4 307.2 203.4C307.3 201.1 307.6 200.8 309.9 200.8C311.5 200.8 311.9 200.5 314.8 196.4C318.2 191.7 320.3 188.1 324.9 179.6L327.9 174L326.3 171.9C325.4 170.7 323 167.6 320.8 165C318.7 162.4 316.8 159.6 316.6 158.8C316.3 157.7 315.9 157.2 315 157.1C314 157 313.5 157.5 312.3 159.3C307.8 166.4 301.4 172.1 293.4 176.1C285.6 180 280 181.3 271 181.2C263.3 181.1 259.6 180.3 256 177.8C253.3 175.9 251.8 174.3 250.4 171.8C249.4 169.9 249.4 169.2 249.7 163.5C250.1 155.3 252.1 146.2 253.5 146.2C254.2 146.2 254.2 147.8 254.1 157.8L253.9 169.2L256.3 171.8C260.1 175.7 262.7 176.7 269.2 176.9C277 177.1 285 175.4 291 172.2C297.3 168.8 299 167.5 303.6 162.5C307.9 158 309.2 156 309.7 153.4C310.1 151.7 311.2 151.3 313.3 152.1C314.6 152.6 315.4 152.6 316.7 152.1C318.7 151.4 328.7 151.3 330 152C330.6 152.3 331 152.9 331 153.2C331 154.4 329.2 155 325.3 155.3C320.8 155.7 320.3 155.9 321.1 157.3C322 158.8 327 165.3 329.4 168.2C330.6 169.5 331.6 171.1 331.8 171.8C332 172.6 332.9 173.4 334.2 174.1C335.3 174.7 337.1 175.9 338.2 176.8C343.7 181.2 352.9 185.7 357.3 186.2L359.9 186.4L360.4 184.1C361.1 181 360.5 178 358.4 173.7C357.5 171.8 356.6 170.1 356.5 170C354.7 168.2 351.6 163.4 351.8 162.8C352.5 161 353.7 161.5 356.9 164.9C361.8 170 361.9 170.1 363.3 173.2C365.3 177.5 365.6 183.4 364 188C363 190.9 362.8 192.1 362.9 199.1C363 207.6 363.9 212.2 366.8 219.8C369.3 226.4 369.5 227.8 369.4 236.2C369.4 240.7 369.3 246.3 369.1 248.9C368.9 251.5 368.9 253.9 369.2 254.3C369.8 255.5 369 257 367.6 257.3C363.9 258.1 355.4 262.9 351.7 266.2L349.5 268.2L349.2 274.6C348.8 281.3 349.1 282.5 351.1 282.5C352.2 282.5 352.3 281.8 352.8 275.8C353.2 269.8 354.1 268.2 356.2 270.3C356.8 270.9 357 272.3 357 277.7C357 283.3 357.1 284.4 357.8 284.7C359 285.2 360.6 285.1 360.3 284.5C359.7 283.7 361 272.8 361.7 272.1C362.7 271.1 364.3 271.8 364.7 273.4C364.9 274.1 365 276.6 365 279C364.8 286.2 364.8 286 366.4 286C367.8 286 367.9 285.8 368.2 283.7ZM388.8 280.3C390.9 280.1 396.4 279.5 400.8 279C405.1 278.5 410.7 277.9 413 277.8C415.3 277.6 419.1 277.3 421.2 277C423.4 276.7 427 276.4 429.1 276.2L432.9 275.9L433.5 273.2C433.8 271.7 433.9 269.8 433.8 269C433.5 267.6 433.3 267.6 430.1 267.2C426.6 266.8 421.6 266.8 417.2 267.3C415.9 267.4 410.7 268 405.7 268.5C400.8 269.1 394.9 269.5 392.6 269.5C388.7 269.5 388.5 269.5 387.5 271C386.9 271.8 385.2 273.7 383.7 275.1C381.5 277.2 381 277.9 381 279.3C381 280.6 381.2 281 382.1 281.1C382.7 281.2 383.6 281.1 384 281C384.4 280.8 386.6 280.4 388.8 280.3ZM344.5 276.4C344.5 274.7 344.7 272.4 344.8 271.4L345.1 269.5L327.9 269.8C318.5 270 310.7 270.2 310.7 270.2C310.5 270.3 309.6 277.7 309.7 277.9C309.8 278 317 278.3 325.8 278.5C334.5 278.8 341.8 279.1 341.9 279.3C342.1 279.4 342.7 279.5 343.3 279.5C344.4 279.5 344.5 279.3 344.5 276.4ZM348.2 262.7C349.5 261.5 351.5 260.1 352.7 259.5C353.8 258.9 355.6 257.9 356.8 257.2C357.9 256.5 359.9 255.4 361.3 254.7C362.9 254 364 253.1 364.2 252.4C364.4 251.8 364.7 246.5 364.8 240.7C365.2 229.6 364.9 227.1 362.9 222.6C360.3 216.8 359 210.5 358.5 201.8C358.2 197.2 358.1 193 358.3 192.5C358.6 191.3 357.6 190.7 354.9 190.4C351.6 190 341.2 184.8 336.1 181C333.8 179.3 331.6 178 331.2 178.2C330.8 178.3 329.7 180.1 328.7 182.1C323.3 192.7 316.3 203.3 313.5 204.9C311.9 205.8 311.3 207.1 310.8 210.2C310.6 211.3 309.9 215.7 309.3 220C308.6 224.3 307.7 230.5 307.3 233.9C306.6 239.9 306.6 240.1 307.8 244.1C308.4 246.4 309 249.2 309 250.4C309 251.6 309.2 253 309.5 253.4C309.7 253.9 310.1 256.1 310.2 258.3C310.4 260.5 310.7 263 310.8 263.9L311.1 265.6L328.5 265.3L345.9 264.9L348.2 262.7ZM406.5 264C412.7 263.4 418.1 263 418.6 263.2C420.4 263.6 421 262.4 421.5 257.5C421.8 254.9 422.5 249.2 423.2 244.8C424.9 234.1 428.3 209.9 428.7 206.5C428.9 205 429.6 200.4 430.2 196.2C430.9 192.1 431.7 186.8 432 184.5C432.3 182.2 432.8 179.2 433 178C434.1 172.2 434.6 168.9 434.3 168.6C434.1 168.5 428.5 168.6 421.9 168.9C415.2 169.2 405 169.6 399.1 169.8C391.4 170.1 388.5 170.3 388.5 170.8C388.5 171.1 389.1 172.1 389.7 173.1C391.8 175.9 393.4 179.2 394.2 182.3C395.1 185.8 396 197 396 204.5C396 211.8 393.8 226.6 391.3 237C390.9 238.5 390.4 241 390.2 242.5C390.1 244 389.6 246.6 389.2 248.2C388.6 250.5 388.4 252.9 388.6 257.6C388.8 261.1 389 264.1 389.2 264.5C389.7 265.2 393.9 265.1 406.5 264ZM433.2 261.9C433.4 260.8 433.6 258.9 435.5 242C436.1 237.2 437.2 228.9 438 223.5C438.8 218.1 439.8 211.3 440.2 208.2C441.8 196.7 442.6 191.5 443.5 185.5C444.9 176.4 445.3 169.5 444.4 169.5C444.1 169.5 442.7 169.3 441.4 169.1C439 168.7 439 168.7 438.8 170.2C438.6 171.1 438.2 173.9 437.7 176.5C437.3 179.1 436.6 183.5 436.2 186.2C435.8 189 435 194.2 434.5 197.8C433.9 201.3 432.3 213.1 430.7 224C429.2 234.9 427.5 246.6 427 250C426.5 253.4 426 257.5 425.9 259.1C425.7 261.7 425.8 262 426.7 262.2C427.3 262.4 428.2 262.6 428.8 262.7C429.3 262.8 430.5 262.9 431.4 262.9C432.7 263 433 262.8 433.2 261.9ZM380.3 236.7C379.7 236 380 232.6 380.8 231.8C381.3 231.3 381.4 231 381 231C380.2 231 380.7 227 382 221.5C382.4 219.4 383.3 216 383.7 213.9C384.8 209.4 385.1 208.8 386.2 209.2C387.2 209.5 387.2 211.7 386.5 217.3C385.6 223.9 384 230.2 382.9 231.1C382.3 231.6 382.1 232 382.4 232C383.2 232 383.2 233.4 382.5 235.4C381.9 236.9 381.1 237.4 380.3 236.7ZM252.6 225.6C252.3 225.4 252 224.2 252.1 222.7C252.1 219.2 251.9 218.9 249.3 219.3C247.7 219.5 247 219.4 246.3 218.8C244.4 216.9 245.5 215.7 249.4 215.4C251.1 215.3 252.6 215.1 252.7 214.9C252.9 214.8 253.1 212.6 253.3 210.1C253.6 206.8 253.8 205.5 254.4 205.3C255 205 255 204.9 254.4 204.3C254 204 253.3 203.4 252.7 203.1C251.8 202.6 251.5 202.7 251.3 203.3C250.7 204.9 243 203.6 243 201.9C243 200.4 243.8 200.1 247.9 200.2L252 200.2L252.6 198.2C253 196.5 252.9 190.2 252.3 189.7C252.2 189.6 251 189.3 249.6 189.2C247.6 188.9 246.9 188.6 246.7 187.9C246.2 186.2 247.5 185.5 252.3 185C254.7 184.7 257.7 184.4 258.8 184.2C260.5 184 261.1 184.1 261.9 184.9C262.5 185.5 263 185.7 263.1 185.5C263.4 184.6 267.1 186.1 266.9 187C266.7 187.9 263.1 188 262.5 187C262.3 186.7 262 186.6 261.9 186.8C261.8 187.1 260.7 187.6 259.5 188L257.2 188.8L257.4 193.8C257.5 196.5 257.7 198.8 257.7 198.9C258.1 199.2 269.6 199.2 271.8 198.8C274.2 198.5 274.4 198.5 274.7 199.5C275.5 201.7 272.4 202.8 263.8 203.3C257.4 203.7 255.4 204.4 256.8 205.9C257.3 206.3 257.5 207.7 257.4 210.1C257.4 215.1 257.8 215.4 264.8 215.5C270 215.5 271 215.8 271 217.2C271 218.8 270 219.1 265 219.2C261.4 219.2 259.9 219.1 259.6 218.6C259.3 218.2 258.7 218.1 257.9 218.3C256.6 218.6 256.4 219.1 255.9 223.7C255.6 225.6 254.1 226.5 252.6 225.6ZM284.2 214.9C283.9 213.8 284.6 213.1 287 212.4C288.8 211.8 289.2 213 287.6 214.6C286.1 216.3 284.7 216.4 284.2 214.9ZM374.6 210C373.7 209.5 373.8 208.7 376.9 197.6C379.2 189.6 379.5 187.9 379.5 183.8C379.5 179.9 379.6 179.1 380.3 178.8C384.4 177.2 385.2 186.2 381.9 197.1C379.8 203.8 376.9 210.5 375.9 210.5C375.5 210.5 374.9 210.3 374.6 210ZM299.5 190.6C299.5 189.6 304 183.8 305.1 183.4C305.5 183.3 306 183.2 306.4 183.4C308.6 184.1 304.2 190.7 301.1 191.3C299.7 191.6 299.5 191.5 299.5 190.6ZM296.3 183.2C295.8 182.8 295.5 182.3 295.5 182.1C295.5 181.9 297 180.2 298.9 178.4C302.6 174.7 304 174.1 304 176.4C304 178.5 301.3 181.7 298.1 183.3C297.2 183.8 296.9 183.8 296.3 183.2ZM305 139.4C303 138.8 294.6 132.6 293.6 131C293 130 293.2 128.7 294.2 128.3C295.3 127.9 308.5 136.8 308.5 138C308.5 138.4 307.1 140.1 306.8 139.9C306.8 139.9 306 139.7 305 139.4ZM259.8 134.7C258.7 133.6 258.8 133.3 260.9 131.5C265 128 276 123.8 282.6 123.1C284.5 123 285.1 123.1 285.3 123.7C285.7 124.7 284.4 125.7 282 126.4C280.3 126.9 276.2 128.4 271 130.5C269.5 131.1 267.7 131.8 267 132C266.3 132.2 264.6 133.1 263.1 133.9C260.8 135.3 260.5 135.4 259.8 134.7ZM283.2 110.7C282.6 110.5 282.9 106.6 283.6 106.2C283.8 106.1 284.5 106.1 285 106.3C285.9 106.5 286 106.8 285.7 108.2C285.2 110.5 284.5 111.2 283.2 110.7Z"/></svg>
