<svg xmlns="http://www.w3.org/2000/svg" viewBox="0 0 512 512"><path fill="#fff" fill-rule="evenodd" d="M326 368.8C322.8 367.8 317.1 366 313.2 364.8C296.2 359.4 290 357.5 286.3 357C282.6 356.4 282.3 356.4 281.8 357.2C279.7 360.8 274.1 364.7 270.1 365.5C267.1 366 260.9 365.1 257.5 363.6C254.7 362.4 251.8 359.2 251 356.7C250.7 355.6 250.3 352 250.1 348.7C249.8 341.8 250.3 342.4 245.3 341.7C242.8 341.4 237.2 339.5 226 335.3C222.6 334 217.8 332.3 215.5 331.5C213.1 330.8 209.6 329.6 207.7 328.8C199.3 325.6 153.9 309.5 135.5 303.1C98.3 290.3 100.8 291.2 99.5 289C98.3 286.8 98.6 286.9 90 285.8C84.3 285.1 83.4 284.8 78.3 282.3C75.2 280.9 71.6 278.7 70.2 277.6C60.6 269.6 56.6 267.2 50 265.5C38 262.4 36.6 261.7 34.6 257.6C32.7 253.8 30.5 246.1 30.5 243.1C30.5 239.9 31.4 237.1 32.5 236.5C33.1 236.2 36.9 234.6 41 233C48.9 229.9 50.5 229.6 55 230.6C58.6 231.3 60.1 232.9 62.5 238.5C63.6 241.1 64.8 243.7 65.2 244.3C66.2 245.7 69.3 246.4 76.7 246.8C82 247.1 82.4 247.1 83.4 246.1C84 245.5 84.5 244.7 84.5 244.2C84.5 243.8 85.6 241.3 87 238.6C90.9 230.8 91.3 228.9 91.7 219.6C92 213.5 92.3 210.4 93.2 206.9C95.3 198.9 96.6 196.5 102.1 190.6C105.1 187.5 105.1 187.5 104.7 185.1C104.5 183.8 103.5 179.2 102.4 174.8C99.7 164 98.4 153.4 98.9 147.8C99.5 142 102.4 136.1 106.4 132.5C109.4 129.7 116.3 126.1 120 125.4C123.8 124.6 134.8 124.4 138.4 125C144.5 126 149.1 129.5 152.1 135.4C154.8 140.6 155.9 147.7 155 153.2C153.3 162.8 153.5 164.4 157.2 167.9C159.2 169.9 159.5 170 163.4 170.5C168.4 171.1 174.4 173 179.8 175.5C181.9 176.5 184.3 177.6 185 177.8C187.2 178.4 191.2 180.6 192.1 181.7C192.6 182.3 194 184.5 195.3 186.6C198.1 191.4 200.7 194.4 204.7 197.2C208.1 199.6 211 201 212.8 201C213.4 201 214.5 201.2 215.1 201.4C215.7 201.7 217.5 202.2 219 202.5C223.7 203.5 225.8 204.4 226.4 205.8C226.8 206.7 227.3 207 227.9 206.8C228.4 206.7 229.4 206.4 230.2 206.2C231.1 206.1 234.3 204.9 237.5 203.8C249.9 199.2 252.9 198.3 259.8 197.7C261.9 197.5 264.2 197.2 264.8 197C265.4 196.8 266.6 195.1 267.6 193.2C269.9 188.9 272.4 185.7 274.8 183.9C279.7 180.4 293.2 174.2 297.9 173.3L301 172.8L303.1 167.5C304.3 164.6 305.9 161.4 306.7 160.3C310.2 155.8 317.1 154.7 325.4 157.4C327.8 158.2 330.5 159 331.3 159.2C332.8 159.4 332.9 159.4 333.1 157.6C333.5 154.6 337.2 147.2 338.8 146.2C339.9 145.4 341.4 145.2 346.3 145.1C353.1 144.9 351.6 144.5 363.8 149.7C371.7 153.2 373.4 153.5 383.8 153.5C393.9 153.5 397.5 154.1 402.1 156.4C406.4 158.5 408.5 160.4 410.2 163.5C412.2 167.3 413 170.6 413 176.1C413 180.2 412.8 181.4 411.7 183.9C410.7 186.3 410.1 187.1 408.8 187.5C408 187.9 403.2 188.3 398.2 188.4C390.1 188.7 389.1 188.9 387.7 189.8C385.2 191.6 384.6 192.6 384.2 195.8C383.8 199.9 382.6 204.9 381.7 207.1C381 208.6 380.4 209.1 378 210C376.4 210.5 374.8 211 374.4 211C373.4 211 373.2 215.1 372.8 235.8C372.6 243.2 372.3 251.1 372 253.2C371.8 255.4 371.3 259.6 371 262.5C370.7 265.4 369.7 271.1 368.7 275.2C367.8 279.4 366.9 283.9 366.7 285.3L366.4 287.9L369.1 288.1C376.1 288.9 389.9 296 392.5 300.2C393.9 302.5 394.9 310.4 394 313.3C392.8 318 385.3 327 368.1 344.8C353.8 359.5 344.6 368.4 342.8 369.3C341.9 369.8 339.6 370.2 336.6 370.3C332.2 370.5 331.2 370.3 326 368.8ZM341.4 364.6C343.5 363.1 370.4 335.7 377.3 328.1C385.4 319.1 387.3 316.7 388.8 313.7C390 311.3 390 310.9 389.6 307.4C389.1 303.4 388.5 302.2 386.4 300.5C384.7 299.2 379.1 296 378.4 296C378.1 296 376.4 295.3 374.5 294.5C372.6 293.7 369.7 292.8 367.9 292.5C365.2 292.2 364.7 292.2 364.1 292.9C363.8 293.4 363.4 294 363.1 294.3C362.9 294.6 362.2 295.8 361.6 297.1C358 304.3 352.9 306.9 343.1 307L339 307L339 309.2C339 311.9 337.6 318.2 336.6 320.2C335 323.5 333.2 324.8 327.4 326.8C321.6 328.7 316.9 329.2 310.4 328.3C307.3 327.9 303.5 327.2 302 326.8C300.5 326.3 297.3 325.6 294.9 325C290 323.9 281.3 321.3 278.2 320C277.1 319.5 275 319 273.6 318.8L271 318.4L271 323.2L271 327.9L274.1 328.3C275.8 328.5 278.7 329.2 280.5 329.9C284.4 331.3 289.2 333 295 335C297.3 335.8 304.2 338.2 310.2 340.4C331.4 348 332.6 348.2 337.3 345.8C340.5 344.2 342.9 341.8 358.1 325.5C371.9 310.6 375.6 307 376.9 307C378.1 307 379.6 308.4 379.4 309.3C379.3 309.9 372.6 317.1 359.8 330.5C356.2 334.2 351.1 339.6 348.4 342.5C344.3 347 343 348.1 339.7 349.8C336.2 351.6 335.6 351.7 332.1 351.7C328.2 351.6 323.2 350 295.5 340.1C292.1 338.9 287.4 337.3 285.2 336.5C283.1 335.7 280.1 334.6 278.7 334.1C277.3 333.6 275 333 273.6 332.8L271 332.5L271 337.9C271 340.8 271.1 343.7 271.3 344.3C271.5 345.1 272.6 345.8 275.2 346.7C277.1 347.5 279.3 348.3 279.9 348.5C280.5 348.8 281.3 349.6 281.6 350.3C282.2 351.6 282.3 351.7 288.5 352.7C292.7 353.4 296.1 354.4 315.5 360.6C331 365.6 332.7 366 336.6 365.8C338.9 365.6 340.5 365.2 341.4 364.6ZM273.9 358.5C276.6 356.6 277.5 355.7 277.8 354.5C277.9 353.6 278 352.9 277.9 352.8C277.8 352.7 275.6 351.8 272.9 350.7C268.2 348.9 268 348.7 267.2 346.8C266.6 345 266.5 338.6 266.6 289.8C266.7 244.9 266.9 234.5 267.4 233.6C267.8 232.9 269.5 231.8 271.2 231C273.8 229.8 274.4 229.3 275.4 227.2C276.1 226 277.4 224.2 278.4 223.2C280 221.8 280.2 221.3 280.2 219.4C280.1 214.2 278.8 213 273.1 213C269.8 213 269.5 213.1 268.4 214.5C267.8 215.4 266.2 216.7 265 217.5C262.4 219.1 258.5 223.5 257.6 225.8C256.4 228.8 256 236.3 255.5 260.5C255.2 274.1 254.8 288.1 254.5 291.5C254.3 294.9 254.2 298 254.4 298.2C254.6 298.5 254.8 311.1 254.8 326.2C254.8 357.3 254.7 356.3 258.5 358.8C260.7 360.3 263.1 360.8 267.5 360.9C270.1 361 270.6 360.8 273.9 358.5ZM250.5 330.9C250.5 329.1 250.4 326.6 250.2 325.4L249.9 323.1L247.3 322.7C244.9 322.4 234.9 319.1 218.8 313.2C214.6 311.8 201.6 307.2 189.8 303.1C177.9 298.9 164.4 294.2 159.8 292.5C155.1 290.8 146.8 287.8 141.2 286C135.8 284.1 127.7 281.3 123.2 279.8C110.9 275.4 109 275.2 108.3 278.4C108.1 279.8 106.6 281.6 103.8 283.9C100.9 286.3 101.2 286.4 134 297.7C154.8 304.9 175.7 312.3 191.5 318C200.7 321.4 212.3 325.5 217.2 327.2C222.2 329 229.3 331.5 233 332.9C241 335.8 244.5 336.9 247.5 337.4L249.8 337.8L250.1 336C250.3 335 250.5 332.8 250.5 330.9ZM323.1 323.2C327.4 322.2 330.9 320.5 331.9 319.1C333.7 316.5 334.6 310.7 334.5 300.9C334.5 295.9 334.8 285.1 335.2 277C335.6 268.9 336.1 256.5 336.2 249.4C336.5 239.4 336.7 235.6 337.5 232.4C338 230.1 338.5 227.1 338.7 225.8C339.1 222.7 339.7 220.7 341.6 216.4C342.4 214.5 343 212.8 343 212.5C343 212.3 342 210.3 340.8 208.2L338.6 204.2L332.9 202.4C323.3 199.2 322.6 199 317.9 198.5C315.4 198.2 313.3 198 313.2 198.1C313.2 198.2 313.4 202.3 313.6 207.3C314.1 215.5 314 217.1 313.1 224C312 231.7 310.8 235.7 309 237.3C308 238.1 308.1 238.2 310.4 239.5C311.7 240.3 313.5 241.7 314.4 242.7C316 244.5 316 244.6 316 249.8C316 256.6 314.6 274.1 313.4 281.9C312.7 286.7 311.2 288.2 309.2 286.2C308.6 285.5 308.5 284.8 308.6 283.3C310.2 271.2 311.5 255.6 311.5 249.9C311.5 246.1 311.5 246 309.8 244.7C308.8 243.9 306.9 242.8 305.5 242.2C301.9 240.6 301.8 240.7 300.7 252.8C300.4 255.6 300.5 256.6 301.1 257.5C301.8 258.4 301.9 260.1 301.7 268.9C301.4 277.4 301.5 279.9 302.2 283C302.7 285.1 303.3 288 303.6 289.5C303.8 290.9 304.4 292.6 304.7 293.2C305.8 295 306.1 298.3 305.2 299.2C304 300.4 303.1 300.2 301.4 298.4C300.1 296.9 299.9 296.8 299.3 297.5C298.3 298.9 296.1 300.1 295.1 299.8C294.7 299.6 293.6 298.3 292.8 296.9C290.9 293.8 279.8 282.5 276.8 280.8C275.7 280.1 273.9 279.4 272.9 279.2L271 278.9L271 296.2C271 315.5 270.6 313.6 274.8 314.3C275.9 314.5 279.9 315.7 283.8 317C287.7 318.3 293.2 319.9 296.1 320.5C298.9 321.1 301.6 321.8 302 322C302.4 322.2 304.2 322.6 306 323C314.5 324.5 317.5 324.6 323.1 323.2ZM250.3 314.5C250.5 312.2 250.5 308.1 250.3 305.2L249.9 300.1L246.1 299.2C238.2 297.5 234.4 294.3 229.4 285.1C228.9 284.2 227.1 282.8 224.1 281.1C221.1 279.4 219.1 277.8 218.1 276.5C216.2 273.9 213.3 271.9 210.9 271.6C209.3 271.4 208.8 271.6 207 273.2C205.9 274.2 204.4 275.1 203.7 275.3C203 275.5 197.3 275.4 191.1 275C184.8 274.7 173.2 274.5 165.2 274.6C148.9 274.8 148.3 274.7 140.8 271C135.5 268.4 132.4 265.6 127.9 259.5C126 256.8 123.9 254.4 123.4 254.3C122.9 254.1 122.1 253.9 121.6 253.7C120.8 253.5 120.1 254.7 117.1 260.6C115.2 264.5 113.4 268.7 113.3 269.9C112.9 271.8 113 272 113.9 272C114.5 272 119.2 273.5 124.3 275.3C129.5 277.1 136.3 279.4 139.5 280.5C142.7 281.5 151 284.5 158 287C171.6 291.9 195.8 300.4 208.5 304.8C212.8 306.2 222.7 309.7 230.5 312.5C242.9 317 246.6 318.1 249.3 318.4C249.7 318.5 250 317 250.3 314.5ZM304.8 310.2C301.9 309.5 298 307.8 297.8 307C297 304.6 299.3 303.4 302.6 304.7C305.4 305.9 307.9 305.8 310.8 304.5C313.4 303.4 314.8 303.5 315.3 305C315.9 307.1 314.2 308.6 309.8 309.8C307.2 310.5 306.5 310.5 304.8 310.2ZM349.1 301.8C353.2 300.8 355.7 298.6 358.1 293.8C358.8 292.4 360 290.4 360.6 289.4C361.5 288.2 362 286.6 362.2 284.4C362.4 282.7 363.2 278.5 364 275.2C365.4 269.2 366.4 262.6 367.5 252.2C368 246.9 369.1 212 368.7 211.5C368.6 211.4 364.7 211.2 360.1 211C348.4 210.6 348.1 210.8 344.5 221.5C344 223 343.4 225.4 343.2 226.8C343 228.1 342.5 231.1 342 233.3C341.2 236.7 340.9 241.1 340.5 256.3C340.2 266.7 339.8 278.9 339.5 283.2C339 292.6 338.9 300.6 339.3 301.7C339.7 302.7 345 302.8 349.1 301.8ZM250.1 289.8C250.3 287 250.7 273.5 251 259.9C251.3 246.2 251.7 232.9 252 230.4C252.8 223 255.2 218.9 261.4 214.2L264.6 211.7L264.5 207C264.5 204.4 264.3 202.2 264.2 202.1C263.7 201.5 253.5 203.2 250.1 204.3C248 205 245.6 205.8 244.8 206C243.9 206.2 240.9 207.3 238 208.4C235.1 209.6 232.5 210.5 232.2 210.5C232 210.5 230.9 210.7 229.9 211C228.4 211.4 227.8 212 227.1 213.6C226.5 214.8 223.7 218.3 220.9 221.3C214.4 228.2 211.3 232.8 210.3 236.7C209.3 240.4 209.3 242 210.2 243.2C210.8 243.9 210.9 246.2 210.6 255.5L210.4 267L211.6 267C212.8 267 216.4 268.5 217.8 269.6C218.3 270 219.8 271.5 221.2 272.9C222.6 274.4 224.8 276.2 226 276.9C232.1 280.3 232.7 280.9 234.2 283.9C237.3 290.5 243.4 295.2 248.5 294.8C249.7 294.8 249.8 294.6 250.1 289.8ZM299.3 294C299.6 292.9 299.5 292.3 297.9 285.2C297 281.3 296.9 279.3 297.1 270.8C297.2 261.4 297.2 261 296.3 261.3C295.8 261.5 291.6 261.2 287 260.7C281.5 260.2 277.3 260 274.8 260.2L271 260.6L271 267.3L271 274L272.9 274.5C273.9 274.8 275.2 275 275.8 275C276.4 275 278.2 276 279.8 277.2C283 279.5 291.9 288.1 295.6 292.4C298 295.2 298.8 295.5 299.3 294ZM322.3 291.7C321.4 290.8 321.3 290.2 321.9 288.2C322.7 285.7 324.4 277 325.6 269.8C326.6 263.6 326.7 261.2 326.7 249.5C326.6 241.7 326.3 235.2 326 233.8C324.9 229 324.8 225.3 325.7 224.3C327.4 222.6 329.5 224 329.5 226.7C329.5 227.7 329.9 229.8 330.3 231.6C331 234.1 331.1 237.7 331.2 249.2C331.2 262.2 331.1 264.5 330.1 271C329 278 327.5 285.3 326.5 289.1C325.6 292.2 323.9 293.3 322.3 291.7ZM99.6 281.1C100 280.6 100.9 279.8 101.8 279.4C102.8 278.8 103.6 277.8 104.4 275.9C105.1 274.2 106 273 106.9 272.4C108.1 271.8 108.5 271.2 108.7 269C109 266.8 114.8 253.9 117.1 250.2C117.5 249.7 118 245.9 118.3 241.2C119 230.4 119.4 229.3 122.5 227.7C124.5 226.7 125.7 226.5 129 226.5C131.7 226.5 133.6 226.8 134.6 227.3C135.4 227.7 136.1 228 136.2 227.9C136.3 227.8 136.8 226.9 137.4 225.9C138.5 224.2 141.2 222 142.4 222C143.2 222 144.5 223.4 144.5 224.3C144.5 224.6 143.6 226 142.5 227.2C140.1 230.1 139.5 232 140.7 232.7C141.2 233 142.3 233.8 143 234.4C143.9 235.1 145.1 235.5 146.4 235.5C148.3 235.5 148.5 235.4 150 232.7C150.9 231.2 152.2 229.7 153 229.2C155.1 228.1 159.8 228.3 165.1 229.8C181.9 234.3 186.1 235.1 186.7 234.1C186.8 233.9 186.8 233.1 186.7 232.2C186.5 231 185.9 230.4 183.1 229C179.6 227.1 178.2 225.6 178.7 224.1C179.3 222.2 180.7 222.4 186.3 225.2C191.2 227.7 192.1 228 194.9 228C198.1 228 200 229 200 230.7C200 232.4 198.6 232.9 195.3 232.6C192.6 232.4 191.8 232.5 191 233.3C190.4 233.8 190.1 234.5 190.3 235.1C191.1 237.6 188.9 239 184.3 239C182.1 239 174.5 237.2 163.5 234.1C162 233.7 159.5 233.3 158 233.1L155.2 232.9L153.9 235.3C152.7 237.5 152.7 237.8 153.3 238.8C155.4 241.9 156.3 252.1 154.7 253.7C152.7 255.8 151 254 151 249.7C151 245.9 150.2 242.1 149.1 240.9C148.2 239.8 145.1 239.7 144 240.8C143.3 241.4 143.2 242.2 143.4 245.9C143.7 250.8 142.6 255.7 141.2 256.2C138.8 257.1 137.6 255 138.5 251.5C138.9 250 139 247.7 138.8 244.6C138.5 240.8 138.5 239.8 139.2 238.8C139.9 237.7 139.9 237.6 138.7 237.3C137.9 237.1 137.1 236.2 136.4 234.9C135.7 233.4 134.8 232.5 133.5 231.9C131.3 230.8 126.1 230.7 124.8 231.6C123.6 232.5 123.1 235.1 122.7 242.8L122.4 249.3L124.7 249.9C127.3 250.6 127.1 250.4 131.7 256.8C134.9 261.1 139.2 265.3 142 266.7C142.7 267.1 145.2 268.1 147.5 268.8L151.8 270.2L167 270.1C175.4 270 186.7 270.2 192.2 270.5L202.1 271.1L204 269.2L206 267.3L205.9 258C205.9 252.9 206.1 248.1 206.3 247.4C206.5 246.5 206.3 245.7 205.5 244.6C204.4 243.2 204.4 243.1 205.2 238.7C206.5 231.3 210 225.6 220 215C221.6 213.2 223.1 211.4 223.3 210.9C223.8 209.2 222.6 208.2 219.2 207.3C217.3 206.8 215.1 206.2 214.2 206C213.4 205.7 212.1 205.5 211.4 205.5C209.6 205.5 203 202 199.9 199.4C195.8 196 194.1 194 192.3 190.5C189.6 185.3 187.1 183.2 181.8 181.5C180.7 181.2 178.8 180.4 177.7 179.7C174.8 178 167.3 175.6 163.8 175.2C161.2 174.9 161 174.9 161 175.9C161 176.6 163.1 179.4 166.5 183.2C169.5 186.6 172.8 190.7 173.8 192.3C174.8 193.9 176.3 195.9 177 196.8C178.4 198.3 179.3 199.6 181 202.3C182.4 204.4 184.6 205.4 186.2 204.5C187.3 203.9 187.3 203.8 186.7 203.1C186.3 202.8 186 201.7 186 200.8C186 200 185.5 198.4 184.9 197.4C184.3 196.4 183.1 194.5 182.3 193.3C180.8 190.8 180.9 189.3 182.5 188.7C184.1 188.2 185.3 189.3 188 193.6C190.1 197 190.5 198.1 190.5 200.1C190.5 201.5 190.2 202.7 189.7 203.2C189.3 203.6 189.2 204 189.5 204C189.7 204 190.1 204.6 190.3 205.3C190.5 206.2 191.3 206.9 193.2 207.7C195.9 208.9 196.7 210 196.2 211.5C195.8 212.9 194.5 213.1 191.8 212.1C190.4 211.6 187.9 210.7 186.2 210.2C184.6 209.8 182.7 209.2 182.1 208.9C180.6 208.4 179.7 208.8 179.3 210.3C178.5 213.5 172.6 213.8 165.8 210.9C158.3 207.6 154.4 204.8 150 199.3C148.6 197.5 147 196 146.3 195.8C145.1 195.5 142.8 195.9 138 197.2C133.2 198.4 131.2 198.6 130.3 197.7C128.5 195.9 130.2 193.8 133.8 193.4C135.1 193.2 137.4 192.7 138.8 192.2C142 191.1 147.7 191 149.8 192.1C150.6 192.5 152.6 194.6 154.2 196.7C157.6 201 161.1 203.6 166.7 206.2C173.2 209.2 176.1 209.1 176.8 205.9C177 204.7 176.8 204.1 175.4 202.4C174.4 201.2 172.1 198.1 170.3 195.5C168.4 192.9 165.4 189.1 163.5 187C157.3 179.9 157.2 179.8 156.2 176C155.5 173.3 154.9 172.1 153.8 171.1C151.9 169.4 150.2 166.8 149.8 164.7C149.4 163.1 148.4 162.5 144.5 161.8C143.8 161.7 142.8 161.4 142.2 161.3C141.5 161 140.6 161.4 139.3 162.5C138.2 163.3 136.8 164 136.2 164C134.9 164 133 162.4 133 161.3C133 160.4 134.4 159 135.2 159C135.6 159 136.9 158.4 138.2 157.7C139.9 156.7 141 156.5 142.1 156.7C146.1 157.3 148.3 157.8 148.8 158.1C149.6 158.6 150.7 152.4 150.6 148.2C150.6 146.3 150.3 143.6 149.9 142.2C148.4 135.5 143.5 130.5 137.4 129.5C133.7 128.8 124.6 129.1 120.8 129.9C111.5 132.1 104.5 139.6 103.5 148.5C103 153.1 104.5 164 107 173.9C108.1 178.3 109 182.5 109 183.3C109 184.3 109.2 184.5 109.9 184.3C110.4 184.2 111.8 183.8 113 183.5C115.3 183 119.8 180.9 120.8 179.8C121.2 179.4 121.3 178.5 121 176.8C120.5 173.8 120.7 172.7 122.1 169.2C127.4 156.3 127.7 154.4 125 149.8C123.3 146.8 123.3 145.3 125.1 144.7C127.4 144 130.5 148.3 131.3 153.2C131.5 154.5 132.1 156.1 132.6 156.6C133.1 157.1 133.5 157.8 133.5 158.2C133.5 159.2 132.1 160.5 131 160.5C130.1 160.5 129.5 161.4 129.5 163C129.5 163.5 128.6 165.9 127.5 168.2C124.4 174.9 124.9 177.3 128.8 175.2C130.9 174.1 139.5 171 140.6 171C141.6 171 143 172.3 143 173.2C143 174.4 142 175 137.8 176.5C135.4 177.4 132.7 178.5 131.8 179C131 179.5 129.4 180.1 128.4 180.3C127.1 180.5 126.1 181.1 125.5 182C124 184.2 117.9 187.2 113.1 188.3C109.1 189.1 109 189.2 107.8 191.3C107.1 192.4 106 193.7 105.3 194.2C104 195 101.7 198 100 201.1C97.9 205 96.5 212.1 96.2 220.6C96 229.6 95.4 231.7 91.8 239.2C90.5 241.7 89.1 245.1 88.5 246.7C87.8 248.6 87 249.7 86.2 250.1C85.3 250.5 85 251.1 85 252.3C85 254 83.9 255.5 82.7 255.5C81.7 255.5 80.5 254.1 80.5 252.8C80.5 251.7 80.3 251.6 75.2 251.3C69.3 250.9 65.4 250.2 63.4 249.2C61.9 248.4 60.5 245.9 58.3 240.2C56.6 236 55.8 235.2 52.5 234.7C50.4 234.5 49.4 234.6 46.8 235.6C45.1 236.3 42 237.6 39.8 238.5C37.5 239.4 35.6 240.4 35.4 240.7C34.7 241.7 35 244.7 35.9 247.8C36.5 249.4 37.1 251.7 37.4 252.8C37.7 253.8 38.4 255.5 39 256.3C40 258 41.9 258.7 50.2 260.8C57.8 262.6 63.3 265.8 73.9 274.3C78 277.7 84.3 280.4 89.7 281.2C96.5 282.2 98.8 282.2 99.6 281.1ZM88.8 265.7C87.6 264.6 87.8 263.8 89.7 261.4C90.7 260.2 92.4 257.7 93.6 255.9C96.1 251.7 98.6 249.5 103.7 246.9C107.7 244.9 109.2 244.8 109.8 246.5C110.3 248.1 109.1 249.5 105.9 251C102.1 252.9 100 254.8 97.3 259C94.6 263 91.4 266.5 90.4 266.5C89.9 266.5 89.2 266.1 88.8 265.7ZM164.3 258.7C163.9 258.3 163.5 257.3 163.5 256.6C163.5 255.9 163 254.1 162.4 252.7C161.2 249.8 161.4 247.7 162.9 247.3C164.6 246.8 165.3 247.5 166.7 250.8C168.7 255.6 168.2 259.5 165.8 259.5C165.4 259.5 164.7 259.1 164.3 258.7ZM295.2 255.9C295.5 255.3 296.1 252.4 296.5 249.5C297 244.9 297 244.2 296.3 243.7C295.9 243.4 292.5 242.2 288.9 241C281.7 238.7 277.9 237 276.1 235.4C275.1 234.4 274.9 234.4 273.3 235.1L271.7 235.9L271.3 240.5C271.1 243.1 271 247.6 271 250.5L271 255.9L276.1 255.7C279 255.5 283.8 255.7 287.2 256.2C290.6 256.6 293.5 256.9 293.9 256.9C294.2 257 294.8 256.5 295.2 255.9ZM297 236.7L294.9 234.4L295.3 228.1C296.1 217.2 295.7 212.4 293.9 207.3C292.7 204.2 288.5 198.8 284.9 195.9C282.9 194.3 280.9 192.6 280.4 192.2C279.3 191.3 279.3 190.3 280.3 189.3C281.8 187.8 282.8 188.2 288.2 192.3C292 195.3 292.9 196.3 296.1 201.8C299.9 208.1 300.9 214.2 300 225.5L299.4 232.7L301.2 234.4L303 236.2L304.8 234.5C307.2 232.2 307.3 231.7 308.5 223.1C309.5 216.4 309.5 214.9 309 206.6C308.5 197.8 308.4 197.3 306.9 194.1C305.1 190.3 302.5 182.2 302.1 179.3L301.9 177.4L299.3 177.8C296.4 178.2 294.3 178.9 286.8 182.5C282.3 184.6 281.4 185.2 280.9 186.5C280.4 188 279.2 188.7 277.9 188.2C276.9 187.8 273.3 192.2 271 196.8C269.2 200.3 269 201 269 204.6L269 208.5L273.1 208.5C279 208.5 281.9 209.6 283.3 212.4C283.9 213.6 284.6 215.8 284.7 217.4C285.2 221.5 284.4 224.3 282 226.6C280.9 227.6 279.7 229 279.3 229.9C278.1 232.3 278.3 232.5 290.8 236.8C294.9 238.2 298.4 239.3 298.6 239.1C298.9 239 298.1 237.9 297 236.7ZM143 214.7C140.1 214.1 136 212.3 135.8 211.5C134.9 208.9 137.2 208 141.4 209.3C144.4 210.3 148.2 210.4 153.3 209.8C155.8 209.4 156.4 209.5 157.2 210.2C158.9 212 157.9 213.5 154.7 214.1C151.6 214.7 144.7 215 143 214.7ZM122.8 208.4C122.1 207.8 120.5 205.8 119.4 204C117.7 201.6 116.9 200.7 115.6 200.4C113.8 199.9 112.8 198.5 113.2 197C113.7 195.7 114.6 195.5 117.2 195.9C119.7 196.4 120.4 197.1 124.4 203C127.2 207.1 127.4 207.6 126.2 208.7C125.1 209.8 124.3 209.7 122.8 208.4ZM361 206.5C371.2 207 372.8 206.9 375.9 205.9C377.3 205.4 377.6 204.9 378.2 202.8C378.6 201.4 379.1 199.3 379.2 198.2C379.4 197.2 379.7 195.5 379.8 194.7C380 193.1 380 193.1 376 191.5C373.7 190.6 370.7 188.8 368.9 187.4C365.2 184.5 363.4 183.5 359 182C355.2 180.7 347.1 176.9 344.2 175C343.1 174.3 340.9 172.8 339.3 171.7C335.5 169.2 333.8 167.5 333 165.6C332.5 164.2 332.1 164 329.6 163.5C328 163.2 325.5 162.5 324 161.9C321.9 161 320.2 160.8 317.2 160.8C313.3 160.8 313 160.8 311.6 162.2C309.7 164 306.3 170.8 305.9 173.5C305.6 176.1 309.8 190.5 311.4 192.4C312.1 193.2 313.4 193.5 318.1 194C321.3 194.3 324.9 194.8 326.1 195.3C327.3 195.7 331.3 197 334.9 198.2C338.6 199.5 341.7 200.5 341.7 200.6C341.8 200.7 342.8 202.5 344 204.6L346 208.4L348.4 207.3C350.7 206.1 350.8 206.1 361 206.5ZM383.3 187.5C383.8 186.9 385 186 385.9 185.4C387.5 184.4 388.7 184.3 397.2 183.9C402.5 183.8 406.8 183.6 406.9 183.5C406.9 183.5 407.3 182.7 407.7 181.7C408.8 179.3 408.7 173.1 407.7 169.3C407 166.7 406.3 165.8 403.9 163.5C399.4 159 397 158.4 382.8 158C376.4 157.8 370.7 157.5 370 157.3C369.3 157.1 366.8 156 364.5 155C354.1 150.3 351.6 149.5 346.9 149.5C343.1 149.5 342.4 149.6 341.3 150.6C339.7 152.2 337.6 157.3 337.2 160.8C336.9 163.6 337 163.8 338.3 165.1C340 166.7 349.5 173 350.2 173C350.4 173 351.4 173.5 352.4 174.1C354.4 175.4 360.7 178 361.7 178C363 178 368.5 181.1 371.4 183.4C374.5 186 379.2 188.4 381.3 188.5C381.9 188.5 382.8 188 383.3 187.5Z"/></svg>
