<svg xmlns="http://www.w3.org/2000/svg" viewBox="0 0 512 512"><path fill="#fff" fill-rule="evenodd" d="M220.8 381.2C219 379.4 220.2 377.8 224.9 376.3C230.9 374.4 242 371.6 249.6 370.2C251.7 369.8 255 369.2 256.9 368.7C258.7 368.3 261.4 367.7 262.8 367.5C264.1 367.3 271.3 366 278.8 364.8C286.2 363.5 295.7 361.9 300 361.2C304.3 360.6 309.3 359.7 311.2 359.2C313.2 358.8 316.3 358.1 318.2 357.8C320.2 357.4 322.1 356.9 322.6 356.7C324.8 355.9 327 357.7 326.2 359.7C325.7 361 314.8 363.6 301 365.8C287.7 367.8 268 371.2 258 373.2C254.8 373.9 249.8 374.9 246.8 375.5C243.7 376.1 240.2 376.9 239 377.3C237.8 377.7 235.2 378.3 233.2 378.7C231.3 379.2 228.1 380.1 226.1 380.8C221.7 382.2 221.8 382.2 220.8 381.2ZM256.5 360.9C254.7 360.7 252.1 359.9 250.7 359.2C249.2 358.6 247.9 358 247.6 358C247.1 358 240.8 353.6 239.2 352.2C237.5 350.6 233.2 349.3 226.8 348.6C225.1 348.4 223.5 348.1 223.1 347.8C222.8 347.6 219.8 347.1 216.5 346.7C210.9 346.1 210.1 345.9 206.6 343.9C204.5 342.7 201.8 341.4 200.8 341C198.4 340.1 190.5 335 190.5 334.4C190.5 334.2 190.3 334 190 334C189 334 183.5 330.4 182.9 329.4C182.3 328.2 182.8 326.6 183.9 326.3C185 325.9 188.4 327.3 189.5 328.4C190 328.9 190.9 329.6 191.5 330.1C192.2 330.6 193.7 331.7 194.9 332.6C196.2 333.5 197.5 334.5 198 334.8C198.5 335.1 199.2 335.5 199.6 335.8C199.9 336.1 201 336.6 202 336.8C203 337 205.6 338.1 207.9 339.4C211.7 341.4 212.6 341.7 217.8 342.3C220.9 342.7 223.8 343.1 224.1 343.3C224.5 343.6 226.1 343.9 227.8 344.1C235.7 345 240.1 346.4 242.8 348.9C245.5 351.6 249.6 354 251.1 354C251.9 354 252.9 354.4 253.4 355C254.5 356.2 261.8 357.2 264.6 356.5C267 356 269.6 353.3 270.8 350.1C271.6 347.9 271.6 347.8 270.3 345.2C269.6 343.7 269 341.9 269 341.3C269 340.3 268.5 339.8 266.7 339C264.8 338.2 264.3 337.6 263.2 335.2C261.8 332.1 260.4 331.2 256 330.7C253.9 330.4 253.3 330.5 251.9 331.6C251 332.3 248.9 333.5 247.3 334.4C244.1 336.2 242.3 336.2 241.7 334.5C241.5 333.6 241.3 333.6 240.7 334.2C239.7 335.2 239 335.2 236.9 334.3C236 333.9 234.3 333.3 233.2 333C232.2 332.7 230 331.8 228.5 331.2C227 330.5 225 329.6 224 329.2C222.3 328.4 213.7 322.4 212.8 321.2C212.2 320.6 202.8 314.1 199.6 312.1C197.5 310.9 196 309.2 196 308.2C196 307.9 196.4 307.2 196.8 306.8C197.5 306 197.5 305.9 196.9 305.1C196.4 304.6 195.8 303.2 195.5 302C194.5 298 192.5 292.9 190.2 288.1C188.9 285.5 188 283.1 188.2 282.8C188.3 282.4 187.7 282.2 186.3 282.3C183.6 282.4 182.7 282.1 182.3 281.2C181.9 280.1 183.4 275.6 184.4 275.3C185.5 274.8 186.9 275.4 187.3 276.6C187.5 277.1 188 278 188.6 278.6C189.1 279.1 189.5 280 189.4 280.5C189.2 281.2 189.4 281.3 190.1 281.1C190.7 281 191.2 281.4 191.9 282.5C192.4 283.4 193.4 284.8 194.1 285.6C195.1 286.8 195.4 287.4 195.2 288.5C195 289.6 195.2 290.4 196.2 291.6C196.9 292.6 197.5 293.7 197.5 294.2C197.5 294.6 197.8 295.9 198.2 297.1C199.6 301.6 200.2 305.2 199.6 305.4C198.9 305.6 202.8 309.6 206.5 312.3C212.5 316.6 213.6 317.2 214 316.5C214.5 315.7 216.3 316.3 216.7 317.4C216.9 317.8 216.8 318.4 216.5 318.7C216 319.2 217.7 321.5 218.6 321.5C218.9 321.5 219.8 322 220.7 322.7C221.5 323.3 223 324.1 224 324.5C225 324.9 226 325.3 226.2 325.6C226.5 325.8 227.1 326 227.5 326C228 326 229.9 326.7 231.7 327.5C233.5 328.3 235.3 329 235.7 329C237.1 329 241 331.2 241.3 332.1C241.5 332.9 241.7 332.9 242.9 331.7C243.6 331 244.8 330.3 245.5 330.2C246.2 330 247.2 329.4 247.8 328.8C248.4 328.2 249.4 327.4 250.1 326.9C250.8 326.3 251.5 325 251.8 323.4C252.6 320.2 256.2 313.1 259.5 308.2C264.9 300.3 266 298 266 294.7C266 292.6 265.8 292 265.1 291.8C264.5 291.6 263.7 290.5 263.2 289.1C261.6 284.8 259.9 281.8 257.6 279.2C254.5 275.8 250.7 272.8 248.4 272C247.4 271.7 246.5 271.1 246.3 270.7C246.1 270.2 245.7 270 245 270.3C243.6 270.7 240.6 269.6 240.3 268.5C239.9 267.5 240.4 266 241.1 266C241.3 266 241.5 265.7 241.5 265.2C241.5 264.8 241.9 264.1 242.5 263.6C243.1 263.2 243.5 262.5 243.5 262.2C243.5 261.8 244 260.9 244.6 260.2C246.9 257.4 249.5 252.5 248.9 252.2C248.6 252 248.2 252.1 248.1 252.4C248 252.7 246.1 254.2 243.9 255.8C239.9 258.6 238.5 258.9 237.8 257.2C237.1 255.5 244.4 249.6 246.4 250.2C247.1 250.5 247.5 250.3 247.7 249.6C248.1 248.5 250.3 247.5 252.3 247.5C253.1 247.5 253.8 246.9 254.7 245.3C255.4 244 256.3 243 256.5 243C257.5 243 257 241.5 255.4 239.9C252.6 237 251.4 236.4 248.9 236.8C247.2 237 246.5 236.9 245.8 236.3C242.7 233.1 249.3 230.6 254.3 233C256.7 234.2 259 236.6 259 238C259 238.6 259.3 238.8 259.9 238.7C261.2 238.3 262.6 239.8 262.2 241.2C262 241.8 261.7 242.3 261.4 242.4C261.2 242.5 261 242.9 261 243.4C261 245 257 250.9 255.5 251.5C254.7 251.8 254 252.6 253.8 253.2C253.4 254.6 248.4 262.4 247 263.8C245.6 265.2 245.8 267.8 247.2 267.7C248.3 267.6 251.8 269.2 255.1 271.4C256.3 272.2 257.8 273 258.4 273.2C259 273.4 259.5 273.9 259.5 274.4C259.5 274.8 260.3 276 261.4 277C263.5 279 265.4 282.1 266.7 285.6C267.7 288.3 268 288.4 270 287.2C272.2 285.9 276.2 276.5 278.8 266.5C280.2 261 285.3 252.6 288 251.2C288.8 250.8 290.1 250.5 291 250.5C291.8 250.5 292.9 250.1 293.4 249.6C295.1 247.7 299.2 245.5 301.9 245C303.5 244.7 305.5 243.9 306.3 243.2C307.2 242.5 308.2 242 308.5 242C310.1 242 318 235.2 318 233.8C318 233.4 317.8 233 317.5 233C317.2 233 317 233.2 317 233.5C317 233.8 316.2 234.3 315.2 234.7C314.2 235.1 312.8 236 312 236.6C309.4 238.8 302.1 242 299.6 242C298.7 242 298 241.1 298 240C298 239.4 302.7 237 303.7 237C304.1 237 304.7 236.6 305 236.2C305.4 235.8 306.8 234.9 308.2 234.2C309.6 233.5 312 232.1 313.6 231.1C315.6 229.9 316.8 229.5 317.6 229.7C321.7 230.7 321.5 230.7 321.5 229.1C321.5 226.7 327.1 220 329.8 219C331.4 218.5 332 217.9 332.4 216.8C333.2 214.6 335.6 212.2 338.2 211.2C340 210.4 340.5 209.9 341 208.5C341.7 205.8 341.6 204.8 340.5 203.9C339.9 203.4 339.5 202.7 339.5 202.3C339.5 201.5 340.8 200 341.5 200C341.7 200 342.1 199.6 342.2 199C342.7 197.7 344 197.3 345.8 198C348 198.8 348.6 200.3 347.4 201.6C347 202 346.4 203.8 346.1 205.8C345.7 207.7 345.3 209.6 345.2 210.1C344.8 211.5 348.1 211.3 350.5 209.8C353.4 207.9 354 206.8 354 202.8C354 200 353 188.6 352.8 188.1C352.7 188.1 351.9 188.2 351 188.5C348.9 189.1 347.7 188.8 347.3 187.5C346.8 186 347.5 185.1 350.1 184.2C353.6 182.9 354.2 181.5 353.5 176C353 172 352.2 169.9 350 166.8C349.5 165.9 349 164.7 349 164.1C349 163.3 348.7 163 348 163C347.4 163 346.5 162.8 346 162.5C345.1 162 345 162.1 345 163.4C345 165 343.9 166.5 342.8 166.5C341.8 166.5 340.5 165.1 340.5 164C340.5 162.7 339.2 162.7 338.5 164C337.7 165.5 337.9 172.5 338.7 172.8C339.9 173.3 340 174.5 339.3 176.8C338.8 178 338.5 179.8 338.5 180.6C338.5 182.7 336.8 186.3 335.1 188.1C334 189.3 333.9 189.6 334.5 191C335 192.2 335.4 192.5 336.1 192.2C336.7 192 337.4 192.3 338 192.8C338.6 193.3 339.3 193.5 339.8 193.3C340.7 192.9 343 194.7 343 195.8C343 196.7 341.6 198 340.6 198C340.1 198 339.2 197.5 338.6 197C338 196.4 337.1 196 336.5 196C336 196 335.3 195.6 334.9 195.1C334 193.9 332 194 330.6 195.4C330.1 195.9 328.8 196.7 327.8 197C326.2 197.6 325.9 198.1 325 200.7C324.3 202.7 323.4 204.2 322.5 204.9C321.2 205.9 317.4 207.2 312.4 208.2C311.4 208.4 310.8 209 310.2 210.4C309.7 211.8 308.6 212.8 306.1 214.4C304.2 215.6 302.1 217.1 301.4 217.7C300.8 218.3 299.7 219.1 299 219.6C298.3 220.1 296.1 221.7 294 223.3C290.4 226 282.3 230.2 279.6 230.8C276.9 231.4 272.1 234 271.7 235C271.6 235.6 271 236.2 270.4 236.5C269.9 236.8 269.2 237.7 268.9 238.5C267.9 241.4 265.5 241 264.3 237.8C263.3 235.1 263.6 234.1 266 233.5C267.5 233.1 267.9 232.7 268.2 231.5C268.4 230.3 268.8 229.9 270.4 229.5C271.5 229.2 273 228.5 273.8 227.9C274.5 227.3 275.9 226.7 276.7 226.7C277.6 226.6 280.1 225.8 282.2 224.8C286.1 223.1 289.5 220.8 297.1 215C299.1 213.4 301.8 211.6 303.1 210.8C306.2 209 307 207.7 305.3 207.3C304 207 303.3 205.6 303.8 204.3C304.2 203.2 306.3 202.7 308.2 203.4C310.4 204.2 310.5 204.2 311.3 202.2C312.3 199.8 311.8 197.6 309.5 194.8C307.3 192.2 307.1 191.5 308.3 190.3C309.3 189.3 309.9 189.3 311.8 190.4C314.1 191.8 316.2 196.2 316.2 199.6C316.2 201.2 316.5 202.5 316.8 202.5C318.1 202.5 320.3 200.5 320.9 198.8C321.4 197.2 321.3 196.7 320.3 195.1C319.4 193.5 319.3 192.5 319.3 187.8C319.3 184.6 319.7 180.8 320.1 178.8C321 174.9 320.7 171.5 319.1 167.5C316.7 161.4 314 158 311.6 158C308.5 158 309.3 154.5 312.5 153.7C315.5 153.1 318.4 155.5 321.2 161C325 168.4 326 173.7 324.7 179.5C323.6 184.7 323.3 189 324 191.4C324.4 193.1 324.7 193.4 325.6 193.1C326.1 193 326.8 192.2 327.1 191.4C327.4 190.7 328 189.9 328.5 189.7C329 189.6 329.6 188.8 329.8 187.9C329.9 187.1 330.7 185.7 331.5 184.8C334.2 181.7 334.2 181.7 333.7 170.2C333.5 165 333.6 163.9 334.4 161.9C335.3 159.8 335.7 159.5 338.3 158.5C340.6 157.6 341.8 157.5 344 157.7C348.2 158.2 351.4 159.4 351.8 160.7C352 161.3 352.3 161.9 352.5 162C352.7 162.1 353.8 163.8 354.9 165.7C357.3 169.6 358.1 173.1 358 178.4C358 180.5 357.9 184.5 357.9 187.2C357.9 190 358 195.4 358.2 199.3C358.8 209.2 358.1 210.8 352 214.2C349.6 215.5 348.2 215.9 347.2 215.8C346.4 215.7 344.5 215.4 342.9 215.3C340.2 215 339.9 215.1 338.3 216.5C336.5 218.1 336 219.4 337.1 219.7C341.1 220.9 345.1 221.9 355.8 224.3C368.5 227.1 377.7 229.6 378.7 230.5C379 230.7 380.3 231.1 381.4 231.3C382.6 231.5 383.9 231.9 384.2 232.3C385.1 233.2 388.8 232.6 391 231.2C394.2 229.2 394.8 228.1 395.9 222.1C397 216.7 397 216.3 396.2 215.4C395.7 214.9 395.2 213.4 395 212.1C394.4 208.3 393.5 203.6 392.4 198.3C391.5 193.9 390.8 191.5 388.3 184.8C387.9 183.7 387.4 181.3 387.2 179.4C386.9 176.3 386.9 176.1 388.4 174.4C390.2 172.3 390.3 172.4 385.5 170C381.4 167.9 380.3 166.6 375.3 157.9C370.3 149 368.9 147 363.6 140.8C358 134.3 357.9 134.2 348 134.9C343.7 135.2 337.7 135.6 334.5 135.8C331.3 135.9 324.7 136.4 319.8 136.8C314.8 137.1 306.2 137.7 300.8 138C295.2 138.4 290.6 138.8 290.4 139C290.2 139.1 290.6 139.9 291.3 140.7L292.7 142.1L297.5 141.8C300.1 141.6 308.7 141.3 316.6 141C324.5 140.7 333.2 140.3 335.9 140C346 138.9 351.4 138.5 352.2 138.8C353.1 139.2 353.6 140.6 353.2 141.7C353 142.1 352.1 142.7 351.1 142.9C347.6 143.8 330.8 145.1 317.2 145.5C309.8 145.8 301.5 146.1 298.7 146.3C292.3 146.7 290.2 146.3 288.4 144.4C287.7 143.6 286.8 143.1 286.5 143.2C285.6 143.8 286 145.4 287.7 148C290.9 152.8 298.3 168.9 299.2 173.2C299.4 174 300.3 175.3 301.2 176.1L302.8 177.6L303 172.4C303.3 167 304.1 164.5 305.9 163.5C306.6 163.2 306.8 162.6 306.6 161.4C306.5 160.2 306.7 159.4 307.2 158.8C308.9 157.2 310.7 158.2 311.2 161.3C311.4 162.4 312.1 163.7 312.8 164.3C313.5 164.9 314 165.8 314 166.2C314 167.4 312.5 168.6 311.3 168.3C310.7 168.1 309.8 167.9 309.2 167.7C308.4 167.5 308.1 167.7 307.8 168.6C307.3 170.7 307.5 172.3 308.4 173.1C309.2 173.7 309.3 174.4 309.2 176.8C309.1 178.4 309 180.4 309 181.1C309 183.5 306.8 184.8 305.3 183.2C304.6 182.6 304.5 182.6 303.9 183.6C302.9 185.7 301.6 186 300.2 184.7C299.7 184.1 299.5 183.4 299.7 182.4C299.9 181.2 299.7 180.9 298.5 180.3C297.1 179.5 294.5 175 294.5 173.3C294.5 171.4 284.4 150 283.5 150C282.7 150 281.4 145.2 281.8 143.7C282.1 142.5 282 142.4 280.9 142.7C279.3 143.2 275.8 147 273.1 151.2C271.6 153.6 270.5 156.3 269.2 160.6C267.7 166 267.5 167.2 267.5 172.7C267.5 177 267.8 179.9 268.5 182.8C269.5 186.9 272.9 195 273.5 195C274 195 277.8 200 279.2 202.3C280.1 203.7 280.4 203.9 281.7 203.7C285.9 202.9 293.4 197.1 294.7 193.8C295.2 192.6 295.9 191.3 296.3 191C296.7 190.6 297 190 297 189.5C297 188.4 298.3 187 299.3 187C300.1 187 302.5 189.3 302.5 190.2C302.5 190.6 301.6 192 300.5 193.3C299.4 194.6 298.5 196.2 298.5 196.7C298.5 199.1 288.2 206.9 283.7 207.9C282.4 208.2 280.9 209 279.9 210.1C278.3 211.6 274 214.3 264.5 219.6L260.8 221.8L260.6 224.5C260.5 228.1 260.2 229.3 259.2 230.2C257.3 232.1 255.3 230.4 255.8 227.2L256.1 225L254.2 225.3C253.1 225.5 251.3 226 250.2 226.5C248.2 227.5 243.1 232.1 241.7 234.3C241 235.4 241 235.5 241.7 236.3C242.1 236.7 242.5 237.4 242.5 237.8C242.5 238.9 240.6 240.5 239.5 240.5C238.9 240.5 237.8 240.9 237.1 241.5C235.6 242.7 234.8 242.8 233.8 241.7C232.6 240.5 232.9 239.2 234.8 237.4C235.7 236.6 236.5 235.4 236.5 234.8C236.5 231.9 242.6 225.4 247.9 222.6C249.5 221.8 251.9 221 253.2 220.8C254.6 220.6 255.9 220.2 256.1 219.8C256.7 218.8 260.5 216.3 264.6 214.2C269.7 211.6 276.5 207.1 276.5 206.3C276.5 206 276 205.1 275.4 204.4C269.2 197.6 266.1 192 264 183.8C261.5 173.3 263.2 159.3 268.2 150.3C270.4 146.4 275.2 140.6 277.3 139.4C278.2 138.9 280.4 138.1 282.4 137.6C284.3 137.1 286.2 136.4 286.6 135.9C288.2 134.4 290.4 134.1 304 133.3C311.6 132.8 318.3 132.4 319 132.2C319.7 132.1 324.4 131.8 329.5 131.5C334.6 131.2 342.7 130.7 347.5 130.4C358.7 129.7 359.9 130 364.7 134.9C370.6 141 373.5 145.1 379.2 155.4C381.1 158.9 383.3 162.4 384.1 163.3C385.3 164.7 393.4 169.5 394.4 169.5C395.4 169.5 399.9 164.9 400.1 163.6C401.4 157 405.9 147.2 410.5 141C413.3 137.2 419.2 131.4 421.5 130.2C422.4 129.8 423.5 129.6 424 129.8C424.6 129.9 425 129.8 425 129.6C425 127.8 428.8 126.8 431.1 128C431.8 128.4 432.7 128.3 434.8 127.5C436.4 126.9 438.7 126.5 440.3 126.5C443.4 126.5 455 128.3 457.1 129.1C459.2 129.9 459.5 132.5 457.7 133.2C457.2 133.4 453.6 132.9 449.5 132.3C440.6 130.7 439.3 130.7 435.9 132C433.5 132.9 433.1 133.4 431.7 135.9C430.9 137.6 429.4 139.4 428.2 140.2C422.4 144.6 416.6 155.4 414.8 165.3C413.2 174.2 412.9 178.5 413.5 183.3C414.9 194.7 418.7 205.4 423.3 210.5C424.1 211.5 425.1 213.4 425.5 214.7C426.4 218 429.1 219.7 435.9 221.3C442 222.7 447.1 222.1 454 219.3C455.8 218.5 457.7 218.1 458.3 218.2C459.5 218.5 460.2 219.9 459.7 221.1C459.4 222 453.4 224.7 449.4 225.8C443.1 227.4 433.7 226.3 427.3 223.3C425.6 222.4 423.8 222 422.2 222C419.8 222 419.6 222.1 418.9 223.8C418.4 224.7 417.8 225.5 417.6 225.5C416.6 225.5 409.2 231.7 400.5 239.8C395.4 244.4 390.5 248.8 389.5 249.6C387.7 250.9 381.4 256.6 376.2 261.5C374.6 263.1 372.7 264.5 372.1 264.7C371.5 264.9 370.7 265.6 370.5 266.3C370.2 267 369.7 267.5 369.2 267.5C368.4 267.5 363.2 271.3 362 272.8C361.6 273.3 359.9 274.8 358.2 276.2C356.6 277.5 352.2 281.6 348.5 285.2C344.8 288.8 340.1 293.1 338.2 294.8C336.2 296.4 333.5 298.8 332.2 299.9C328.6 303.1 322.2 308.4 318.5 311.3C316.7 312.8 314.4 314.7 313.2 315.7C312.1 316.6 309.2 319.2 306.7 321.3C304.2 323.5 300 327.1 297.5 329.2C294.9 331.4 289.6 336.2 285.7 339.9C281.8 343.5 278 346.6 277.3 346.8C275.8 347.2 275.7 348 276.8 349.7C277.9 351.4 277.3 353 275.5 353.3C274.7 353.5 273.9 354 273.7 354.5C273.6 355 272.5 356.4 271.3 357.6C267.9 361.2 264.1 362 256.5 360.9ZM278.3 354.8C276.5 352.9 277.5 351.6 281.5 350.8C283.3 350.4 286.1 349.6 287.8 349.1C289.4 348.5 292.6 347.8 294.8 347.5C296.9 347.2 300 346.6 301.5 346.2C303 345.9 306.6 345.2 309.5 344.8C317 343.7 322.5 342.5 324.4 341.7C326.5 340.8 327.7 340.8 328.7 341.8C331.7 344.8 326.7 346.9 310.5 349.3C307.6 349.7 304 350.4 302.5 350.7C301 351.1 297.9 351.7 295.8 352C293.6 352.3 290.1 353.1 288 353.8C283 355.5 279.5 355.9 278.3 354.8ZM254.4 352.3C253.2 351.1 253.9 349.4 256.3 347.6C257.9 346.3 258.8 346 259.7 346.2C261.8 346.7 262 350 259.9 350C259.4 350 259 350.3 259 350.7C259 352.3 255.5 353.5 254.4 352.3ZM279.3 339.6C281 338 284.1 335.3 286.3 333.5C295.2 326 298.4 323.3 311.1 311.8C318.5 305.2 325.1 299.4 325.9 299C326.6 298.5 328 297.4 329 296.5C330 295.6 334 292 338 288.5C342 285.1 349.8 278.3 355.3 273.5C360.8 268.7 366.5 263.7 368 262.5C370.7 260.2 372.8 258.4 375 256.3C377.4 254 399.9 234.7 403.4 231.8C405.3 230.2 407.5 228.2 408.2 227.3C408.9 226.3 410.9 224.5 412.5 223.2C414.4 221.8 415.5 220.6 415.5 219.9C415.5 218.5 413.6 216.8 410.9 215.8L408.6 214.9L405.9 216.2C404.5 216.9 402.9 217.5 402.5 217.5C401.6 217.5 401.2 218.8 399.5 227.8C399 230.2 398.5 231.1 396.9 232.6C394.3 235.1 390.9 236.8 387.5 237.2C386 237.4 384.4 237.8 383.9 238.1C382.6 238.7 381.3 238.2 380.6 236.7C379.8 235.1 378.8 235.2 378 237C377.7 237.8 376.7 239 375.8 239.7C374.9 240.4 370.6 244 366.2 247.8C361.8 251.5 356.6 255.7 354.6 257.1C352.6 258.4 351 259.8 351 260.1C351 260.8 343.9 267.5 339.1 271.4C337.5 272.7 334.7 275.2 332.8 277.1C330.8 278.9 326.4 282.8 323 285.7C319.6 288.7 315.2 292.4 313.3 294C311.4 295.6 309.1 297.3 308.2 297.7C307.3 298.2 306.3 299 306 299.5C305.7 300.1 304.1 301.3 302.5 302.4C300.9 303.4 296.9 306.7 293.7 309.8C279.7 322.9 273.7 327.9 269 330.2L266.5 331.5L267.2 333.1C268.1 335.2 269.5 335.4 271.4 333.7C272.2 332.9 273.7 331.6 274.8 330.8C275.8 329.9 278.1 327.9 280 326.2C281.8 324.6 284.7 322 286.5 320.5C292.1 316 302.5 306.9 307 302.8C309.4 300.6 314.1 296.4 317.5 293.5C320.9 290.6 325.5 286.6 327.7 284.5C329.9 282.4 333.9 278.8 336.5 276.5C339.1 274.2 344.5 269.2 348.5 265.5C352.5 261.8 357 257.7 358.5 256.5C365.3 251 372.5 244.9 372.5 244.5C372.5 244.2 373.8 243 375.5 241.8C378.4 239.6 379.6 239.3 380.2 240.8C380.5 241.5 378.2 246 377.5 246C376.7 246 372.6 249 371.2 250.7C368.1 254.3 367.5 254.8 364.7 256.9C363 258 361.4 259.5 361.1 260.1C360.7 260.8 359.9 261.6 359.3 262C358.6 262.4 355.6 265 352.6 267.8C349.6 270.6 346.4 273.2 345.6 273.5C344.7 273.9 344 274.6 344 275.1C344 275.6 341.2 278.2 337.4 281.2C330.9 286.3 327.3 289.5 324.2 293C323.4 294 321.5 295.6 320 296.6C318.5 297.7 316.9 299.2 316.3 300C315.7 300.8 313.5 302.8 311.5 304.5C309.4 306.2 306.4 308.7 304.8 310.2C303.2 311.6 301.3 313.1 300.5 313.5C299.7 313.9 299 314.5 299 315C299 315.8 295 319.5 288 325.3C285.6 327.2 282.9 329.7 282 330.7C281.1 331.7 279.3 333.1 277.9 333.8C276.6 334.5 275.5 335.2 275.5 335.5C275.5 335.7 275 336.6 274.3 337.3C273.3 338.6 273.2 339 273.6 340.9C274 342.8 274.2 343 275.2 342.7C275.8 342.5 277.6 341.1 279.3 339.6ZM264.8 327.2C269.8 325.1 281.6 315.3 324.7 277.7C329.1 273.9 334.6 269.2 336.8 267.4C338.9 265.6 341.5 263.3 342.5 262.2C343.4 261.2 346.1 258.8 348.5 256.9C350.8 254.9 354.1 252 355.8 250.4C357.4 248.9 359.9 246.7 361.3 245.7C366 242.2 374.5 234.8 374.5 234.2C374.5 233.5 367.7 231.6 353.8 228.5C347.4 227.1 340.1 225.3 337.6 224.4C335 223.6 332.4 223 331.8 223.2C331.2 223.3 329.5 225.1 328 227.1C326.5 229.1 324.8 231.2 324.3 231.8C323.7 232.4 322.9 233.4 322.4 234.1C319.5 237.9 317.3 240.2 314.1 242.9C309.6 246.7 306.9 248.3 303.4 249.2C300.9 249.9 295.5 252.7 295.1 253.6C295 253.8 294 254.2 292.8 254.5C290.2 255.2 289 256.3 286.3 260.7C284.8 263.2 283.8 265.6 283 268.8C281.6 274.6 279.2 281 277.7 283.1C277 284 276.5 285 276.5 285.3C276.5 285.6 276.1 286.2 275.7 286.5C275.3 286.9 274.6 287.9 274.3 288.8C273.9 289.7 272.9 290.8 272.1 291.2C270.7 291.9 270.6 292.1 270.4 295.9C270.1 300.2 269.4 302 266.5 305.5C263.8 308.6 257 321.4 256.2 324.5C256 325.8 256.1 325.9 258.6 326.4C260.1 326.8 261.6 327.2 262 327.5C262.9 328.1 262.6 328.1 264.8 327.2ZM176.4 324.4C174.7 323.1 169.5 316.4 169.5 315.5C169.5 314.4 170.8 313 171.8 313C173.1 313 180 321 180 322.5C180 323.6 178.7 325 177.8 325C177.5 325 176.8 324.7 176.4 324.4ZM199.4 324.8C199.3 324.6 196.5 324.3 193.3 324C185.2 323.4 181.3 321.4 182.2 318.5C182.7 317 184.2 316.9 186.4 318C187.8 318.8 190 319.2 194.2 319.5C200.9 320.1 203 320.8 203 322.8C203 324.2 200.3 325.6 199.4 324.8ZM216.8 315.2C215.7 314.1 215.8 313 217.2 311C219 308.7 220.2 304.5 219.8 301.9C219.1 296.2 218.2 292.8 216.9 291.1C216.4 290.4 216 289.7 216 289.4C216 289.2 215.2 288.1 214.1 287C213.1 286 211.3 284.1 210.2 282.9C209.1 281.7 207.8 280.4 207.3 280.1C206.6 279.6 206.5 279 206.7 277.6C207 276.1 206.8 275.2 205.7 273.3C205 272 203.9 270.7 203.2 270.4C202.6 270.1 201.9 269.3 201.8 268.7C201.6 268.1 200.9 266.9 200.2 266.2C199.6 265.5 198.5 263.3 198 261.4C197.1 258.4 196.7 257.8 194.8 256.5C192.3 254.8 187.8 252.8 184.6 252C183.5 251.7 182.4 251.3 182.2 251C182.1 250.7 181.2 250.5 180.2 250.5C179.3 250.5 177.3 250 175.9 249.3C168.8 246.1 168.2 246 164.6 247.3C162.3 248.1 159.4 247.7 157.1 246.2C155.8 245.3 154 242 154 240.3C154 237.1 152.2 235 150.6 236.6C149.9 237.3 145 238.5 138.2 239.7C136.3 240.1 136.1 240 135.7 239C135 236.7 139.6 234.3 145.7 233.6C147.1 233.5 148.5 233.1 148.9 232.7C149.2 232.3 150.4 231.8 151.5 231.5C153.1 231.1 153.5 230.6 154.3 228.9C154.7 227.7 155.2 225.4 155.2 223.8C155.3 220.5 156.5 219.2 158.3 220.4C160.3 221.7 160.4 224.6 158.7 230.1C157.5 233.9 157.4 234.4 158 237C159.4 243.2 160 243.6 165.5 242.3C168.8 241.5 172 241.8 172.8 243C172.9 243.3 173.4 243.5 173.9 243.5C174.4 243.5 175.7 244 176.8 244.5C177.9 245.1 179.8 245.8 181 246C189.9 247.6 199.9 254.1 201.9 259.5C203.4 263.4 204.8 265.8 206.6 267.7C207.6 268.7 208.8 270 209.2 270.6C209.9 271.5 210 271.4 211.9 267.9C213 265.9 214.2 263.9 214.6 263.4C215.1 263 215.5 262.1 215.7 261.6C215.9 261 217 260.1 218.2 259.5C220.2 258.6 220.5 258.2 221 256C221.6 253.5 224.5 249.2 229.1 244C230.9 241.9 231.6 241.5 232.4 241.7C234.4 242.4 234.2 243.8 231.7 247.2C228.8 251.1 225.9 255.8 225.4 257.4C225.1 258.4 225.4 258.6 227.8 259.3C230.5 260.1 233.9 262.1 234.6 263.3C234.9 263.7 235.5 264 236 264C237.8 264 239.1 267.4 237.7 268.7C237.3 269.1 236.8 269.5 236.6 269.5C236.4 269.5 234.8 268.5 233.1 267.3C231.4 266 228.4 264.5 226.5 263.8C223.1 262.7 222.7 262.6 220.7 263.3C219.1 263.9 218.5 264.4 218.3 265.4C217.7 267.9 213.5 274.9 212.5 275.3C210.9 275.8 211.3 276.9 214 280C218.5 284.9 219 285.5 219 286.1C219 286.4 219.5 287 220.2 287.5C222.3 289.2 224.2 296.2 224.1 302.2C224.1 307.1 222.6 312.1 220.5 314.4C218.9 316.2 218 316.4 216.8 315.2ZM161.9 314C160.7 313.7 154 308.1 128.7 286.5C124 282.5 118.2 277.6 115.7 275.5C99.6 262.2 95.6 258.7 90.1 253.3C82 245.3 79.9 242.7 80.2 241.1C80.4 240.3 80.4 240 80 240.2C78.9 240.9 77.5 239.9 76.3 237.4C74.1 232.9 74.9 229.3 78.3 227.9C83.6 225.8 84.9 225.6 88.2 226.8C90.7 227.6 96.6 231.5 97.6 233C98.1 233.6 98.7 233.8 99.6 233.6C100.7 233.4 101 233.1 101 232C101 229.6 103 220.8 104 219.2C107.8 213 108.8 211.6 111.3 209.5C118.5 203.4 123.4 202.5 136.5 205C140.1 205.6 150.3 211.7 155.4 216.3C156.5 217.3 157 218 156.7 218.6C156.1 220.3 154.6 220.1 151.9 218.1C148 215.1 136.8 209.7 133 209C126.8 207.7 118.5 208.5 117.5 210.6C117.2 211.1 116.6 211.5 116.1 211.5C115.6 211.5 114.6 212.1 113.9 212.9C112.9 214 109.2 219.4 107.8 221.9C107.2 223 105.5 231.5 105.5 233.6C105.5 237.2 111.7 244.3 116 245.8C116.7 246 118.9 246.2 121 246.2C126.5 246.4 130 247.6 133.2 250.5C137.3 254.3 140.5 261.3 140.5 266.5C140.5 267.4 141.2 269.4 142 271C143 272.9 143.4 274.4 143.2 275C143 275.8 143.1 275.9 143.7 275.7C144.2 275.5 145.2 276 146.3 276.9C148.8 279.2 149.5 279 149 276.4C148.8 275.2 148.4 273.9 148.2 273.4C148.1 273 148.3 271.9 148.7 271.1C149.1 270.2 149.5 269 149.5 268.3C149.5 265.7 151.6 262.2 155.7 258.1C160.1 253.6 161.4 252.7 165.2 251.7C167.1 251.2 168.3 251.2 170.2 251.6C175.1 252.6 177.5 254.5 176.7 256.7C176.2 258 174.4 258.1 172 257C168.6 255.5 166.7 255.7 162.2 258C158 260.2 156.5 261.4 156.3 262.6C156.3 263 156 263.7 155.7 264.1C154.6 265.5 153.1 272.7 153.4 275C153.6 276.7 153.2 278.9 152.3 281.1C152 281.7 152.1 282 152.6 282C153 282 153.8 282.6 154.3 283.3C154.8 284.1 156.3 285.9 157.8 287.3C159.6 289.2 160.6 290.6 161 292.1C161.3 293.3 162 295 162.6 295.9C163.4 297.3 163.5 297.8 163.1 298.8C162.6 299.9 162.8 300.4 165 303.5C166.4 305.4 167.8 307.7 168.1 308.6C168.4 309.5 169 310.5 169.3 310.9C170.2 311.8 170.2 312.8 169.2 313.7C168.4 314.6 164.3 314.7 161.9 314ZM224.2 313.7C224 313.3 224.4 311.3 225 309.3C227.4 301.3 227.3 302.3 226.3 298.1C225.7 295.2 225.7 295 226.6 294.7C227.8 294.3 227.6 294.2 228.9 297.2C230.1 299.9 230.3 301.5 229.5 301.5C229.2 301.5 229.3 301.9 229.7 302.3C230.7 303.3 230.8 303.2 228.9 307.8C226.4 313.8 224.9 315.6 224.2 313.7ZM176.9 310.8C176.5 310.4 175.2 308.1 174 305.6C172.5 302.7 171.5 301.1 170.9 301C169.6 301 169.3 299.1 170.3 298C171.4 296.7 171.8 296.7 174.1 298.3C175.4 299.2 176.6 300.8 178.2 304.1C180.7 309 180.9 309.6 179.7 310.7C178.7 311.7 177.8 311.7 176.9 310.8ZM164 309.6C164 309.4 163.5 308.4 162.8 307.5C161.3 305.3 160 302.2 160.4 301.8C160.5 301.6 160.2 301.1 159.6 300.5C159.1 300 158 297.5 157.2 295.1C155.7 290.1 156.7 291.3 144.4 280C142.7 278.5 142.1 277.6 142.3 277C142.5 276.3 142.3 276.1 141.6 276.3C140.4 276.6 139.9 276.1 138.1 273.2C136.8 271.2 136.1 270.5 134.4 270C131.4 269.1 118.9 256.8 117.4 253.2C116.5 250.9 116.1 250.5 114.3 250.1C111.5 249.3 107 245.6 104.2 241.9C102.6 239.7 101.4 238.6 100.1 238.1C99.2 237.8 98.1 237.1 97.8 236.7C97.4 236.2 96.9 236 96.6 236.2C95.8 236.7 94.6 236 91.5 233.3C89.6 231.7 88.4 231 86.8 230.9C84.5 230.6 80 231.8 79.7 232.8C79.5 233.1 79.9 234.4 80.5 235.5C81.1 236.7 81.5 238.1 81.3 238.7C81.1 239.7 81.2 239.8 82.2 239.6C83.5 239.4 85.8 241.5 87.4 244.4C88.4 246.4 92 249.9 99.8 256.6C105.7 261.6 117.9 271.8 122.7 275.7C125.8 278.2 136.4 287.3 141.8 292C143.5 293.5 148.4 297.6 152.8 301C157.1 304.4 161.3 307.8 162 308.6C163.3 309.9 164 310.3 164 309.6ZM190.7 305.8C188.6 303.7 188.5 302.5 190.3 302.5C191 302.5 191.7 302.8 191.8 303.2C192 303.7 192.4 304 192.7 304C193.7 304 195.1 305.8 194.7 306.7C194.2 308 192.5 307.6 190.7 305.8ZM165.1 301.9C164.2 301 164.4 299.2 165.3 298.8C165.7 298.6 166.5 298.7 167 299C167.6 299.3 168 299.4 168 299.1C168 298.9 168.3 299.1 168.5 299.6C169.4 301.1 168.6 302.5 167.1 302.5C166.3 302.5 165.4 302.2 165.1 301.9ZM168.5 291.1C166.7 290.1 164 288.6 162.4 287.8C160.8 287.1 159.4 286 159.3 285.5C158.5 283.2 161 281.7 163.2 283.2C163.9 283.6 164.7 284 165.1 284C165.8 284 172 288 172.9 289C173.6 290 173.7 291.6 172.9 292.4C172.1 293.2 172.1 293.2 168.5 291.1ZM227.9 290.5C226.5 289.1 224.9 287.9 224.3 287.7C223.7 287.6 222.8 286.8 222.2 286C221.7 285.2 221 284.5 220.7 284.5C219.9 284.5 217 281.6 217 280.8C217 280.4 217.3 279.7 217.8 279.3C218.4 278.6 218.8 278.6 220.7 279.3C221.9 279.7 223.8 280.9 224.9 282C226 283.1 227.2 284 227.5 284C227.8 284 228 284.4 228 284.9C228 285.4 228.7 286.3 229.6 287.1C230.5 287.8 231.6 289.1 232.1 289.9C232.9 291.3 232.9 291.5 232.2 292.2C231.1 293.4 230.8 293.2 227.9 290.5ZM199.3 292C198.9 291.4 199.5 290 200.2 290C201.3 290 201.5 291.4 200.5 292C199.9 292.3 199.4 292.3 199.3 292ZM195.9 286.8C195 285.9 195.5 280.1 196.5 279.5C197.7 278.8 198.8 278.9 199.7 279.9C200.4 280.7 200.4 281.2 200 283.3C199.7 284.6 199.3 286 199.1 286.3C198.5 287.3 196.7 287.6 195.9 286.8ZM229.3 284.7C228.3 283.7 228.3 283.7 229.7 282C230.3 281.2 231.8 278.9 232.9 276.9C235.2 272.7 236.5 271.3 237.7 271.8C239 272.3 238.7 273.3 235.9 278.2C232.3 284.7 230.8 286.2 229.3 284.7ZM189.3 273.2C188.9 272.8 188.5 272.1 188.5 271.7C188.5 270.6 192.8 268 195.2 267.7C197.2 267.4 197.4 267.5 197.7 268.5C198.2 269.8 197 271.2 194.5 272.5C191.7 273.9 190.2 274.1 189.3 273.2ZM265 273C264.4 272.6 264.7 271.5 267.4 266.3C270.5 260.2 274.5 254 275.5 254C276.1 254 278 250.9 278 249.9C278 249.4 276.9 248.7 275.5 248C273.4 247.2 272.4 247 270.1 247.3C267.7 247.5 267 247.4 266.3 246.8C264.5 244.9 265.9 243.2 269.7 242.7C274.4 242.2 279 243.7 279.8 246C280.2 247.4 280.6 247.3 282.9 244.8C284.1 243.5 285.4 242.5 285.7 242.5C286.7 242.5 288 243.9 288 245C288 246.1 285.4 249.4 283.6 250.6C282.9 251 282.1 252.1 281.7 252.8C281.1 254.2 278 258 273.7 262.6C272.4 263.9 271.4 265.3 271.3 265.6C271.3 266 270.6 266.9 269.9 267.7C269.1 268.5 268.1 270.1 267.5 271.3C266.3 273.6 266.2 273.8 265 273ZM183.3 272.3C182.9 271.9 182.5 270.7 182.3 269.7C181.8 267.3 179.7 263.1 178.1 261.4C176.8 260 176.9 258.3 178.4 257.8C179.4 257.4 183 260.8 184.8 263.8C186.5 266.7 187.2 270.9 186.1 272.1C185.2 273.2 184.3 273.2 183.3 272.3ZM135.5 263.7C134.5 259.4 130.7 253.2 128.4 252.1C127 251.4 121.9 250.4 121.6 250.8C121.5 250.9 121.7 251.7 122 252.6C122.3 253.7 124.1 255.8 126.3 258C129.8 261.4 135.5 266.1 135.8 265.8C135.9 265.8 135.7 264.8 135.5 263.7ZM147 249.7C145.8 249.1 142.8 248 140.4 247.3C137.3 246.4 136 245.7 135.8 245.1C135.3 243.7 136 242.5 137.3 242.2C138.9 241.8 147.4 244.3 149.8 245.9C152.8 247.9 153.1 248.8 151.7 250.2C150.6 251.3 149.6 251.2 147 249.7ZM129.2 241.9C124.9 241 123.2 240 122 238C120.8 235.8 120.9 233.8 122.3 233.3C123.6 232.8 124.7 233.4 125.6 235C126.5 236.5 129.2 237.6 132.4 237.6C135.1 237.6 136.5 240 134.7 241.7C133.9 242.6 132.3 242.6 129.2 241.9ZM289.8 241.7C288.7 240.6 288.8 239.9 290.3 237.9C290.9 237 292.3 234.6 293.3 232.7C295 229 296.1 228.1 298 228.7C299.8 229.3 299.6 230.7 297 235.6C293.6 241.9 291.6 243.6 289.8 241.7ZM278.5 240.2C277.3 238.6 277.2 237.4 278.3 236.3C279.3 235.3 280.2 235.3 281.2 236.3C282.5 237.6 283.1 239 282.8 240.3C282.3 242 279.9 242 278.5 240.2ZM300.3 229.7C299.9 229.3 299.5 228.7 299.5 228.3C299.5 227.5 305.6 223.1 306.3 223.3C307.9 223.9 307.5 225.3 305.2 227.4C301.8 230.4 301.2 230.7 300.3 229.7ZM266.8 228.7C266.4 228.3 266 227.5 266 226.9C266 224.8 275.1 217 281 214C285.8 211.6 287.6 211.2 288.7 212.3C290.4 214 289.8 214.7 284.4 217.4C280.2 219.4 274.6 223.7 270.7 227.8C269 229.7 268 229.9 266.8 228.7ZM309.8 228.7C308.2 227.2 309.1 225.6 312.7 223.6C314.2 222.7 317.3 220.2 319.6 217.9C325.4 212.1 327.9 210 329 210C330.1 210 331.5 211.3 331.5 212.2C331.5 213 321.5 222.9 318.5 225.2C315.6 227.3 311.8 229.5 311.1 229.5C310.8 229.5 310.2 229.1 309.8 228.7ZM383.6 226.6C382.9 225.9 382.6 224.5 382.3 221C381.4 207.9 379.2 195.3 376.7 188.9C373.6 181 364.2 161.7 360.1 154.8C354.9 146.1 354.4 145.1 354.7 143.7C355 142.5 356.4 141.8 357.6 142.3C359.6 143.1 374.8 172.1 380.1 185C383.6 193.8 385.7 204.2 386.8 219.2C386.9 221.4 387.2 223.8 387.3 224.6C387.6 226 386.5 227.5 385.2 227.5C384.8 227.5 384.1 227.1 383.6 226.6ZM307.8 223.2C307.3 222.7 307 222.1 307.1 221.8C307.6 220.5 318.9 211.5 320.1 211.5C321.2 211.5 321.7 213 320.9 213.8C318.9 215.6 309 224 308.8 224C308.7 224 308.2 223.6 307.8 223.2ZM421.2 216.4C421 215.8 420 214.1 419 212.8C412 203.4 407.5 185.9 409 173.6C410.4 161 412.7 153.5 417.7 145.2C419.7 141.9 421.2 140 423.8 137.8C425.7 136.3 427.5 134.3 427.8 133.6C428.4 132.4 428.3 132.2 427.2 131.9C426.2 131.6 425.3 132.4 420.6 137.2C414.5 143.3 412.7 145.6 409.9 150.8C407.4 155.2 405.4 160.6 404.3 166.2C404.1 167 402.9 168.7 401.5 170L399.1 172.4L400.3 173.6C402.1 175.2 402.8 176.8 403.2 180C404.4 190.1 405.2 194.7 406.7 198.3C407.4 200 408.3 203 408.8 205.1C409.9 210.4 410.1 210.7 412.8 211.6C414.5 212.2 416 213.3 417.5 215C419.9 217.7 421.8 218.4 421.2 216.4ZM403.8 212L405.4 211.1L404.4 206.7C403.9 204.2 402.9 201 402.3 199.5C400.9 196.3 398.5 183.8 398.5 179.6C398.5 178.6 397.9 177.7 396.8 176.5L395 174.8L393.3 176.4C391.7 178 391.7 178.1 392.1 180.8C392.3 182.4 392.9 184.3 393.3 185.1C394.9 188.1 397 196.3 398.3 204.2C399.5 211.5 399.6 211.7 399.8 212.4C400.1 213.3 402 213.1 403.8 212ZM443.8 188.4C441.3 187.9 438.8 187.2 438.2 186.8C434.7 184.5 435.1 172.2 438.8 170.6C442.7 168.8 456.1 168.6 457.8 170.3C458.7 171.3 458.7 172.2 457.7 173.3C456.9 174 456.2 174.1 452.2 173.8C449.4 173.6 446.3 173.7 444.3 174C441 174.6 441 174.6 440.5 176.6C439.9 178.7 440.2 181.5 441.2 182.7C441.9 183.6 449.6 185 453.9 185C457.5 185 459 185.7 459 187.2C459 187.6 458.6 188.3 458.2 188.7C457.1 189.8 449.6 189.7 443.8 188.4Z"/></svg>
