<svg xmlns="http://www.w3.org/2000/svg" viewBox="0 0 512 512"><path fill="#fff" fill-rule="evenodd" d="M333.8 370.7C330.4 370.2 316.1 365.8 294.2 358.4C290.6 357.1 286.7 356 285.4 355.8C283.3 355.5 283.1 355.6 282.8 356.6C282.6 357.3 280.7 359.1 278 361C275.5 362.8 273.1 364.5 272.7 364.9C271.5 366 268.1 367 266.1 366.7C259.8 365.7 252.1 361.3 249.7 357.1C248.5 355 248.3 354.2 248.1 348.4C247.9 343.6 247.7 342 247.2 342C246.1 342 231.1 336.9 212 330C202 326.4 187.3 321.2 179.5 318.4C171.7 315.7 158.7 311.1 150.8 308.3C142.8 305.4 130.2 300.9 122.8 298.3C98.2 289.7 97.7 289.5 97.1 288.2C96.7 287.3 96 287 94.2 286.8C92.8 286.6 91.2 286.2 90.6 286C90 285.7 88.9 285.5 88.3 285.5C85.9 285.5 79.2 283 75.2 280.6C73 279.3 69 276.5 66.4 274.5C61.3 270.5 56.7 267.6 54.2 266.6C53.4 266.3 49.4 265.2 45.3 264.3C41.2 263.3 37.5 262.2 37 261.8C35.7 260.5 32.6 253.7 31.5 249.3C30.4 244.8 30.2 240.2 31.1 238.2C31.9 236.5 35.6 234.6 44.2 231.8C51.4 229.4 54.8 229 56.8 230.1C59.4 231.6 62.2 236.1 64.1 241.5C65.8 246.4 65.9 246.5 75 246.5L82.9 246.5L83.9 243.2C85 240 87.9 234.4 88.6 234.1C89.3 233.8 91 230.1 91 228.9C90.5 218.7 92.1 205.8 94.5 200.7C96.5 196.3 99.6 191.9 101.8 190.2C105.3 187.6 105.7 186.3 104 182.6C102.9 180.2 100.7 169.8 99 159.6C97.4 150 98.1 144.3 101.8 137.8C107.7 126.9 122.3 121.4 137.6 124.3C142.5 125.2 144.8 126.4 148.5 130.1C154.6 136.1 156.9 145.9 154.5 155C152.8 161.1 152.7 162.3 154.1 164C154.7 164.8 155.8 166.3 156.4 167.4C157.4 169 158 169.5 159.6 169.7C161.9 170.1 172.3 173.3 173.7 174.1C175.3 175 178.6 176 182.5 176.8C188 178 193.2 181.8 196 186.9C197.7 190 199.6 192.3 203 195.3C207.6 199.5 210.8 201.4 213.3 201.4C214.4 201.5 216.2 201.8 217.3 202.2C218.4 202.6 220.2 203 221.4 203.2C222.5 203.4 224.7 204.3 226.2 205.2L228.9 206.9L232.4 206C234.3 205.5 237 204.5 238.3 203.9C240.5 202.8 244.3 201.6 252.8 199.2C256.6 198.2 264.9 197.4 268 197.7C269.5 197.9 272 198.5 273.6 199.1C276.7 200.1 278.8 199.9 279.4 198.6C279.7 198.1 280 196.4 280.2 194.8C281 186.9 283.9 179.3 287.9 174.9C289.9 172.7 293.8 170.5 295.8 170.5C296.5 170.5 298.2 170 299.7 169.3C301.1 168.6 306.1 167.2 310.8 166.2C315.4 165.2 321.4 163.8 324 163.1C326.6 162.5 330.1 161.7 331.8 161.4C334.1 161.1 335.3 160.6 336.4 159.5C337.3 158.8 339 157.7 340.4 157.2C344.2 155.7 353.5 156 361.3 157.8C362.1 157.9 362.5 157.7 362.7 156.8C363.2 154.6 366.5 153.5 372.4 153.5C379.5 153.5 381.7 154.1 390.5 158.4C401.3 163.6 405.6 165.4 410 166.3C423.3 169 433.1 175.1 436.5 182.8C440.3 191 436.3 199.5 428.2 200.8C427.1 200.9 424.3 200.7 421.8 200.3C415.2 199.1 414.6 199.2 414.2 201.1C413.3 205.6 411.2 207.7 406.8 209.1C404 210 402.6 210.1 398.7 209.9C396.2 209.7 393.6 209.3 393.1 209C392.5 208.7 390.5 208.5 388.6 208.5L385.1 208.5L383.8 214.1C383.1 217.2 382.2 221.3 381.7 223.2C381.3 225.2 380.5 229 379.9 231.8C374.4 259.7 373.6 262.8 370 271C368.3 274.8 366.2 282 365.9 284.9L365.8 286.6L370.2 287.7C375.6 289.1 388.4 295.2 390.8 297.6C393.5 300.1 395 304.2 395.1 309.1C395.2 312.9 395.1 313.5 393.6 316.3C392.7 318 388.5 323.2 383.8 328.5C374.7 338.8 345 368.5 342.5 369.8C340.8 370.6 336.5 371.1 333.8 370.7ZM350.6 355.8C366.1 340.9 383.9 322.1 388.2 315.9C390.4 312.8 390.5 312.4 390.5 309.2C390.5 304.9 389.3 302.2 386.4 300.1C384 298.4 377.7 295.2 373.5 293.6C370.8 292.6 364 290.8 363.8 291.1C363.7 291.2 363.4 292.3 363 293.5C361 300.5 357 306.2 352.5 308.4C348.5 310.4 346.1 310.7 340.7 310C331.6 308.7 332.5 308.7 332.5 310.4C332.5 312 330.4 318.8 329 321.5C326.9 325.5 323.3 327.8 316.8 329C312.9 329.7 308.2 329.2 302 327.3C298.2 326.1 294.5 325.2 288.1 323.8C286.1 323.3 282.5 322.2 280.1 321.2C268.9 316.6 268.7 316.5 269.6 319.9C269.9 320.8 269.9 322 269.8 322.5C269.6 323 269.6 324.2 269.8 325.2C270.1 326.7 270.3 326.9 271.9 327.2C274.3 327.7 301.3 336.7 305.7 338.6C307.5 339.3 310.2 340.3 311.7 340.7C313.1 341.1 317.6 342.7 321.8 344.3C328.2 346.8 329.7 347.2 332.6 347.2C335.5 347.1 336.1 347 338.6 345.3C340 344.4 344.4 340.2 348.3 336.1C352.1 332.1 359.5 324.3 364.7 318.9C376.2 306.8 379.2 304.6 380.2 307.3C380.5 308.1 379.2 309.7 374 315.2C371.9 317.4 368.8 320.9 367.1 323C360.5 330.7 344 347.4 340.9 349.4C338.5 351 337.3 351.5 334.6 351.7C332.6 351.9 330.2 351.8 328.8 351.5C326.3 351 314.9 346.9 304.8 343C297.1 340.1 273 332.1 270.7 331.7L268.7 331.4L268.3 334.1C268.2 335.5 268 337.6 268 338.6C268 339.7 267.7 341.3 267.3 342.2L266.6 343.8L268.7 344.9C269.8 345.5 271.6 346.1 272.8 346.3C275.6 346.7 282.5 349.5 282.8 350.3C283 350.6 284.4 351.1 286.2 351.3C287.9 351.5 292.1 352.6 295.5 353.8C306.4 357.7 328.6 364.9 331.5 365.5C333 365.7 334.7 366.1 335.2 366.2C339.1 366.9 338.8 367.1 350.6 355.8ZM271.3 359.9C278 355.1 279 354.3 279 353.7C279 353.1 272 350.5 270.3 350.5C268.7 350.5 265 348.5 264.2 347.2C263.5 346.2 263.5 345.7 263.9 344.7C264.3 343.8 264.3 343.5 263.9 343.5C263.1 343.5 263.7 331 264.5 329.4C264.9 328.8 265.2 326.1 265.3 323.2C265.3 320.5 265.5 317.6 265.7 316.8C265.8 315.9 266.2 313.2 266.5 310.8C266.7 308.3 267.6 300.5 268.5 293.5C269.3 286.5 270.2 278.7 270.5 276.2C270.8 273.8 271.5 268.4 272 264.2C272.5 260.1 273.2 254.3 273.5 251.2C274.3 243.6 275.4 236.3 276 234.9C276.2 234.3 276.7 231.4 277 228.5C277.5 223.6 277.7 223 279.9 219.4C281.4 216.8 282.6 215.4 283.4 215.2C284 215 284.7 215 284.8 215.1C285.2 215.5 286.7 213.9 287.5 212.5C287.8 211.9 288.8 211.1 289.7 210.7C292.6 209.5 295.4 207.1 295.7 205.6C296.4 202.5 293.7 198.7 291.1 199.2C286.6 200 283.8 201.1 282.7 202.2C281.5 203.3 278.8 204.5 277.2 204.5C276.8 204.5 276.3 205.3 276 206.3C275.6 207.3 274.6 208.9 273.8 209.9C270.7 213.3 269.1 216.6 267.8 222C266.2 228.8 264.6 239.2 264 245.9C263.5 252.1 261.8 265 260.7 270.5C260.3 272.6 259.8 276.6 259.7 279.5C259.4 286.4 258 299.5 257.4 300.6C257.2 301.1 256.7 304.4 256.5 307.9C255.8 316.4 255.2 321.2 254.7 322.1C254.5 322.4 254.1 326.4 254 330.8C253.8 335.2 253.4 339.3 253.1 339.9C252.4 341.1 252.3 350 253 352.8C253.6 355.3 256.4 357.8 261.2 360.2C266 362.6 267.6 362.5 271.3 359.9ZM249.2 335.2C249.8 331 249.6 323.5 248.9 323.5C248.2 323.5 234.9 318.9 216 312.1C209.5 309.8 199.3 306.2 193.2 304.1C187.2 302.1 177.4 298.6 171.5 296.4C165.6 294.2 155.9 290.8 150 288.7C144.1 286.7 135.3 283.7 130.5 282C125.7 280.3 119.6 278.1 117 277.2C110.4 274.9 108.3 274.9 108.2 277.5C108.1 279.8 105.6 282.9 102.8 284.2C100.3 285.4 100.3 285.4 101.5 285.9C102.2 286.1 108.7 288.4 116 291C123.3 293.6 135.7 298 143.5 300.8C151.3 303.6 166.1 308.9 176.2 312.4C186.4 316 200.5 321 207.5 323.5C230.9 331.9 246.9 337.5 248.1 337.5C248.6 337.5 249 336.9 249.2 335.2ZM316.8 324.3C320.8 323.4 322.8 322.3 324.3 320C325.8 317.8 328 311.8 328 309.9C328 309.2 328.3 307.9 328.7 306.9C329.1 306 329.7 303.6 330 301.5C330.3 299.5 332.1 293.1 334.1 287.3C338.6 273.8 340.6 266.6 345 249.2C352.3 219.5 357 209.5 365.7 204.9C367.6 203.8 368.4 203.7 377.8 203.7C386.7 203.7 387.9 203.6 388.7 202.9C389.8 201.7 390.8 201.8 392 203C393.5 204.5 394.7 205 398.4 205.3C405.1 205.9 409.1 204 409.8 199.8C410 198 409.8 197.2 408.6 194.7C405.9 189.4 400.1 184.8 389.3 179.2C378.9 173.9 376.2 172.5 371.5 169.5C369.2 168.1 366.5 166.4 365.5 165.9C364.5 165.3 363.3 164.3 362.7 163.7C361.5 162.3 356.1 161.1 349 160.7C345.4 160.5 344.4 160.6 342.4 161.5C340.7 162.2 340 162.8 340 163.5C340 164 339.4 165 338.7 165.7L337.3 166.9L338.1 176.8C339.2 189.6 338.8 194.7 336.3 201.8C333.6 209.1 329.2 218 327.2 220C326.1 221.2 325.2 222.8 324.8 224.3C324 227.5 319.1 234.6 316.7 235.9C315.8 236.5 315 237.3 315 237.7C315 238 313 241.4 310.5 245.1C308 249 305.5 253.4 304.8 255.3C304.1 257.1 303.2 258.9 302.8 259.1C302 259.5 302 261.2 302 273.2C302.1 292.1 302 295.2 300.9 295.4C300 295.6 299.5 294.2 299.2 290C299.1 288.5 298.6 284.9 298.2 282C297.9 279.1 297.5 273.1 297.5 268.7L297.5 260.6L296.1 260.4C291.2 259.4 284.8 258.9 281.4 259.2C277.1 259.6 277.5 259.2 276.5 264C275.8 267.4 275.3 275.2 275.7 276.4C276 277.2 276.4 277.5 277 277.3C277.5 277.1 278.4 277.4 279.1 278C279.8 278.5 280.6 279 280.7 279C281.8 279 289.2 286.5 292.6 291C296.6 296.3 297.2 297.6 295.6 298.2C295 298.5 294.1 297.9 292.2 295.7C288.4 291.2 281.1 284.1 278.6 282.4C277.3 281.5 276.1 280.6 275.9 280.3C275.1 279.1 274.5 281.1 273.7 287.5C273.3 291.2 272.5 297.8 272 302.2C270.6 313.3 270.5 312.7 273.4 313.6C274.7 314.1 278.3 315.5 281.4 316.7C284.5 318 289.1 319.5 291.6 320C297 321.1 303.3 322.8 305.3 323.6C306.6 324 310.6 324.8 313 324.9C313.4 324.9 315.1 324.7 316.8 324.3ZM251.4 313.9C251.7 311.1 252 307.5 252 305.9C252 303 252 303 250.5 303C248.9 303 246.5 302.1 246.5 301.4C246.5 301.2 245.3 300.7 243.9 300.3C240.8 299.4 235.4 295.1 233.2 291.8C229.6 286.5 226.5 283.1 223.7 281.5C222.1 280.6 220.5 279.5 220.2 279.1C218.1 276.2 217.2 275.6 214.9 275.9C213.2 276 212.5 275.9 211.8 275.3C210.6 274.1 210.8 273.3 212.6 271.5C213.8 270.3 214.4 270 215.3 270.2C216 270.4 216.5 270.3 216.5 270C216.5 269.3 218 268 218.8 268C219.9 268 221 269.5 221 271.1C221 273 223.6 276.2 226.5 277.9C229.3 279.5 232.7 282.7 234.4 285.2C236.4 288.5 239.5 292 242.2 294.1C245 296.3 245.5 296.1 245.5 292.6C245.5 289.1 246.9 284 248.9 280.2C250.4 277.4 251.1 276.6 252.8 275.8C255.1 274.7 255.6 273.8 256.4 268.5C257.7 261.1 259.5 246.9 259.5 244.7C259.5 241.6 261.6 228.3 263.3 221C264.7 214.8 266.7 210.7 269.8 207.5C270.7 206.5 271.6 205.2 271.8 204.4C272.1 203.1 272 203.1 268.8 202.5C265.2 201.9 258.4 202.5 253.8 203.8C245.6 206 241.4 207.4 238.3 208.8C236.3 209.7 233.7 210.6 232.3 210.8C230.5 211 229.7 211.4 229.1 212.4C228.7 213.2 225.4 216.8 221.8 220.5C210.9 231.9 209.2 235.2 207.2 248.2C206.6 252.7 206.5 255.7 206.7 263.8C207.1 275.3 207 275.7 203.6 275.3C192.6 273.9 173.4 273.8 166.1 275.1C164.2 275.4 160.4 275.5 157 275.4C151.8 275.1 150.7 274.9 145.8 273C138.7 270.3 135.3 268.2 131.7 264.4C128 260.4 122.4 251.9 122.8 250.8C123.6 248.7 126.2 249.9 129.1 253.6C133.7 259.6 137 263.2 139.6 265C141.1 266.1 142.5 267 142.7 267C142.9 267 145.1 267.8 147.6 268.8C152 270.5 152.6 270.6 158.2 270.7C161.6 270.7 167.1 270.4 170.5 270.1C176.6 269.4 188 269.5 198.4 270.3L202.5 270.6L202.2 261.9C201.9 255.1 202 252 202.7 247.4C204.7 233.7 207.9 227.7 219.3 216.2C222.4 213.1 225 210.3 225 210.1C225 208.9 215 205.5 211.3 205.5C210.6 205.5 208.6 204.7 206.6 203.7C202.2 201.5 195 194.2 191 187.9C188.1 183.2 187 182.4 180.8 180.7C179.1 180.3 176.6 179.2 175.2 178.3C172.3 176.4 165.5 174.5 160 174.2C154.4 173.8 154.3 173.8 153 171C152.3 169.6 151.5 168.2 151.1 167.9C149.8 166.8 148.5 163.5 148.5 161.1C148.5 159.8 149 157.5 149.6 156C150.4 153.8 150.7 152.1 150.7 148C150.7 143.4 150.6 142.4 149.4 139.6C147.7 135.7 145 132.3 142.1 130.7C137.8 128.1 130 127.3 122.9 128.7C118.4 129.6 116.1 130.5 112.5 133C104.2 138.7 101.5 146.3 103.5 158.5C105 167.7 107 177.4 108 180.4C108.6 181.9 109 183.6 109 184.1C109 184.7 109.4 185 110.2 185C111.4 185 118.2 181.7 121.9 179.3C128.5 175.1 137.1 172 138 173.5C138.3 173.9 138.4 173.9 138.7 173.3C139.2 172 143.5 172.4 143.5 173.7C143.5 174.6 139.5 175.8 139 175C138.7 174.6 138.6 174.6 138.4 175.1C138.2 175.6 135.9 177 133.2 178.4C130.5 179.7 126.9 181.7 125.3 182.7C121.4 185.3 113.7 188.8 111.4 189.3C109.9 189.5 108.5 190.5 105.3 193.7C99.8 199.1 97.9 202.7 96.5 210.8C95.5 216.9 95.2 224 96 224C96.6 224 98 225.5 98 226.2C98 226.6 97.4 227.5 96.7 228.2C96.1 228.9 95.5 230 95.5 230.5C95.5 231.6 92.5 237.5 91.9 237.5C91.3 237.5 89.6 241.1 87.7 246.4C85.7 252.2 84.2 253.6 82.4 251.8C81.9 251.4 79.4 251.1 73.8 250.8C65.8 250.4 64.1 250.1 62.4 248.2C61.7 247.4 58.4 240.2 56.9 236.4C56.4 235.1 54.7 234 53.1 234C51.8 234 37.7 238.8 36.2 239.7C35.2 240.4 35 240.9 35 242.6C35 247.7 38.6 257.7 40.7 258.5C41.3 258.8 44.5 259.5 47.9 260.2C51.3 260.9 55.4 262.1 57.1 262.9C60.7 264.5 69.4 270.3 72 272.8C75.9 276.4 83.1 280 88.9 281C90.5 281.3 92.8 281.7 94 282C95.6 282.3 96.5 282.2 97.2 281.7C97.8 281.4 99.3 280.8 100.5 280.5C102.8 279.9 104.5 278.4 104.5 276.9C104.5 276.4 105 275.9 105.5 275.7C106.3 275.5 106.5 275.1 106.2 274.5C105.9 273.5 107.6 270.2 108.7 269.4C108.9 269.3 109 268.9 108.8 268.6C108.6 268.3 109.6 265.8 111 263.1C113.9 257.2 118 247.2 118 245.8C118 243.8 119.1 238.5 119.7 237.7C120.1 237.1 120.7 237 121.4 237.2C122.4 237.6 122.5 237.9 122.5 243.4C122.5 247.7 122.3 249.6 121.8 250.3C121.4 250.9 120.3 253.1 119.5 255.3C117.7 259.7 114.5 265.9 112.6 268.4C112 269.3 111.5 270.2 111.7 270.3C111.8 270.5 116 272 121.1 273.7C140.2 280.4 161.9 288 166.5 289.7C175 292.8 189.5 298 200.2 301.8C212.4 306 244.4 317.3 247 318.3C250.7 319.7 250.8 319.6 251.4 313.9ZM299.2 312C297.9 311.1 296.7 310.3 296.6 310.2C296.5 310.1 296.6 309.6 296.7 309C297.1 307.8 298.2 307.7 300.7 308.8C303.2 309.8 305.4 309.7 307.9 308.2C310.5 306.8 310.2 306.8 311.2 307.8C312.2 308.7 311.5 310.3 309.4 312C308.2 312.9 307.1 313.3 304.8 313.4C302.1 313.6 301.5 313.4 299.2 312ZM350.4 304.3C354.1 302.2 356.9 298.2 358.7 292.2C359.1 290.7 359.7 289.1 360 288.4C360.4 287.8 361.1 285.3 361.6 283C362.8 277.2 364.1 272.8 365.7 269.4C368.2 263.9 369.9 257.6 372.2 246.2C375.5 229.7 377.4 221 379.3 213C379.9 210.4 380.3 208.2 380.2 208.1C380 207.8 372.1 208 370.6 208.3C365.9 209.3 361.9 213.2 358.8 219.8C356.7 224.2 351.9 240.1 348.8 252.8C345.3 267.1 341.6 279.6 336.3 294.9C335.6 296.9 334.8 299.9 334.6 301.5L334.2 304.5L336.5 304.8C337.7 305 339.2 305.3 339.8 305.6C340.3 305.8 342.3 305.9 344.3 305.8C347 305.7 348.4 305.3 350.4 304.3ZM253.5 297.6C253.5 297.1 253.9 294.3 254.3 291.2C255.1 285.1 255.2 280 254.6 280C254.1 280 251.6 284.5 250.9 286.6C250.3 288.6 249.5 297.5 249.8 298.1C250 298.3 250.8 298.5 251.8 298.5C253.1 298.5 253.5 298.3 253.5 297.6ZM319.7 292.2C320 290 320.2 289.8 321.5 290.2C322.8 290.7 322.8 291.7 321.5 293C320 294.5 319.3 294.3 319.7 292.2ZM321.1 289.7C320.2 289.3 320.4 287.3 321.7 283.3C322.7 280.1 325.4 271.7 330 256.8C330.9 254 332.4 248.5 333.5 244.6C334.5 240.7 335.5 237.3 335.7 237.2C335.8 237 336.3 237 336.7 237.2C338.6 237.9 336.4 251.9 332.5 264.5C331 269 329.1 275.2 328.2 278.2C326.3 284.3 323.6 289.7 322.5 289.8C322.1 289.9 321.5 289.8 321.1 289.7ZM309.5 278C308.6 277.5 309.1 268.8 310.2 265.5C312.3 258.9 318.4 244.8 324.3 232.9C325.3 230.7 326.7 230.5 326.9 232.5C327.1 234 323.6 244.7 321.4 249.5C316.7 259.6 312.5 272.5 312.5 276.5C312.5 278.2 311 279 309.5 278ZM354.2 270.8C353.8 269.8 354.7 265.2 357.7 253.4C360.1 244.2 361 240.9 363.4 232.8C363.7 231.8 364.1 231.2 364.8 231.2C366.5 231.2 365.7 236.9 362.5 249.8C358 267.5 355.4 274 354.2 270.8ZM211.5 267.1C211.3 266.6 210.7 263.5 210.2 260.3C209.4 255.4 209.4 254.1 209.9 252.1C210.3 250.8 210.8 249.6 211.2 249.4C211.6 249.1 211.6 248.9 211.1 248.6C210.1 247.9 211.4 243.9 212.5 244.1C213.1 244.2 213.2 244.9 213.2 246.9C213.2 248.3 213.4 249.5 213.5 249.5C213.7 249.5 214 253.5 214.2 258.4C214.4 265.1 214.3 267.3 213.9 267.6C212.9 268.2 212.1 268.1 211.5 267.1ZM90.8 263.2C90.4 262.8 90 262.3 90 262.2C90 261.8 94.6 253.8 95.8 252.2C97.1 250.5 100.8 248.2 105.4 246.3C108.2 245.2 108.6 245.2 109.2 245.8C109.7 246.2 110 246.7 110 246.9C110 247.5 108 249.2 106 250.3C102.5 252.2 99.2 255.2 97.8 257.7C96.2 260.5 93.1 264 92.2 264C91.8 264 91.2 263.6 90.8 263.2ZM164.6 258.1C164.4 257.6 163.9 255.6 163.5 253.6C162.9 250.4 162.9 249.9 163.5 249.5C164.7 248.7 165.7 249.2 166.6 251C167.8 253.4 168 257.9 167 258.5C165.9 259.2 165.1 259.1 164.6 258.1ZM295.1 254.5C296.2 253.2 297.2 253.2 298.5 254.6C299.7 255.9 299.5 256 301 252.4C301.6 250.8 303.7 247.1 305.7 244.1C311.1 235.9 311.1 236.1 309.9 234.5C308 231.8 310.1 229.6 313 231.3C313.8 231.8 314.5 232.1 314.6 232C318.2 227.3 320.5 224 320.5 223.2C320.5 222.8 318.4 223.1 313.8 224.3C311.8 224.7 309.7 225.2 309.1 225.3C308.1 225.5 307.3 226.1 305.6 228.2C304.8 229.2 303.8 229.2 302.8 228.3C302.4 227.9 301 227.3 299.8 227C296.1 226.2 292.9 224.3 289.5 221L286.4 218L285.5 219.1C283.5 221.8 282 225 281.7 227.3C281.6 228.6 281.4 230.4 281.2 231.1C281.1 232.1 281.4 232.9 282.3 233.8C282.9 234.5 283.5 235.4 283.5 235.8C283.5 236.8 281.9 238.1 280.9 237.8C279.8 237.5 279.8 237.7 278.8 245.2C278.4 248.3 277.9 251.7 277.7 252.8L277.4 254.9L282.8 254.7C285.8 254.5 289.1 254.6 290.2 254.9C293.3 255.7 294.2 255.6 295.1 254.5ZM152 253C151.7 252.5 151.5 251.6 151.5 251C151.5 249.6 149.9 245 149.4 245C148.8 245 147.5 243.5 147.5 242.8C147.5 242.4 148.2 241.4 149 240.5C149.9 239.7 150.8 238.3 151.1 237.5C151.6 235.9 152.7 235.3 154.1 235.8C155.5 236.2 155.7 238.2 154.7 240.9C154 243 153.9 243.7 154.4 245.7C155.3 249.1 155.2 253.3 154.2 253.7C153 254.2 152.6 254.1 152 253ZM139.6 253.1C139.2 252.8 138.8 251.4 138.7 249.7C138.5 247.7 138.1 246.5 137.4 245.9C136.2 244.7 136.2 243.8 137.5 242.6C138 242.1 138.7 241.1 138.9 240.4C139.5 238.8 139 238.5 136 238.5C134 238.5 133.1 237.5 133.8 235.8C134.2 234.9 133.9 234.9 137.9 234.7C140.3 234.6 141.9 234.2 144.1 233C147.2 231.4 148.7 231.3 149.2 233C149.7 234.4 149.1 235.2 146.5 236.8C144.2 238.1 144 238.5 143.4 241C142.7 244.3 142.8 243.9 143.2 248.1C143.5 251.1 143.5 251.5 142.5 252.5C141.4 253.6 140.6 253.7 139.6 253.1ZM291.7 251.3C290.3 250.2 288.1 248.5 286.9 247.7C285.6 246.8 283.9 245.1 283 244C280.6 240.7 281.2 237.3 283.9 238.2C284.4 238.4 285.3 239.4 286 240.5C286.7 241.7 288.9 243.9 291 245.5C294.8 248.4 297 250.6 297 251.5C297 252.1 295.5 253.5 294.8 253.5C294.5 253.5 293.1 252.5 291.7 251.3ZM176.8 237.8C172.9 237.2 168.3 236 164 234.5C163.3 234.2 161.4 233.8 159.8 233.6C157.4 233.2 156.4 233.3 155.3 233.8C154.2 234.4 153.6 234.5 152.5 234C149.9 232.9 150 230.6 152.7 229.4C155.5 228.2 160.2 228.7 168.7 231.2C176.8 233.6 184.5 235 188.3 235C190.6 235 191.5 235.7 190.4 236.7C189.4 237.7 187 238.2 187 237.4C187 236.9 186.9 236.9 186.5 237.4C185.9 238.4 182 238.5 176.8 237.8ZM120.1 236.2C119.4 235.9 119.3 232.5 120.1 232.5C120.4 232.5 120.5 232 120.3 231.4C120 229.9 120.8 226.5 121.6 225.9C122.7 225.2 123.4 225.4 124.7 226.8C125.8 228.1 125.9 228.1 128.8 227.5C131.7 226.9 138.9 224.9 140.6 224.3C141.5 223.9 143 225.2 143 226.3C143 227.5 138.7 229.8 135.1 230.7C132.3 231.3 127.2 231.9 123.9 232C123.2 232 123 232.4 123 233.9C123 236.2 122 236.9 120.1 236.2ZM190 231.8C187 230.9 182.3 228.6 181.3 227.5C180.4 226.6 180.6 225.2 181.7 224.8C182 224.7 183.3 225 184.5 225.5C186.9 226.4 189.7 227.2 194 228.1C199.4 229.2 200.6 229.6 200.8 230.3C201 230.7 200.8 231.3 200.5 231.8C199.7 232.7 193.3 232.7 190 231.8ZM304.5 222.2C305.3 221.8 306 221.3 306 221C306 220.2 307.5 219 308.5 219C309 219 309.8 219.4 310.2 219.8C311 220.6 311.3 220.5 313.9 219.6C315.5 219 318 218.4 319.5 218.2C321 218 322.9 217.4 323.7 216.9C325.8 215.4 330 206.2 333.2 196.2C334.2 193.2 334.3 185.9 333.5 175.4C332.7 164.6 333.1 165.2 327.8 167C326.1 167.6 321.4 168.7 317.3 169.5C306.8 171.6 303.9 172.5 302.9 173.6C302.2 174.4 301.2 174.7 298.9 174.8C297.3 174.9 295.2 175.3 294.2 175.8C289.9 177.9 286.6 184.3 284.8 194.1C284.5 195.7 284.6 196 285.4 196C285.8 196 286.8 195.6 287.5 195.2C288.2 194.9 289.9 194.5 291.2 194.5C296.5 194.5 300 198.4 300.2 204.3C300.3 208.2 299.1 210.2 295 212.9C293.2 214.1 291.7 215.4 291.6 215.8C291.2 217.5 296.9 221.6 300.8 222.5C302.9 223.1 302.9 223.1 304.5 222.2ZM299.4 220.6C298 220.4 297.1 219 297.7 218C297.9 217.7 298.8 217.5 299.7 217.5C302 217.5 304.1 215.6 305.8 212.2C306.9 210 307.2 208.5 307.4 204.8C307.8 196 305.5 189.2 299.8 182.8C298.1 180.8 297.9 179.8 299.3 179.3C300.5 178.8 307.1 185.5 308.9 188.9C312.2 195.2 312.4 207.7 309.2 214.1C307.2 218.1 302.8 221 299.4 220.6ZM143.8 215.3C138.2 214.3 136.4 213 137.3 210.8C137.7 209.9 139.5 209.8 142 210.5C143 210.8 146 211.1 148.8 211.1C153 211.1 154 211.2 154.2 211.9C155.4 214.8 150.4 216.5 143.8 215.3ZM312 214C311.4 213.6 311.5 212.8 312.4 207.9C313.6 201.8 313.7 201.4 313.2 198.1C313 196.6 313.1 196 313.5 196C314 196 314 195.8 313.4 195.4C313 195 312.3 193.5 312 192C311.1 187.9 308.1 182.6 305.1 179.7C302.4 177 302.1 175.8 304.1 175.2C305.4 174.8 307.3 176.7 310.8 181.8C314.2 186.8 316.7 194.9 314.9 195C314.5 195.1 314.8 195.3 315.4 195.6C316.3 196 316.5 196.6 316.5 198.3C316.5 199.7 316.3 200.5 315.9 200.5C315.4 200.5 315.4 200.6 315.9 201C316.8 201.5 316.3 206.9 314.9 211.4C314 214.4 313.5 214.9 312 214ZM167.2 211.6C165.1 210.8 162 209.5 160.5 208.7C157.2 207 151.2 201.4 148.9 198C147 195.2 146.9 195.1 140.8 196.3C138.6 196.7 135.6 197 134.2 197C132 197 131.5 196.8 131.2 195.9C130.8 194.6 131.4 194 133.7 193.5C134.7 193.2 136.3 192.8 137.4 192.5C147.5 189.8 149.7 190.2 152.9 195.6C154.2 197.6 158.5 201.8 161.7 203.9C164.1 205.6 173.1 209.5 174.4 209.5C176 209.5 177.2 210.7 176.8 211.9C176.5 212.8 176.1 213 173.8 213C172.4 213 169.5 212.4 167.2 211.6ZM188.8 210.8C184.3 209.9 181.9 208.9 180.3 207.4C179.5 206.6 178.7 206 178.5 206C178.3 206 176.8 204 175.2 201.6C173.6 199.2 171.8 196.4 171.1 195.4C170.5 194.4 167.7 190.8 165 187.4C162.3 184.1 160.2 181.1 160.3 180.7C161 179 162.2 179.6 165.9 183.4C169.6 187.3 172.4 190.8 177.7 198.4C181.4 203.5 184.2 205.8 187.9 206.5C191 207.2 194.5 208.7 194.5 209.5C194.5 211.6 193.7 211.8 188.8 210.8ZM121.4 206.6C120.4 205.6 119.2 204 118.8 203C118.4 202 117.4 200.6 116.5 199.9C114.8 198.3 114.8 198.1 115.6 196.3C116.8 193.7 118.7 194.1 120.7 197.4C123 201 126 206.2 126 206.6C126 207.2 124.5 208.5 123.8 208.5C123.5 208.5 122.4 207.7 121.4 206.6ZM186.3 199.4C185.6 198.2 184.5 195.7 183.8 193.9C182.7 190.9 182.6 190.4 183.3 189.8C184.4 188.7 184.8 188.8 186.2 190.6C187.5 192.3 190 198.5 190 200C190 200.8 189.1 201.5 188 201.5C187.7 201.5 187 200.5 186.3 199.4ZM383.9 199.6C381.7 197.8 375 190.9 375 190.3C375 190.2 375.4 189.7 375.8 189.3C376.5 188.6 377 188.9 381.4 193.4C384.1 196.2 386.7 198.6 387.1 198.9C388.1 199.3 387.9 200.7 386.8 201.1C386.5 201.3 385.2 200.6 383.9 199.6ZM429.2 195.7C432.5 194.1 434.3 189 432.8 185.4C431.7 182.8 427.1 178.1 423.8 176.1C420.5 174.1 414 171.8 408.3 170.6C404.4 169.9 396.9 166.7 386.2 161.4C380.9 158.7 377.9 158 372.2 158C368.7 158 367.8 158.2 367 159C366 160 365.7 161 366.4 161C366.7 161 368.1 161.8 369.5 162.8C374.5 166.2 387.1 173.3 394.2 176.6C402 180.3 410.1 187.2 412.7 192.4L414 195L416.6 195.1C418.1 195.1 420.7 195.4 422.5 195.7C427 196.6 427.4 196.6 429.2 195.7ZM369.6 185.6C364.5 180.4 360.3 177.6 346.1 170.3C343.6 168.9 341.3 167.6 341 167.2C340.4 166.6 340.8 165 341.6 165C342.4 165 359.6 173.6 362.5 175.4C366.2 177.8 368.1 179.5 372.1 183.8C375.5 187.4 375.9 188.5 374.1 189.2C373.6 189.4 372.2 188.3 369.6 185.6ZM157 178.5C155.9 177.4 155.7 176 156.7 176C157.8 176 160 178 159.7 178.8C159.3 179.8 158.2 179.7 157 178.5ZM120.6 176.7C120.3 176.5 120 176 120 175.5C120 174.5 122.7 166.9 125 161.5C125.9 159.5 126.7 156.7 126.9 155.3C127.1 153.1 126.9 152.4 125.8 150.8C123.5 147.3 124.6 144.9 127.6 147.1C130.8 149.5 132.1 153.8 131 158.5C130.7 159.9 129.9 161.7 129.3 162.4C128.6 163.1 127.8 165.2 127.3 166.9C126.4 170.6 124.8 173.8 123.1 175.6C121.8 177 121.7 177.1 120.6 176.7ZM135.8 162.7C134.7 161.6 134.8 161 136.4 159.1C137.5 157.7 138.3 157.3 140.1 157.1C142.1 156.9 142.4 157 142.7 157.9C143.2 159.3 142.7 160.1 140.3 161.6C137.3 163.5 136.7 163.7 135.8 162.7Z"/></svg>
