<svg xmlns="http://www.w3.org/2000/svg" viewBox="0 0 512 512"><path fill="#fff" fill-rule="evenodd" d="M209.2 468.6C207.8 468.1 203.4 466 199.5 464.1C195.5 462.1 190.9 460.1 189.3 459.5C185.1 458.1 181.1 455.5 180.1 453.8C178.8 451.3 179.2 446.6 181.4 437.8C183.9 428 184.8 418.4 184.3 407.3C183.8 395.8 182.8 389.6 177.7 366.2C175.3 355.2 176.9 341.4 182 329.8C187.3 317.5 188.5 314.2 188.5 310.8C188.5 307.1 187.1 302.2 184.7 297.5C182.2 292.5 181.6 291.9 178.5 291.7C175.3 291.4 174.3 290.4 175.5 288.5C175.8 288.1 176.6 287.8 177.7 287.9C178.8 288 179.8 287.7 180.3 287.3C181.8 285.8 182.7 286.3 185.7 290C187.8 292.7 190.5 298.5 192 303.5C193.5 308.4 193.3 315 191.4 319.2C182.9 338.5 181.3 344.3 181.3 355.2C181.3 359.5 181.7 363.1 182.2 365.5C186.4 383.7 189 401.3 189 411.6C189 417.2 188.1 430.1 187.5 432.8C187.2 433.9 186.3 437.3 185.5 440.5C183.8 446.9 183.5 450.6 184.6 451.8C185.3 452.7 191.8 456 192.9 456C193.2 456 197.4 457.9 202.2 460.3C209.9 464.1 211.4 464.6 215.3 465.1C222.3 466.1 228.5 465.8 242.1 464.1C248.2 463.3 249.6 461.2 245.7 458.5C244.5 457.7 243.3 457 243.2 457C242.1 457 231.5 449.7 227.8 446.4C221.6 441 214.7 433.3 213.3 430.2C212.6 428.8 211.5 425.4 210.7 422.5C209.4 417.3 209.4 417.2 209.7 403C209.8 391.6 210.1 387.7 210.9 383.5C211.4 380.6 212.3 376.1 212.7 373.5C213.2 370.9 213.9 367.2 214.2 365.2C215.1 361 215.8 356 216.5 348.8C217.9 335.1 218.9 330.7 223.6 317.2C226.5 308.8 226.7 307.9 226.8 303.3C226.9 299.6 227.1 298.3 227.7 297.8C228.8 296.9 229.5 293.7 229.5 288.8C229.5 286.3 229.7 283.9 230 283.5C230.2 283.1 230.1 282 229.7 280.5C228.8 277.8 227.5 272 227.1 269.3L226.8 267.3L223 266.7C217.8 265.8 208.6 265.9 203.5 266.7C195.6 268 186.6 272.5 180.9 277.9C178.8 279.9 176.9 282 176.7 282.5C176.6 283 176 283.6 175.5 283.8C174.8 284 174.5 284.5 174.5 285.5C174.5 287 173.4 288.5 172.3 288.5C171.3 288.5 170 287.1 170 286C170 285.4 169.3 283.9 168.5 282.6C167.7 281.2 166.1 277.4 165 274.2C161.6 263.8 158.2 254 155.5 247.1C154.1 243.4 153 239.8 153 239.1C153 236.5 152.7 236.4 144.1 236.3L136.1 236.2L135.8 239.5C135.6 241.3 135.3 243.7 135 244.8C134.8 245.8 134.2 249.3 133.7 252.5C132.5 261.2 129.6 270 125.1 278.7C121.8 285 120.7 286.7 117.7 289.7C111.8 295.7 107.8 296.9 92.8 296.9C87.5 296.9 82.3 296.7 81 296.5C76.2 295.4 68.3 289.1 64.4 283.3C58.3 274.4 52 256 50.7 243.4L50.4 240.6L44.1 240.3C40.6 240.1 36.9 239.9 35.9 240C34.8 240 33.5 239.8 33 239.5C31.6 238.8 29.5 234.4 29.2 231.6C28.7 227.8 31.2 221.4 33.5 220.6C34.2 220.3 37.9 220 41.7 219.8C45.5 219.6 48.7 219.4 48.8 219.4C48.9 219.3 49.2 216.6 49.5 213.2C50.2 205.3 50.8 201.2 52.3 195.5C56.5 178.6 64.6 165.4 73.9 160.3C77.3 158.5 83.7 157.7 89 158.4C91.5 158.7 93.1 158.7 93.9 158.3C95.5 157.6 104 158.6 107.6 160C111.5 161.4 114.5 163.9 118.3 168.7C125.7 177.9 132.7 197 134.5 212.8C134.8 215.5 135.2 218.5 135.3 219.4L135.5 221L141.6 221L147.6 221L147.2 214.9C147 209.8 147.1 207.7 147.9 202.8C149.2 195.6 152.4 187.3 155.6 182.9C156.8 181.3 156.6 179.2 155 177C152.2 173.1 144.6 158.6 143 154.4C141.4 149.9 140.4 144 140.2 137.8C140.1 134.5 139.7 130.9 139.5 129.8C139.2 128.7 138.7 125.9 138.5 123.6C138 119.5 138.1 119.1 139.2 116.8C141.1 113.1 145.7 109.5 157.8 102.6C161.6 100.5 167.6 96.9 171 94.8C181.1 88.5 189.2 86 201.8 85.1L207.2 84.7L211.2 82.1C216.8 78.5 221.6 76.7 228 76C233.5 75.4 235 75.6 244.9 77.3L250 78.2L254.6 77C261 75.4 272.9 75.1 283.1 76.2C287.2 76.6 293 77 296 77C301.1 77 301.7 76.9 303.4 75.8C304.4 75.1 305.5 74.5 305.8 74.5C306.2 74.5 307.1 72.6 307.8 70.2C311.8 56.9 320 47.3 331 43C338.1 40.2 348.8 41.1 356.8 45.1C362.4 48 366.8 52.1 369.9 57.3C373.7 63.8 375.5 69.8 375.5 76.3C375.5 81.2 374.5 88.4 373.4 92C372.2 95.9 368.3 104.4 366.1 107.9C363 113.1 356.2 121.7 350.8 127.6L346.2 132.4L346.4 135.8C346.9 153.6 346.9 155.4 346 162.2C345.5 166.1 344.8 171.5 344.5 174.2C344.2 177 343.7 180.9 343.5 182.9C342.4 191.2 343.2 208.6 345 216.2C345.5 218.7 346.1 221.3 346.3 221.9C346.5 223 346.6 223 355.5 223C364.4 223 364.5 223 364.7 221.9C364.9 221.3 365.3 218.7 365.8 216.1C366.9 209.2 368.7 203.6 371.6 197.9C377.1 186.9 382.8 180.6 391.1 176.3L395.8 173.9L402.1 173.6C406.6 173.4 408.9 173.5 409.9 174C410.8 174.3 412.3 174.6 413.3 174.5C421 174.3 422.6 174.6 426 176.2C432.6 179.6 436.5 183.3 441.2 190.6C446.3 198.8 449.3 207.4 451 219.3L451.6 223.4L458.6 223.8C465.5 224.1 465.6 224.1 467.1 225.7C469.2 227.7 470 229.9 470 233.2C470 235.1 469.7 236.2 469 237.2C467.1 239.6 465.4 240.1 458.3 240.2C451.8 240.4 451.7 240.4 451.6 241.6C450.3 254.2 444.7 269.2 438.3 277.2C434.6 281.8 429.4 286.4 426.2 287.9C422.7 289.4 417.8 290.3 416.2 289.6C415.4 289.2 414.2 289.2 412.4 289.5C408.3 290.3 398.1 290.3 395.1 289.6C389.4 288.3 382.1 283 377.5 276.8C375.2 273.8 370.7 265.6 369.6 262.5C367.3 256.4 365.4 247.7 365.1 242.9L364.9 238.1L354.3 237.9C346.5 237.8 343.5 237.9 342.8 238.4C342.2 238.7 341.4 239 341 239C340.6 239 339.5 239.7 338.6 240.5C337.5 241.5 336.2 242 334.6 242.3C333.3 242.4 331.7 242.8 331 243.1C328.4 244.1 324.3 244.5 319.9 244C314.8 243.4 314.1 243.2 313.8 242C313.6 241.5 312.9 241 312.2 240.8C311.4 240.6 310.9 240 310.6 238.9L310.2 237.2L300.8 237.1C292.9 237 291.5 237.1 291.5 237.7C291.5 238.1 292.7 241 294.2 244.1C295.7 247.2 297.3 250.9 297.7 252.2C299.1 256.7 300.1 260.7 300.7 264.2C302.9 275.7 303.4 277.5 307.6 289C310.1 295.6 310.2 297.4 309 306.7C308.2 313.4 307.9 319.8 307.5 337.2C307 359.7 306.5 366.7 304.2 379.1C303 385.2 302.9 404.4 303.9 408.2C304.6 410.5 305.4 411.5 312.4 418.4C321.5 427.3 327.5 431.6 335.4 434.9C343 438 346.5 440.9 346.5 444C346.5 446 343.8 449.9 342.1 450.3C341.4 450.5 340.1 451 339.3 451.4C336.1 453 331.1 453.4 324 452.7C315.3 451.8 312.6 451.1 304.3 447.4C301.2 446.1 299.9 445.8 290.1 445C284.1 444.5 278.5 443.8 277.5 443.5C274.6 442.6 271.8 440.8 270.6 439C269.5 437.4 269.4 436.9 269.7 432.8C269.8 430.3 270.3 426.8 270.7 425C273.3 414.7 273.5 412.3 273.5 392.8C273.5 377.6 273.4 374 272.8 373.2C272.4 372.7 270.4 368.3 268.5 363.5L264.8 354.8L264.8 345.5C264.7 335.5 265.2 330.8 267.6 319.3C268.5 314.9 269 311.2 268.8 310.3C268.3 308 262.4 300.5 255.3 293.3L249 286.9L243.4 286.9C239.3 286.9 237.4 286.7 236.6 286.2C234.4 284.8 234 285.2 234 289.1C234 293 233.2 298.7 232.3 300.2C232.1 300.8 231.5 303.4 231.2 306.1C230.7 309.5 229.6 313.8 227.3 320.6C223.1 333 222.4 336.3 221 350C220.5 355.1 219.8 359.8 217.8 372C217.4 374.1 216.4 379.7 215.5 384.5C213.9 392.8 213.8 393.8 213.8 404.8C213.8 415 213.9 416.7 214.9 420.6C215.5 423 216.3 425.8 216.7 426.7C217.9 429.5 222.6 435.4 227.1 439.8C230.8 443.4 241.6 451.5 243.9 452.4C245.9 453.1 249.1 455.5 250.5 457.3C251.7 458.8 252 459.6 252 461.5C252 462.8 251.9 464.3 251.7 464.7C251.1 466.1 246.9 467.8 242.5 468.4C237.4 469.1 239 469 224 469.3C212.9 469.5 211.5 469.4 209.2 468.6ZM337.6 447.2C342.5 445.4 342.7 445.2 341.7 443.5C340.7 441.9 337.3 439.9 334 439C331.4 438.3 326.2 435.7 322.2 433.2C319.7 431.6 312.6 425.3 304.4 417.4C301.7 414.8 299.8 411 298.9 406.7C298.2 402.6 298.7 382.9 299.7 378C301.9 367.2 302.6 358.6 303 335.8C303.3 323.4 303.7 311.9 304 310.2C306 297.9 306.1 298.4 300.7 283.5C300 281.4 298.9 277.6 298.4 275C297.8 272.4 297.2 269.4 296.9 268.2C296.7 267.1 296.3 265.2 296.1 263.8C295.8 262.5 295.4 261.2 295.2 261C294.5 260.3 281.6 260.2 278.2 260.8C275.3 261.4 271.1 262.6 265.5 264.6C259.6 266.7 248.4 273.5 243.8 277.9C238.8 282.7 239.1 283.6 245.3 282.6C248.3 282 249.2 282.1 250.6 282.7C254.9 284.6 271.4 303.4 273 308.4C273.4 309.3 274 310.5 274.6 311.1C275.1 311.6 275.5 312.3 275.5 312.7C275.5 313.4 274.4 314.8 273.6 315.1C273 315.3 270.9 325.6 269.9 332.5C269.5 335.1 269.3 340.9 269.3 345.2L269.3 353.2L272.6 361.5C274.5 366 276.4 370 276.9 370.4C278.8 371.7 279.1 372.1 278.7 373.2C278.5 373.8 278.2 383.2 278 394.2C277.6 414.7 277.5 416.7 275.2 425.7C273.8 431.3 273.7 435.3 274.7 436.8C276.1 438.7 279.7 439.5 291 440.5L301.8 441.4L307.1 443.7C313.8 446.6 317.1 447.5 323 448.3C329.1 449.1 333.1 448.8 337.6 447.2ZM282 421.1C281.8 420.6 281.6 419 281.5 417.5C281.5 411.8 282.7 410.3 283.2 415.3C283.4 416.6 283.7 418.6 283.9 419.6C284.3 421 284.2 421.5 283.6 421.7C282.6 422.1 282.6 422.1 282 421.1ZM192.2 364.6C192.5 354.4 193.8 349.1 195.6 350.9C196 351.3 195.9 353.3 195.3 357.3C194.9 360.6 194.4 364.4 194.3 365.8C193.9 370.3 193.2 373 192.4 373C192.1 373 192 370.1 192.2 364.6ZM210.1 311.6C209.2 309.5 209 305.9 209.8 305.7C211.2 305.2 213.6 312.7 212.1 313.2C211 313.6 211 313.6 210.1 311.6ZM289.1 301.4C287.9 300.9 286.8 300.1 286.7 299.7C286.3 298.8 287.4 297.5 288.5 297.5C288.9 297.5 289.9 296.9 290.5 296.2C291.8 294.8 292.6 294.7 293.7 295.7C294.2 296.3 294.3 296.9 293.9 298.6C292.9 302.7 292.5 303 289.1 301.4ZM293 294.5C292.4 294.1 292.4 293.7 293.3 291.7C293.8 290.3 294.6 289.2 295 289.2C295.9 289.2 296.2 291.8 295.5 293.7C295 295.1 294.3 295.3 293 294.5ZM92.3 292.2C94.6 291.9 95 291.7 95.6 290.3C95.9 289.5 97.3 287.5 98.7 286C104.9 279.1 110.5 264.5 113 248.9C114.3 240.6 114.3 230.1 113 216C111.8 203.3 111.5 201.6 108.9 194.1C104.8 182.2 101.4 175.7 96 169.9C94.6 168.3 93.2 166.3 92.8 165.3C92.3 164.4 91.5 163.4 90.9 163.2C90.3 163 87.4 162.8 84.5 162.9C80.3 162.9 78.8 163.1 76.9 164C74.6 165 69.4 169.8 66.4 173.6C64.4 176.1 60.8 183.8 58.8 189.5C55.2 199.8 52.3 219.6 54.3 220.3C54.8 220.5 61.5 220.4 69.4 220.1C78.3 219.8 84.2 219.8 85 220.1C87 220.9 87.6 222.4 86.3 223.6C85.7 224.2 82.7 224.3 67.9 224.2C58.2 224.2 46.9 224.2 42.9 224.4L35.6 224.7L34.5 227.3C33.4 230 33.4 231.1 34.6 234.1C34.8 234.8 35.6 235.5 36.2 235.7C36.8 235.9 40.9 236 45.3 236C51.9 236 53.6 236.1 54.2 236.8C54.9 237.4 55 237.4 55.4 236.8C55.7 236.2 58.5 235.9 70.9 235.4C86.8 234.8 87 234.8 87 236.8C87 238.5 85.6 238.9 77.9 239.2C57.7 240 56.5 240 55.7 239.2C55.1 238.5 55 238.7 55 241C55 245.2 57.4 256.7 59.5 262.5C60.5 265.5 62.8 270.6 64.5 274.1C67.2 279.3 68.4 280.9 71.8 284.5C74.1 286.9 77.3 289.6 79.1 290.6C82 292.3 82.5 292.5 86 292.5C88.1 292.5 90.9 292.4 92.3 292.2ZM107.7 291.2C111.8 289.8 117 284.2 121 276.8C126.2 267.2 128.8 258.3 130.6 244C131.6 235.8 131.6 234.6 131.1 225.8C130.3 213.8 129.5 208.7 127 198.9C123.9 186.8 118.3 174.9 113.5 170.1C110.1 166.7 107 164.6 104.4 163.8C101.2 162.9 96.5 162.4 96.5 162.9C96.5 163.1 97.3 164.1 98.3 165C109 175.3 116.9 200.1 117.8 226C118.3 239.7 116.9 254.2 114.2 264.1C112.8 269.2 109 278.9 107.6 280.9C107.1 281.6 106.1 283.2 105.5 284.4C104.9 285.6 103.6 287.5 102.6 288.7C98.8 292.9 98.9 292.7 102.3 292.3C103.9 292.1 106.4 291.6 107.7 291.2ZM411.2 285.1C413 284.8 413.4 284.5 414.2 282.7C414.8 281.6 416.8 278.9 418.6 276.7C423.2 271.3 429.4 259.2 431 252.5C432.1 248.3 432.2 246.2 432.4 234.3C432.7 214 432 209.9 426.1 198.2C423.3 192.7 421.8 190.4 419 187.4C417.1 185.2 415.1 182.6 414.5 181.5C413.2 179 410.7 178.3 403 178.3C397.6 178.3 397.1 178.4 394.1 179.9C382.4 185.7 373.5 199.5 370 217.2C369.2 221 369.1 222.8 369.4 223.1C370.2 223.9 378.7 224.3 384.9 223.9C389.3 223.6 390.3 223.4 391.9 222.3C393.1 221.5 394.2 221.1 394.7 221.3C395.7 221.7 396.2 223.4 395.5 224.3C395.2 224.6 395 225.2 395.2 225.4C395.4 225.7 395.4 226.3 395.2 226.7C394.9 227.4 393.1 227.5 379.3 227.4C370.8 227.4 360 227.2 355.4 227.1C347.8 226.8 347 226.8 346.7 227.6C346.3 228.8 344.5 229.3 343.7 228.4C343.1 227.7 341.2 220.3 339.7 212.5C338.5 205.8 338.2 188.3 339.2 180.2C339.7 176.7 340.3 171.8 340.5 169.5C340.7 167.2 341.2 164 341.4 162.5C343.2 152.8 343.3 150.2 342 149.8C340.7 149.3 340.3 147.7 341.2 146.3C341.6 145.7 341.9 143.7 342 141.5C342.2 135.6 342.3 135.8 340 136.2C338.6 136.4 337.9 136.3 337.3 135.7C335.6 134.1 336.9 132.2 340 131.7C341.3 131.5 342 131.1 342 130.6C342 130.2 343.6 128.2 345.7 126.1C360.3 110.8 368.8 96.4 370.5 83.8C371.7 74.6 370.7 68.6 366.7 61C364.4 56.6 358.7 51.1 354.2 49C349.8 46.9 344.2 45.8 339.1 46.1C335.1 46.3 334.3 46.5 330.4 48.4C322.3 52.4 315.2 61.1 312.7 69.9C312.3 71.5 311.7 73.4 311.4 74.2C311.1 75 310.8 76.2 310.8 76.8C310.7 78.2 309.8 79 308.4 79C307.9 79 306.4 79.6 305 80.3C302.7 81.4 302 81.5 296 81.5C292.4 81.5 286.3 81.1 282.4 80.7C272.9 79.6 261.4 80 255.8 81.5C252.5 82.4 250.9 82.5 247.7 82.3C245.4 82.1 243 81.8 242.4 81.6C241.8 81.3 239.2 80.8 236.6 80.5C228.6 79.3 220.6 81.4 212.8 86.7C210.9 87.9 208.9 89 208.4 89C207.9 89 207.3 89.8 206.8 91.5C205.9 94 205 94.7 203.5 94.2C202.3 93.9 201.8 92.3 202.2 90.7C202.5 89.6 202.4 89.5 201 89.5C198 89.5 186.3 92.1 182.8 93.6C180.9 94.4 177.4 96.3 175 97.8C172.7 99.2 166.9 102.6 162.2 105.3C153.8 110.1 145.2 116.1 143.7 118.2C142.9 119.4 142.8 123.7 143.6 127C143.8 128.2 144.3 130.4 144.5 131.9C144.8 133.3 145.3 134.9 145.7 135.3C146.8 136.3 146.7 137.3 145.5 138.4C144.5 139.3 144.5 139.5 145.2 143.5C145.7 145.9 146.1 148.6 146.3 149.7C146.7 152.1 152.9 164.5 157.2 171.7C159 174.8 160.6 178 160.8 179C161 180.1 161.8 181.4 162.9 182.4C163.9 183.3 164.5 184.3 164.4 184.9C164.3 185.3 164.6 186.1 165.1 186.5C166.4 187.7 170.6 197.9 171 201.2C171.4 203.4 171.3 205.3 170.8 207.8C169.9 212 169.8 218 170.5 220.8C170.7 221.8 170.8 223.1 170.7 223.6C170.4 224.8 168.2 225.3 166.7 224.6C166 224.2 165.5 224.2 165.5 224.5C165.5 224.8 163 225 159.2 225C155.3 225 153 224.8 153 224.5C153 224.1 152.7 224.1 152.1 224.5C151.5 224.8 147.8 224.9 143.3 224.9L135.4 224.8L135.7 226.5C135.9 227.5 136 229.2 136 230.4L136 232.6L151.6 232.3C160.2 232.1 167.6 231.7 168.1 231.4C168.7 231.1 169 230.4 169 229C169 227 169.8 226.2 171.6 226.8C172.3 227 172.5 227.6 172.5 229.2C172.5 230.5 172.2 231.5 171.9 231.6C171.6 231.7 171.3 232.4 171.2 233C171.1 233.7 170.9 234.8 170.7 235.5C170.1 238.2 173.7 239.4 175.9 237.2C176.3 236.8 176.9 236.5 177.2 236.5C178 236.5 179.5 237.8 179.5 238.6C179.5 238.9 179.9 239 180.3 238.8C182.4 238 183.4 238 184.2 238.7C186.1 240.7 184.5 243.8 181.8 243.3C180.9 243.2 178.9 242.9 177.2 242.8C171.3 242.4 170.6 242.2 168.9 240.7C167.9 239.9 166.8 238.7 166.5 237.9C166 236.8 165.5 236.6 162.8 236.1C161.1 235.8 159.2 235.6 158.5 235.7C157.4 235.7 157.3 235.9 157.4 237.4C157.5 238.3 159 242.9 160.8 247.7C162.5 252.5 164.6 258.5 165.5 261.1C168.3 269.7 170.5 276.2 171.3 278.1C172.5 280.8 173.3 280.7 175.7 277.1C179.6 271.3 193.6 264 203.9 262.3C209.9 261.4 216.7 261.3 222.2 262.2L226.1 262.8L225.9 261C225.3 256.2 224.3 251.5 223.4 249.3C222.9 248 222.6 246.6 222.7 246.2C222.9 245.8 222.6 245.1 222.2 244.6C221.4 243.8 221.4 239.7 222.2 237.9C222.7 236.8 222.2 236.7 211.8 236.1C203.8 235.6 203.1 235.7 201.4 236.6C199.1 237.7 198.8 237.7 197.8 236.7C196.7 235.7 196.8 234.4 198 233C198.5 232.4 199 231.7 199 231.5C199 230.6 201.1 230.4 202.3 231.2C203.2 231.9 205.2 232 212.9 232C220.9 232 222.5 232.2 223.9 232.9C225.5 233.8 225.8 233.8 228.2 233.1C231.1 232.2 238.9 232.1 285.2 232.4C299.8 232.5 312.4 232.4 313.3 232.2C315.8 231.7 317.4 234 315.8 235.7C315.3 236.1 315 237 315 237.7C315 238.8 315.2 239 317.7 239.3C319.8 239.5 320.7 239.4 321.6 238.8C323.1 237.8 323.8 237.8 324.8 238.9C325.5 239.7 325.9 239.8 327.3 239.4C328.2 239.1 329 238.7 329 238.5C329 237.8 330.5 236.5 331.2 236.5C331.6 236.5 332.3 236.9 332.7 237.3C333.5 238.1 333.7 238.1 334.9 237.1C336.3 235.9 337.2 235.5 339.9 234.5C340.8 234.2 341.5 233.6 341.5 233.2C341.5 232.4 342.9 231 343.8 231C344.1 231 345 231.6 345.6 232.2L346.8 233.5L369.8 234C382.4 234.2 393.1 234.6 393.6 234.8C394.1 235 394.6 235.7 394.8 236.4C395.2 238.6 395.8 239.2 397.2 239.4C400.1 239.8 403 235.8 403 231.4C403 229.4 400.6 224.3 399.4 223.4C398.7 223 399.3 221.2 400.2 220.8C401.3 220.4 403.3 222.2 404.9 224.9C406.1 226.9 406.2 227.8 406.2 231.2C406.2 234.4 406 235.7 405.1 237.3C403.4 240.5 401 242.9 398.9 243.3C396.1 243.8 394.7 243.2 392.1 240.6L389.8 238.2L379.1 238.1C371.4 238 368.5 238.1 368.5 238.5C368.5 240.5 369.8 247.2 371.3 252.8C374.3 264 380.9 275.4 387.2 280.4C390.7 283.1 394.8 285.2 397.5 285.6C399.8 285.9 407.8 285.6 411.2 285.1ZM421.8 284.7C432.1 281.3 443.9 263.3 446.3 247.2C446.7 244.5 447 238.6 447 231.8C447 221.6 446.9 220.2 445.5 213.6C444.3 207.4 443.6 205.5 441 200.2C436.3 190.4 431 184.2 423.9 180.3C421.7 179.1 418.5 178.5 418.5 179.4C418.5 179.6 419.5 180.9 420.7 182.3C424.2 186.2 428.5 193.3 431.3 199.6C433.4 204.2 434.3 207 435.3 212.4C436.6 218.8 436.7 220.1 436.7 232.5L436.7 245.8L434.8 252.6C432.2 262.4 428.5 270.6 424 277C422 279.9 420.1 282.5 419.8 282.8C419.4 283 418.9 283.8 418.6 284.4C417.8 285.8 418.3 285.8 421.8 284.7ZM239.4 276.6C247.4 268.5 259 261.8 271 258.2C274.4 257.2 277.2 256.8 284.8 256.4L294.3 255.8L293 252.5C292.2 250.7 290.7 247.3 289.5 245C288.4 242.7 287.3 239.9 287.2 238.9L286.9 237.1L279.6 236.8C255.2 235.8 237 236 230.4 237.3C229.1 237.6 229.1 237.6 229.9 238.8C230.5 239.6 231.2 240 232.5 240C233.5 240 234.5 240.2 234.8 240.4C235.2 240.8 237.9 241.5 241.9 242.3C243.6 242.6 244.1 243.8 242.7 244.3C241.4 244.8 231.4 243.7 231 243C230.8 242.6 230.2 242.5 229.5 242.7C228.9 242.9 228 242.8 227.3 242.3C226.1 241.6 226.1 241.6 225.9 243.1C225.7 244.1 225.9 245 226.3 245.4C226.7 245.8 227 246.3 227 246.5C227 246.9 229.7 248.2 230.2 248C230.6 247.9 235.9 250.8 237.2 251.7C237.8 252.2 238 252.8 237.8 253.5C237.5 254.4 237.2 254.5 235.8 254.2C235 254 233.3 253.3 232.2 252.7C231.1 252 229.9 251.5 229.6 251.5C228.9 251.5 228.8 254.8 229.5 256.8C229.8 257.6 230.2 260.1 230.5 262.2C231.4 268.8 231.8 271.7 232.1 272.5C232.3 272.9 232.9 275 233.5 277.1C234.2 279.3 234.8 281 234.9 281C235 281 237 279 239.4 276.6ZM247.5 244.1C247.5 243.8 248.1 243.7 248.8 243.9C249.4 244 250 244.2 250 244.3C250 244.4 249.4 244.5 248.8 244.5C248.1 244.5 247.5 244.3 247.5 244.1ZM187.3 242.3C186.2 241.2 186.3 240.4 187.6 238.7C189.6 236.1 190.4 235.9 192 237.6L193 238.7L194.2 237.5C195.6 236.2 197.3 236.5 197.8 238.1C198.2 239.5 195.9 241.7 194.5 241.2C193.9 241.1 193.5 241.2 193.5 241.4C193.5 242 192.7 242.3 190 242.8C188.6 243 187.9 242.9 187.3 242.3ZM464.3 235.3C466.1 234.5 466.1 234.5 465.9 232C465.5 228.1 465.3 228 457.9 228L451.5 228L451.5 231.9C451.5 234.1 451.7 236 451.9 236.2C452.5 236.9 462.3 236.1 464.3 235.3ZM86.6 234.7C86.2 234.5 86 233.1 86 230C86 226.4 86.1 225.6 86.8 225.3C88.6 224.6 89.5 225.5 89.6 227.9C89.9 234.2 89.2 235.7 86.6 234.7ZM314.3 227.5C311.9 226.8 304.9 226.5 275.2 226.2C259.9 226 246.1 225.8 244.8 225.7C243.4 225.5 238.7 225.5 234.2 225.5C226.9 225.6 219.6 224.9 208.1 223.1C206 222.7 205.4 222.8 204.8 223.5C204.3 224 204 224.6 204 224.9C204 225.6 202.6 227 201.8 227C199.6 227 198.9 223.8 200.4 221.2L201.4 219.7L197.9 215.8C194 211.5 192.8 209.4 193.3 208C193.4 207.4 193.3 207 193 207C192 207 190.8 204.3 188.7 197.1C187.5 193.1 185.8 187.1 184.8 183.8C182.1 174.8 180.6 163 182 163C182.4 163 182.3 162.6 182 162C181.7 161.4 181.2 157 180.9 152.3C180.3 140.9 179.9 138.1 177.8 132.4C176.3 128.1 176.2 127.4 176.8 126.7C177.2 126.3 177.9 126 178.2 126C178.6 126 180 128.1 181.3 130.6L183.8 135.2L186.2 135.6C187.6 135.8 191.4 136.1 194.8 136.1C201.2 136.2 207 135.1 210.9 133.1C216.8 130.1 220.5 127.9 220.2 127.5C219.7 126.7 220.5 125.1 221.6 124.7C222.1 124.5 223.1 124.8 223.9 125.3C225.1 126.1 226.7 126.6 232.7 128C235.4 128.6 236.3 130.2 234.8 131.7C233.7 132.7 233.8 133.4 235.5 138.4C239.5 150.4 242.4 156 247.5 161C250.1 163.7 251.5 164.7 254.8 166C259.8 168.1 261.6 168.5 267.6 168.8C273 169.1 276.6 168.5 279.6 166.8C281.3 165.9 281.6 165.8 282 166.5C282.9 167.8 282.5 168.3 279.9 169.4C275.8 171 272.4 171.5 265.6 171.5C259.9 171.4 259 171.3 255.1 169.9C250.4 168.2 244.6 164.2 240.9 160C238.2 157.1 234.4 149.5 232.8 143.9C232.1 141.6 231.1 138.7 230.6 137.5C230 136.3 229.5 134.6 229.5 133.7C229.5 132.5 229.2 132 228.2 131.6C226 130.6 224.2 130.9 220.8 133C218.9 134.2 217 135.2 216.6 135.4C216.1 135.5 215.4 135.9 215 136.3C214.2 136.9 209.5 138.5 205.7 139.5C203.8 140 203.7 140 203.9 142.1C204 143.3 203.8 145.5 203.5 147C203.2 148.5 202.9 150.5 202.8 151.4C202.7 153.1 201.8 154 200.5 153.9C198.7 153.8 198.1 154.1 195.7 156.2C193.4 158.1 190.7 159.5 187.4 160.2C186.7 160.4 185.9 161 185.7 161.5C185.6 162.1 185.2 162.5 184.9 162.5C184.7 162.5 184.6 162.8 184.8 163.1C185 163.4 185.2 164.4 185.3 165.4C185.8 171.6 187.4 179.5 189.5 185.5C190.8 189.3 191.9 193.1 193.6 199.8C193.9 200.8 194.3 202.2 194.6 202.8C194.9 203.4 195.1 204.5 195.1 205.2C195.1 205.9 195.3 206.5 195.6 206.5C196.1 206.5 197.1 207.5 199.8 210.8C205.4 217.4 206.3 218.1 209.1 218.6C214.7 219.5 226.9 221 229.2 221C236 221.3 241.4 220.3 242.1 218.6C242.2 218.4 244.2 217.1 246.6 215.8C250.5 213.7 251 213.5 251.7 214.3C252.9 215.4 252.7 215.7 250.1 217.8C248.8 218.9 247.2 220.2 246.5 220.9L245.3 222L260.9 222C269.5 222 276.5 221.9 276.5 221.7C276.5 221.6 274.8 219.1 272.6 216.3C267.6 209.8 267.3 209.4 265.8 208.1C264.7 207.2 264.8 206.2 266.3 204.9L267.5 203.8L265 201.6C263.7 200.4 262.4 199.1 262.3 198.5C261.9 197.5 260.5 196.7 260 197.4C259.6 198.1 254.1 201.6 250.5 203.6C248.7 204.6 245.3 206.1 242.8 207C238.8 208.4 237.9 208.5 232.3 208.5C225 208.5 220.5 207.5 214.9 204.7C202.7 198.5 195.4 190.9 192.2 180.9C191.4 178.2 191.5 176.5 192.5 176.5C192.7 176.5 194 178.5 195.2 180.9C199.3 188.7 205.3 194.7 213.6 198.9C220.5 202.5 224.4 203.9 229.9 204.5C237.7 205.4 240.6 204.6 251.2 198.1C255.2 195.7 258.4 194 258.8 194.2C259.6 194.5 261.8 192.5 262.3 190.9C262.6 190 264.6 189.2 265.4 189.7C265.7 189.9 266 189.5 266.2 188.9C266.5 187.8 267.5 187.2 276.9 182.9C281.7 180.7 289.5 173.6 289.5 171.5C289.5 169.2 290.2 168.8 294.1 168.7C296.1 168.6 298.7 168.3 300 168C302.3 167.4 311.6 163 311.9 162.4C312 162.2 314.5 159.1 317.5 155.4C321.6 150.5 323.8 147.3 326.3 142.6C328 139.3 329.5 136.3 329.5 136.1C329.5 135.9 328.8 135.3 328 134.8C327.2 134.3 326.4 133.4 326.2 132.7C326 132.1 325.6 131.5 325.3 131.5C324.9 131.5 323.2 130 321.4 128.1C319.5 126.3 317.7 124.5 317.3 124.1C316.9 123.8 316.5 122.9 316.5 122.2C316.5 121.6 316.1 120.1 315.5 118.9C311.7 110.2 311.2 108.3 313 107.8C313.5 107.6 314.2 107.6 314.5 107.8C315.2 108.2 320.5 118.8 320.5 119.7C320.5 120.1 320.9 120.7 321.3 121.1C322.6 122.1 327.5 128.4 327.5 129C327.5 129.3 327.8 129.5 328.2 129.5C328.5 129.5 329.7 130.2 330.8 131C331.9 131.8 333.1 132.5 333.6 132.5C334.6 132.5 336 133.8 336 134.8C336 135.2 335.5 136 335 136.5C334.4 137.1 332.7 140 331.2 143.1C328.1 149.3 325.5 153.2 320.4 159.4C318.5 161.8 316.8 164 316.6 164.4C316.5 164.7 317.2 167.3 318.2 170.1C321.9 180.9 322.2 182.9 322.2 192.8C322.3 203.2 322.7 201.8 315.6 211.5C311.3 217.2 310 219.6 310 221.5C310 222.3 310.3 222.5 311.9 222.5C316.9 222.5 320 225 317.7 227.2C316.8 228.1 316.4 228.1 314.3 227.5ZM306 219.5C306.3 218.1 307 216.5 307.5 215.9C307.9 215.3 308.8 213.9 309.4 212.8C310 211.7 312.3 208.7 314.5 206L318.5 201.1L318.5 197.4C318.5 191.2 317.5 181.9 316.5 179C313.9 171.2 312.3 167.5 311.8 167.5C311.4 167.5 309.5 168.3 307.6 169.3C303 171.5 299.9 172.5 298.2 172.4C296.2 172.3 294.2 173.3 293.5 174.6C292.9 175.8 287 181.5 286.5 181.5C286.3 181.5 285.3 182.2 284.3 183C282.1 184.7 268.6 191.6 267.8 191.4C267.5 191.3 266.9 192 266.4 192.9C265.6 194.5 265.6 194.8 266.3 196.1C266.7 196.8 267.6 197.9 268.3 198.3C270.1 199.5 271 201.6 271.2 204.9C271.4 208.2 271.8 209.3 272.8 209.7C273.8 210.1 280 218.5 280.3 220C280.5 220.7 280.9 221.5 281.2 221.8C281.6 222.1 286.3 222.2 293.6 222.1L305.4 222L306 219.5ZM166 220.5C166 219.8 166.1 216 166.3 212C166.8 200.9 166.7 199.3 165.5 197C164.1 194.2 161.9 188.1 162.2 187.6C162.3 187.4 161.8 186.9 161 186.4C159.3 185.4 159.3 185.5 157.1 189.9C154.4 195.2 153.4 198.1 152.4 204C151.5 209.5 151.4 216 152.3 220.5L152.5 221.8L159.3 221.8L166 221.8L166 220.5ZM254.8 212.3C254.7 211.9 255.3 211.2 256.5 210.6C258.9 209.2 259.5 210.1 257.5 211.9C255.9 213.2 255.2 213.3 254.8 212.3ZM241.1 197.1C240.7 196.8 240.4 195.9 240.2 195C240 193.4 239.5 192.3 239.5 193.4C239.5 193.7 239 194 238.3 194C236.7 194 233.4 192.1 233.7 191.3C234 190.5 239.1 190.9 239.8 191.8C240.1 192.2 240.5 192.3 240.6 192.1C240.7 191.8 242.5 191.5 244.6 191.3C248.3 191 248.4 191 248.8 192.1C249 192.9 248.8 193.5 247.8 194.3C247 195 246 195.5 245.5 195.5C245 195.5 244.4 195.8 244.1 196.2C243.6 197.1 241.9 197.6 241.1 197.1ZM223 186.9C223 186.6 223.8 185.6 224.7 184.7C226 183.4 226.8 183 228.1 183L229.8 183L228 184.5C226.5 185.8 223.8 187.5 223.2 187.5C223.1 187.5 223 187.3 223 186.9ZM265.5 182C265.8 181.4 266.3 181 266.6 181C266.9 181 267.8 180.5 268.6 179.9C270.2 178.8 270.8 178.9 270.3 180.4C269.9 181.5 267.5 183 266 183C265.1 183 265 182.9 265.5 182ZM215.1 166.3C214.7 165.3 214.4 163.9 214.2 163.2C214.1 162.4 213.7 160.3 213.4 158.6C212.9 155.9 212.9 155.4 213.5 155C214.4 154.4 215.1 154.4 215.9 154.9C216.6 155.4 217.8 165.9 217.3 167.3C216.8 168.5 215.7 168.1 215.1 166.3ZM283.3 166.7C282 165.4 282.4 164.5 286.2 160.3C288.6 157.6 290.8 154.5 292.7 150.8C294.8 146.9 295.8 145.5 296.3 145.7C296.7 145.9 297.2 146 297.3 146C297.6 146 296.6 148.8 295 152.2C293.1 156.5 290.8 160.2 288.9 162.2C287.3 163.9 285.8 166.5 286.4 166.5C287 166.5 285.3 167.5 284.7 167.5C284.3 167.5 283.7 167.1 283.3 166.7ZM335 164.2C335 163.2 335.6 162 336.1 162C336.7 162 336.6 162.7 335.8 163.8C335.4 164.3 335 164.5 335 164.2ZM199.2 161C198.8 160.3 199.5 155.1 200.1 154.7C200.8 154.3 202.5 155 202.5 155.7C202.5 156 202.2 157.5 201.7 158.9C201 161.4 200 162.2 199.2 161ZM336.4 161.2C336.2 161 336.3 160.3 336.5 159.6C336.8 158.8 337.1 157.9 337.3 157.5C337.5 157 337.7 157 338.1 157.4C338.4 157.7 338.3 158.4 337.6 159.7C337.1 160.7 336.6 161.4 336.4 161.2ZM168.3 153.9C165.4 147.7 165.3 147.2 166.3 146.8C166.9 146.6 167.5 146.8 167.9 147.3C168.9 148.6 170.7 152.4 171.8 155.2C172.5 157.2 172.6 157.7 172 158C171.6 158.3 171.1 158.5 170.9 158.5C170.7 158.5 169.6 156.4 168.3 153.9ZM221.3 155.6C220.7 154.9 219.7 153.1 219.1 151.8C218.2 149.8 218.1 149 218.5 148.1C219.3 146.3 221.5 147 221.5 149.1C221.5 149.5 222.1 151.3 222.8 153C223.9 155.6 224.1 156.2 223.5 156.5C222.5 157.2 222.4 157.1 221.3 155.6ZM338.3 156.6C338 156 339.6 151 340.1 151C340.9 151 340.9 152 340.2 154.2C339.4 156.6 338.8 157.3 338.3 156.6ZM188.6 155.4C189.2 155 191 153.8 192.5 152.7C194 151.6 196 150.3 196.8 149.8C198.7 148.9 198.8 148.5 199.3 144.5C199.6 142.1 199.5 141.5 198.9 141.2C197.3 140.6 184.9 139.7 184.8 140.1C184.7 140.2 184.9 143.8 185.2 148.1C185.7 156.7 185.8 156.8 188.6 155.4ZM148 143.5C147.1 141.8 147 141.3 147.6 141C148.5 140.4 148.9 140.8 149.5 142.9C150.2 145.6 149.3 146 148 143.5ZM296.2 145.2C295.5 144.9 296.2 142.8 297.3 141.5C297.9 140.9 298 141 298 142.4C298 144.1 297.6 145.5 297.1 145.5C296.9 145.4 296.5 145.3 296.2 145.2ZM237.8 130.6C237.6 130 237.6 129.3 237.7 129.1C237.8 128.8 239.7 128.5 241.9 128.3C248 127.6 248.8 127.7 248.8 128.5C248.8 129.4 244.6 130.9 240.8 131.3C238.4 131.6 238.1 131.5 237.8 130.6ZM304.9 127.4C304.4 127.2 303.7 127 303.4 127C302 127.2 301.5 126.9 301.5 126C301.5 123.8 303.6 121.9 304.1 123.6C304.3 124 305.3 124 308.2 123.3C313 122.3 314.3 122.3 314.7 123.3C315.3 124.9 314.5 125.7 311.6 126.6C307.5 127.8 305.9 128 304.9 127.4ZM212.8 123.2C206.3 119.4 205.9 119 206.3 117.8C206.6 117.1 207 117 207.9 117.2C210.1 117.6 220.2 123.2 220.4 124.1C220.5 124.8 219.3 126.5 218.6 126.5C218.4 126.5 215.8 125 212.8 123.2ZM290.2 125C284.7 121.8 274.7 114.6 274.1 113.4C273.8 112.6 273 111.9 272.5 111.8C271.4 111.4 270.8 110 271.3 108.9C271.6 108 276.9 106 278.8 106C280 106 280.8 107.5 280.2 108.5C280 108.8 279 109.5 277.9 109.9L275.9 110.8L283.1 115.6C291.8 121.4 294.7 123.9 294.2 125.1C293.7 126.5 292.7 126.5 290.2 125ZM153.5 123.6C152.6 121.3 154 116.8 155.4 117.7C156 118.1 156.2 122.8 155.7 124.2C155.2 125.4 154 125.1 153.5 123.6ZM257.2 124C256.8 123.2 257.4 122.7 258.1 123.4C258.4 123.7 258.4 124 258.1 124.2C257.8 124.4 257.4 124.3 257.2 124ZM177.6 107C178.4 105.7 181 104.8 181 105.7C181 106.6 179.1 108 177.9 108C177.1 108 177.1 107.9 177.6 107ZM280.8 107.2C280.3 105.8 280.4 105.7 283.4 104.6C286.9 103.3 286.8 103.3 287.2 104.3C287.6 105.2 286.6 106.1 284.1 107.3C281.9 108.2 281.2 108.2 280.8 107.2ZM312 105.5C311.5 105.2 311.4 104.4 311.7 102.1C312.2 96.5 313.5 94.2 315.4 95.4C316 95.8 316 96.6 315.5 100.6C314.7 105.8 314.1 106.8 312 105.5ZM185.2 101.8C185 101.3 185 100.8 185.2 100.6C185.8 100 194.1 100 195.1 100.6C196.8 101.4 195.5 101.9 190.4 102.3C186.1 102.6 185.5 102.5 185.2 101.8ZM241.9 102.1C239.9 101.9 238.9 100.5 240 99.3C240.8 98.2 245.1 97.8 247.4 98.5C249.9 99.3 250.7 100.1 250.3 101.5C250 102.4 249.6 102.5 246.8 102.4C245.1 102.4 242.9 102.2 241.9 102.1ZM238.2 88C237.4 87.8 236.1 87.5 235.4 87.3C234 87 233.5 85.8 234.5 85.2C235.3 84.8 239.1 85.4 240.1 86.2C240.7 86.6 240.9 87.2 240.7 87.7C240.4 88.6 240.4 88.6 238.2 88Z"/></svg>
