<svg xmlns="http://www.w3.org/2000/svg" viewBox="0 0 512 512"><path fill="#fff" fill-rule="evenodd" d="M71.5 462C68.1 461.4 65.5 459.1 63.9 455.6C62.7 452.8 62.8 450.6 64 446.2C65.4 441.5 66.7 438.5 73.6 425.5C87.2 400 93.8 385.1 96.2 374.7C97.7 368.4 101.4 358.3 103.3 355.6C107.5 349.4 112.5 344.1 119.6 338.2C123.7 334.9 127.6 331.2 128.5 329.9C129.4 328.6 130.9 326.9 131.8 326C132.7 325.2 133.9 323.8 134.3 322.9C136 319.7 142.1 305.7 143.6 301.5C144.4 299.2 146.3 294.8 147.7 291.8C149.2 288.7 150.6 285.7 150.8 285C151.2 283.4 156.2 273.4 157.8 270.9C160 267.4 162.4 262.2 163 259.9C163.2 258.7 164 256.5 164.5 255.2C165.5 253.1 165.6 251.6 165.7 245.2C165.8 238.9 166.1 237.2 167.1 233.7C169.5 226 172.9 220.6 179.7 213.6C184.5 208.7 187.5 206.5 190.9 205.5C192.6 205 193.1 204.5 193.5 203.2C194.2 201.1 196.4 199.2 198.6 198.8C202.2 198 205.1 196.9 205.7 195.8C206.1 195.2 206.8 191.9 207.2 188.5C208.4 180.2 209.2 175.2 210.4 170C210.9 167.7 211.5 164.8 211.7 163.8C211.9 162.7 212.9 158.5 214 154.5C217 142.9 218.1 137.2 218.5 131C218.8 127.8 219.1 124.5 219.3 123.5C219.8 120.5 224.4 111.9 228.1 107.2C235 98 240.7 94.2 250 92.5C252.9 92 256.9 90.9 258.8 90C260.8 89.2 262.8 88.5 263.2 88.5C264.4 88.5 269.4 82.6 271.4 78.6C274.9 71.8 275.4 69.9 275.7 62.9C276.1 53.1 278.4 47 284.2 40.7C287.3 37.3 290.4 35.4 295.8 33.3C298.6 32.2 307 31.8 311 32.5C315.5 33.3 321.8 36.1 324.2 38.4C326.9 40.9 329.7 45.4 331.3 49.6C332.7 53 332.8 53.7 332.8 60.5C332.8 67.6 332.7 67.8 331.2 71C329.6 74.3 328.3 77.9 327.7 81C327.5 82 326.8 83.8 326.2 85.1C325.5 86.4 324.5 88.9 323.8 90.7C323.1 92.5 321.9 95 321.1 96.1C318.8 99.6 318.8 99.8 321.4 100.8C322.7 101.3 325.9 102.8 328.5 104.1C331.2 105.4 333.9 106.5 334.5 106.5C335.2 106.5 336.5 106.9 337.3 107.5L338.9 108.4L340 107.2C341.9 105.2 344 104.8 350.7 105.2C354 105.4 358.2 105.9 360 106.3C363.7 107.2 370.1 107.3 372 106.6C372.7 106.3 375.7 105.9 378.6 105.7L383.9 105.4L384.2 102.6C385 95.5 386.6 91.1 389 89.3C389.6 89 390.1 87.9 390.3 87C390.5 86 391.1 84.3 391.6 83.1C392.3 81.4 392.9 80.8 394.8 80C397.6 78.8 399.1 79 401.1 81C402.5 82.4 402.5 82.5 402.5 88.2C402.5 92.9 402.7 94.3 403.4 95.4C404.1 96.4 404.2 97.8 404.2 102.2L404.2 107.8L410.1 107.9L416 108L416 67.3C415.9 37.4 416 26.4 416.5 25.6C417.3 24 418.5 24.3 419.4 26.4C420.3 28.6 420.3 28.2 420.4 73.9L420.5 108L422.9 108C424.2 108 425.5 107.8 425.8 107.6C426.2 107.4 426.5 104.4 426.6 98.7C426.8 89.8 427.2 88 429.4 87.3C430.4 87 432 84.3 432 83C432 81.4 433.4 78.2 434.6 76.9C435.3 76.2 435.9 75.5 436.1 75.2C436.3 74.5 443.2 71 444.3 71C445.2 71 447.9 72.4 448.9 73.3C449.3 73.7 449.9 74 450.4 74C451.6 74 455.4 76.4 455.7 77.4C456.1 79.2 456 91.7 455.5 98.8C454.8 107.3 453.7 112 451.4 116.8C449.5 120.6 447.7 122.2 444.4 122.8C443.2 122.9 440.8 123.7 439 124.5C437.2 125.3 434.5 126.3 433 126.7C431.5 127.1 428.1 128.2 425.5 129.2L420.8 130.9L420.3 182.1C420.1 210.2 420.1 274.9 420.2 325.9C420.4 407.1 420.3 418.6 419.7 419.3C418.8 420.1 418.1 420.2 417 419.5C415.8 418.7 415.4 369.8 415.7 244.9C416 143 415.9 133 415.2 133C414.8 133 412.6 133.6 410.3 134.2C398.7 137.7 390.1 138.6 368.3 138.2C354.9 138 352.8 138.1 352 138.7C350.9 139.8 347.4 140.8 340 142.3C331.5 144 323.7 144.4 319.5 143.4C317.7 142.9 315.1 142.5 313.6 142.3C311.2 142.1 311 142.1 311 143.2C311 146.4 305.4 159.1 301.8 164.2C300.8 165.6 299.6 167.3 299.1 168C297.6 170.4 294.8 173 293.3 173.5C292 173.9 291.5 174.6 290.3 177.2C286.3 186.4 277.9 196.9 273.1 198.5C271.9 199 271.4 199.7 270 203.2C268 208.2 265.8 212.8 264.3 214.8C263.6 215.6 263 216.8 262.8 217.4C262.6 218 261.9 218.9 261.2 219.3C260.1 220 260 220.5 260 223.5C260 226.2 260.2 227.1 260.9 227.6C262.6 228.8 263.5 230.7 263.8 233.6C264.1 235.8 264.3 236.5 264.9 236.5C265.4 236.5 266.9 237.2 268.3 238.1C270 239.3 271.1 240.4 271.9 242.1C272.7 243.8 273.3 244.5 274 244.5C276.3 244.5 281.3 247.8 292.1 256.4C293.5 257.5 294.8 259.1 295.4 260.5C296 261.8 297 263.1 297.6 263.3C299.6 264.2 302.1 266.6 305.2 270.5C306.9 272.6 309.4 275.7 310.8 277.4C313.8 281.2 317.4 286 318.8 288.4C319.5 289.4 321.5 291.9 323.5 293.9C330 300.8 331.8 305.8 330.6 313.8C329.7 319.2 325.8 327.8 323.6 329C322.7 329.6 322.1 330.7 321.2 333.5C319.6 338.7 317.4 345.1 315.6 349.3C314.8 351.3 313.7 354.3 313.3 356C312.1 360.6 308.3 369.9 302.5 382C294.3 399.2 290.7 407.7 289.1 413.6L288.6 415.5L293.2 417.8C301.6 422 309 425 312.3 425.5C314.1 425.8 316.2 426.3 317.1 426.7C318 427.1 319.5 427.7 320.4 428C321.2 428.3 322.1 429.1 322.3 429.7C322.5 430.2 323.2 431.1 323.8 431.6C324.4 432.1 325.1 433 325.3 433.5C325.6 434.6 323.7 441 323 441C322.8 441 322.3 441.3 321.9 441.7C320.7 442.9 315.1 445.1 310.8 446C309.6 446.3 301.6 446.8 292.9 447.2C283.1 447.7 275.7 448.3 273.7 448.7C269.9 449.6 266.7 449.7 263 449C255.7 447.6 253.5 441.9 256 431.4C256.5 429.1 258.4 423.2 260.2 418.3C263.4 409.4 266.6 398.4 268.3 391C268.7 388.9 269.3 386.9 269.5 386.5C270.7 384.2 271.6 377.3 272 367C272.6 350.7 273.6 346.5 279.1 335.5C281.4 331 283.8 327 286.4 323.7C288.6 321 290.5 318.3 290.6 317.7C290.9 316.7 290.6 316.5 288.3 316C277.6 313.5 264.5 309.2 259 306.3C257.8 305.7 256.1 305 255.4 304.8C254.7 304.6 253.9 304.1 253.8 303.5C253.4 302.5 252.1 302.5 248.8 303.5C245.8 304.5 242.8 304.1 240.3 302.4C236.7 300.1 226.6 290.1 224.6 287.1C223.2 284.9 222.8 284.5 222.2 285C221.8 285.4 221.5 286 221.5 286.4C221.5 286.9 221 288 220.4 289C219.8 290 217 294.8 214.2 299.8C211.3 304.7 208.5 309.1 207.9 309.6C206.6 310.7 202.8 310.8 201 309.8C200.3 309.4 199.4 309 199 309.1C198.6 309.1 197.1 310.9 195.6 313.2C191.4 319.6 186 326.7 182.2 330.7C179.1 333.8 169.5 341 168.3 341C168 341 165 343.9 161.5 347.4C158 350.9 154 354.8 152.6 356C150.3 358.2 145.2 364.7 142.5 369.3C139.9 373.5 126.1 392.1 122.4 396.3C119.8 399.3 116.7 403.3 110.2 412.1C107 416.4 102.7 424.4 102.5 426.2C102.2 428.7 103.1 430 106.7 432.2C112.9 436.1 119.7 438.8 125.3 439.7C130.7 440.5 136.6 442.8 137.2 444.2C137.7 445.6 137.5 449.3 136.9 450.7C136.1 452.4 133.9 453.7 130.5 454.5C129 454.8 127.1 455.3 126.2 455.6C121.9 457.2 115.9 457.9 106.3 458.3C97.8 458.5 95.5 458.8 91.5 459.8C82.7 462.2 76 462.9 71.5 462ZM80.5 457.5C82.3 457.2 86.3 456.3 89.5 455.5C94.5 454.3 96.6 454 105.2 453.8C114.7 453.5 121.4 452.6 123.5 451.5C124.1 451.2 125.8 450.7 127.4 450.5C129 450.2 130.8 449.8 131.6 449.5C133 448.9 133.7 447.3 132.8 446.6C131.8 445.7 127.3 444.5 122.8 443.8C119.1 443.3 117.1 442.6 112 440.2C104.8 436.7 99.7 433.5 99.3 432C98.8 430.6 98.2 430.7 96 433C93.9 435.2 93 435.4 91.8 434.2C90.8 433.2 90.8 432.9 92 430.5C92.7 429.1 93.7 428.2 95.3 427.4C97.3 426.4 97.7 425.9 98.5 423.8C100.8 417.1 109.1 404.7 120.3 391.2C125.1 385.4 131.3 377.2 133.7 373.5C134.5 372.3 135.9 370.4 136.8 369.3C137.6 368.2 138.8 366.5 139.3 365.5C141.2 361.8 148.3 352.9 151.2 350.6C153.7 348.7 157.8 344.8 161.5 340.7C163.3 338.8 166 336.8 169 335C175.6 331.1 181 325.6 188 315.8C191.1 311.4 193.7 307.4 193.9 307C194.1 306.1 194.3 306.1 176.2 300C170.8 298.1 163.9 295.7 161 294.6C158.1 293.5 155 292.5 154.2 292.4C152.6 292 152.5 292.1 151.4 294.6C150.7 296.1 149.7 298.6 149 300.2C143.1 315.6 137.9 326.8 135.5 329.2C134.4 330.4 132.5 332.5 131.3 334.1C130 335.6 126.7 338.7 123.9 340.9C121.1 343.1 117.4 346.2 115.7 347.8C112.8 350.7 107.3 357.5 106 359.9C105 361.8 101.6 372.1 100.7 375.7C99.9 379.5 95.6 391.5 92.8 398C90.8 402.7 81.1 421.6 75.5 431.8C70 441.8 67 449.9 67.7 452.7C68.2 454.7 70.6 457 72.5 457.5C75 458.1 76.8 458.1 80.5 457.5ZM272.5 444.3C274.3 443.8 281.1 443.3 291.5 442.8C308.2 442 309.3 441.9 317.4 439.2C320.1 438.2 320.9 436.9 319 436.3C317.9 435.9 317.3 434.4 317.7 433.1C318.1 431.9 315.6 430.8 311.1 430C309.3 429.7 306.6 428.9 305.1 428.2C303.6 427.5 302.2 427 301.9 427C301.7 427 297.9 425.2 293.4 423L285.3 419L284.2 420.1C283.5 420.7 282.9 421.6 282.7 422.1C282 424.3 278.7 424.4 278.2 422.3C277.8 420.6 280.1 416.8 282.3 415.5C283.2 415 284.1 414.2 284.2 413.9C284.3 413.5 285 411.2 285.8 408.8C286.5 406.3 287.4 403.7 287.8 403C288.1 402.3 289.8 398.6 291.5 394.8C293.3 390.9 296.8 383.2 299.4 377.8C304.5 366.9 308.2 357.9 309 354.2C309.3 352.9 310.5 349.5 311.7 346.6C312.9 343.6 314.7 338.6 315.8 335.3C317.5 330.1 317.6 329.3 317.1 327.8C316.8 326.9 316.6 325.8 316.8 325.3C317.2 324.2 318.8 323.8 320 324.5C320.6 324.8 321.2 324.9 321.5 324.8C322.3 324.2 325.5 315.9 326 312.7C326.4 310.9 326.5 308.5 326.3 307.4C325.9 305.2 324.4 302 323.1 300.5C322.6 300 320.9 298.2 319.2 296.3C317.4 294.5 315.7 292.4 315.3 291.5C313.6 288.4 299.1 270.2 296.6 268.1C295 266.9 294.2 267.5 291.6 271.8C289.8 274.7 288.3 276.4 287 277.3C285.9 278 285 278.8 285 279.2C285 281.3 274.2 290.1 266.3 294.5C262.7 296.5 259.1 298.6 258.3 299.2L256.9 300.2L258.8 301.2C263.3 303.4 274.4 307.5 280.9 309.3C284.6 310.3 289.3 311.5 291.2 312.1C293.2 312.7 295.5 313.2 296.5 313.3C301.5 313.9 303 314.6 303 316.2C303 317.9 301.5 318.5 298.3 318.2L295.1 317.9L294.9 319.3C294.7 320.1 292.6 323.3 290.2 326.5C287.3 330.3 284.8 334.3 282.7 338.7C277.8 348.5 277.1 352.1 276.5 368C276.2 374.2 275.7 380.7 275.3 382.5C273.8 389.5 267.5 412.1 266 416C265.4 417.5 264.5 420 264 421.5C263.5 423 262.8 425 262.4 426C261.2 428.7 259.5 436.3 259.5 438.9C259.5 442 261 444 263.8 444.5C267 445.1 269.4 445 272.5 444.3ZM106.8 389.7C105.2 388.1 105.9 387 110.7 383.5C117.4 378.5 126.8 368.2 131.7 360.5C138 350.7 137.8 350.9 139.1 352.2C140.7 353.8 137.8 360.5 132.3 368C127.2 375 117.2 384.9 111.5 388.7C108.4 390.7 107.9 390.8 106.8 389.7ZM280.8 384.2C279.7 383.1 279.8 382 281.5 378.8C283.3 375.4 283.3 375 282 373.9C279.9 372.1 281.5 369.7 284.5 370.2L286.4 370.5L290 365.7C293.4 361.3 294.7 360 295.9 360C296.6 360 298 361.5 298 362.2C298 363.2 290.7 372.8 289.1 374C288.1 374.7 287.5 375.7 287.3 376.9C286.9 378.8 284.3 384 283.3 384.6C282.4 385.2 281.6 385.1 280.8 384.2ZM155.7 331C155.4 329.7 158.6 325.8 163.6 321.5C167.3 318.3 168 318 169.2 319.3C170.5 320.6 170.1 321.8 167.7 324.1C166.4 325.3 165 326.7 164.5 327.2C164.1 327.6 162.6 328.9 161.2 330C158.4 332.2 156.3 332.6 155.7 331ZM317.2 322.2C317 321.8 316.9 319.9 316.8 317.9C316.8 314.9 316.9 314.3 317.6 314.1C318.2 314 318.6 314.6 319.2 316.7C320.2 320.2 320.2 322.3 319.2 322.7C318 323.2 317.5 323.1 317.2 322.2ZM307.5 312.5C303.9 310.2 301.3 307.3 301.7 306.1C301.9 305.5 302.3 305 302.7 304.8C304.4 304.2 312.5 309.8 312.5 311.6C312.5 312.6 311.2 314 310.3 314C310 314 308.7 313.3 307.5 312.5ZM205.7 305.2C205.9 304.7 207.6 301.7 209.5 298.6C211.3 295.4 213.5 291.5 214.3 290.1C215.1 288.6 216.1 286.7 216.6 285.9C217.1 285 217.4 284.2 217.3 284.1C217.1 283.9 213.3 285.5 211 286.8C207.4 288.8 203 290.7 201.4 290.9C199.9 291.1 199.6 291 199.3 290C199.1 289.4 199 288.9 199.1 288.8C199.2 288.8 200 288.2 201 287.5C204.1 285.2 208.7 282.7 212 281.2C216.5 279.3 217.1 278.7 214.9 278.3C212.6 277.8 211.6 277.9 209 278.5C205.3 279.3 197.2 279.1 196.3 278.2C194.2 276.1 195.8 275.1 201.7 274.7C208.2 274.2 209 273.5 205.1 271.5C204.1 271 202 269.6 200.4 268.3C198.9 267 197.2 266 196.6 266C195.1 266 193.9 264.6 194.2 263.2C194.4 262.5 194 261.5 193.2 260.3C189.7 255.1 187.8 249.4 187.3 243.1C187 238.9 187.4 237 188.7 237C189.8 237 190 237.6 191 242.7C192 247.4 193.9 252.7 195.3 255C195.8 255.7 196.9 257.5 197.8 258.9C199 260.8 200.6 262.5 203.6 264.7C205.9 266.4 208.4 268.1 209.2 268.5C209.9 268.8 210.6 269.6 210.8 270C211.3 271.7 213.1 273.5 214.2 273.5C216.6 273.5 219.1 274.6 219.9 276C220.9 277.7 222.1 278.1 223.8 277.4C225.1 276.8 230.4 277.3 237.5 278.7C249.6 281.1 250.4 281.4 249.8 283.5C249.5 284.3 249 284.5 246.8 284.5C243.4 284.5 237.1 283.7 233.5 282.8C232 282.4 229.8 282 228.7 281.8L226.6 281.6L227.6 283.2C229 285.6 243.3 299.5 244.3 299.5C244.8 299.5 246.9 299.2 249 298.7C251.6 298.2 253 297.6 254 296.7C254.7 295.9 258.1 293.8 261.5 291.9C264.9 290 269.4 287.1 271.4 285.6C273.5 284 275.8 282.3 276.7 281.7C277.5 281.1 278.9 280 279.8 279.3L281.2 278.1L280.1 277C278 275 279.3 272.8 282.4 273.3C284.6 273.6 284.9 273.4 288.2 268.2C289.4 266.3 290.7 264.5 291 264.1C291.3 263.8 291.5 263.3 291.5 262.9C291.5 262 280.1 252.6 276.6 250.6C273.2 248.7 272.4 248.7 268.8 250C267.2 250.6 265.7 251 265.4 250.9C265 250.7 264.4 251 263.9 251.4C263.5 251.8 262.2 252.2 261.1 252.3C259.6 252.6 259.1 252.4 258.8 251.7C258.6 251.3 258.8 250.5 259.1 250.2C259.9 249.1 262.4 247.9 263 248.3C263.3 248.4 263.6 248.2 263.8 247.8C264 247.4 265.1 246.7 266.2 246.2C268.3 245.3 268.4 245.2 267.7 244C267.4 243.3 266.3 242.3 265.3 241.7L263.5 240.8L259.4 242.2C257.1 243 254.3 244.1 253.1 244.6C252 245.1 250 245.7 248.8 245.8C246.9 246.1 246.6 246 246.3 245C246.1 244.4 246.2 243.6 246.6 243.2C247.4 242.2 252.1 239.9 255.5 238.8C259.1 237.6 259.1 237.6 258.3 236.7C257.2 235.7 257.3 234.7 258.5 233.6C259.5 232.7 259.5 232.7 257.7 231.1C256.7 230.2 255.7 229.5 255.5 229.5C254.8 229.5 253.5 228 253.5 227.2C253.5 226.8 253.9 226.1 254.5 225.6C255.2 225 255.5 224.2 255.5 222.7C255.5 220.8 255.4 220.6 253.3 219.6C252.1 219 250.7 218.5 250.2 218.5C249.7 218.5 247.6 217.5 245.5 216.3C240.9 213.5 232.7 210.1 226.8 208.3C224.3 207.5 221 206.5 219.6 206C218.1 205.4 215.8 205 214.4 205C211.9 205 210.8 204.4 208.9 201.6L208.1 200.4L204.8 201.7C203 202.4 201.2 203 200.7 203C199.5 203 198 204.2 198 205.1C198 206 200.9 207 205 207.5C213.2 208.6 232.9 214.2 240.2 217.5C244.9 219.6 249 222.1 249 222.8C249 223.2 248.7 223.8 248.3 224.2C247.5 224.9 245 224.2 235.8 220.6C225.9 216.7 206.1 211.7 202.4 212.2C200.5 212.4 199.8 212.3 199.1 211.5C198.6 211 197.2 210.3 195.9 210C193.8 209.5 193.1 209.5 191.2 210.2C188.7 211.2 182.1 217.3 178.2 222.3C172.3 229.9 169.2 240 170.2 249.1C170.5 252.1 170.7 252.3 172.4 253.3C175.8 255.2 177 258.5 174.5 259.3C173.5 259.6 170.5 258.3 170.5 257.5C170.5 257.2 170.1 257 169.5 257C168.8 257 168.4 257.5 168 258.9C167.7 259.9 167.5 261 167.5 261.3C167.5 262.3 163.7 270.1 160.8 275.2C158.3 279.4 154.5 287.1 154.5 287.8C154.5 287.9 154.9 288 155.4 288C155.9 288 158.5 288.8 161.2 289.8C164 290.8 171.3 293.4 177.5 295.5C193 300.8 197.2 302.4 197.8 303.2C198.3 303.9 203 305.8 204.6 305.9C205 306 205.5 305.6 205.7 305.2ZM189 264C188.3 263.8 186.6 263.1 185.2 262.4C183.9 261.7 182.1 261 181.2 260.8C180.1 260.5 179.5 260 178.9 258.5C178.4 257.4 178.2 256.1 178.3 255.8C178.7 254.7 180.1 254.4 181.2 255.2C184 257.3 189.4 260.7 190.9 261.4C192.6 262.2 192.7 262.4 192.2 263.7C191.9 264.6 191 264.6 189 264ZM252.9 236.7C250.8 236.1 253 234.3 255.4 234.6C256.4 234.7 256.8 235 256.8 235.8C256.8 236.5 256.4 236.8 255.2 236.8C254.4 236.9 253.4 236.8 252.9 236.7ZM260 213.1C264.3 205.8 267.2 198.9 266.5 197.5C265.3 195.3 266.4 192 268.2 192C269 192 270.5 193.3 270.5 194C270.5 195.1 271.8 194.3 275 191.2C280.2 186.2 287 175.7 287 172.7C287 172 287.2 171 287.5 170.5C287.9 169.8 287.9 169.5 287.5 169.5C287.2 169.5 287 169.1 287 168.7C287 168 286.7 168.2 285.8 169.2C284.3 170.8 283.7 170.8 283 169.5C281.7 167 283.5 164.1 285.5 165.4C286.9 166.2 286.8 166.3 287.6 163.7C288.4 161 289.1 160.3 290.5 160.7C291.3 161 291.5 161.5 291.5 163.8C291.5 165.2 291.3 167 291 167.8C289.3 172.2 294 167.8 298.7 160.5C302.1 155.3 305.9 146.2 306.7 141.4C307 139.7 306.9 139.6 305.4 139.1C302.2 137.9 302 138 298.2 143C291.5 151.9 284.1 159.9 279.2 163.5C277.8 164.6 276.4 165.9 276.3 166.5C275.9 167.5 274.3 168.3 273.6 167.8C273.3 167.6 271.2 168.3 268.8 169.3C264.6 171 262.9 171.4 257.2 172.5C252 173.4 248.3 171.3 250.8 168.8C251.3 168.3 252.5 168 254.3 168C259.5 168 269.1 164.8 273.7 161.6C278.7 158.2 284.7 152.3 290.1 145.6C296.6 137.6 297.8 136 298.2 134.7C298.6 133.3 300.1 132.8 301.4 133.5C302 133.8 303 134 303.7 134C305.4 134 310.4 135.9 310.9 136.8C311.1 137.2 312.8 137.6 315.5 138C317.8 138.2 320.5 138.7 321.4 139C323.7 139.8 331.2 139.3 339.1 137.7C347.4 136.1 348.1 135.8 347.7 134.3C347.5 133.6 347.7 132.8 348.2 132.3C349.3 131.2 350.1 131.3 351.7 132.5C352.9 133.5 353.6 133.5 362.9 133.5C371.6 133.5 372.8 133.4 373.2 132.7C374.4 130.8 375.6 129.9 376.8 130.2C377.6 130.4 378 130.3 378.2 129.6C378.4 128.9 379.8 128.2 382.9 127.2C392 124.3 391.4 124.5 392.3 125.3C393.4 126.4 393 127.5 391.1 128.8C388.7 130.5 381.7 132.7 380 132.3C379 132.1 378.5 132.3 378.3 132.8C378.1 133.3 378.1 133.8 378.2 133.9C378.7 134.4 395.3 133.1 399 132.3C401.1 131.8 405.2 130.8 408.2 130C411.3 129.1 414.2 128.5 414.6 128.5C415.1 128.5 416.1 128.2 416.7 127.7C417.7 127.1 422.7 125.2 430.5 122.6C436.6 120.6 438.6 119.8 439.6 118.9C440.4 118.3 441.1 118.1 442.4 118.3C444 118.5 444.5 118.4 445.6 117.2C447.4 115.3 449.4 110.2 450.3 105.2C450.7 103 451.3 96.6 451.6 90.9C452.1 81.1 452.1 80.4 451.2 79.5C450.7 78.9 449.9 78.5 449.4 78.5C448.7 78.5 448.5 78.9 448.5 80.8C448.5 82 448.7 83.5 449 84.1C449.7 85.4 449.3 87.3 448.2 87.7C447 88.2 443.1 86.5 442.7 85.5C442.6 85 442.7 84.1 443 83.5C443.6 82.3 444.3 76 443.8 76C443.6 76 442.8 76.3 442 76.8C440.8 77.4 440.5 77.8 440.8 78.7C441.2 80.2 439.8 81.7 438.3 81.3C437.3 81.1 437.1 81.4 436.3 84.4C435.9 86.2 435.5 88.6 435.5 89.6C435.6 92.5 433.5 93.9 431.8 92.2C431 91.4 430.9 92.1 431 101.5C431.1 109.1 431 111.7 430.5 112C430.2 112.2 424 112.4 416.7 112.5C406.5 112.5 403.2 112.4 402.3 111.9C401.6 111.4 399.6 111.3 395.6 111.4L390 111.6L389.2 113C388.8 113.8 388 114.7 387.5 115C385 116.3 383.1 113.7 384.8 111.2L385.6 109.9L380 110.2C376.9 110.4 373.7 110.8 373 111.1C371 111.9 363.1 111.8 359 110.8C355.1 110 344.4 109.5 343.7 110.1C343 110.8 344.2 112.2 345.9 112.6C348.4 113.3 348.6 116.2 346.2 116.8C344.5 117.2 342.8 116.7 341 115.2C340.2 114.5 339.4 114 339.3 114.1C339.3 114.2 338.6 115.2 337.8 116.4C336.8 117.9 335.7 118.9 334.1 119.6C332.8 120.2 331.1 121.2 330.2 121.8C328.1 123.4 325.1 124.6 324 124.3C322.9 123.9 322.4 122.7 322.8 121.6C323.1 120.7 327.2 117.9 330.8 116.1C332.8 115.1 335 112.7 335 111.5C335 111.2 334.4 111 333.6 111C332.9 111 329.6 109.7 326.2 108C322.9 106.4 319.6 104.9 318.7 104.7C317.9 104.5 316.8 104.1 316.2 103.7C314.8 102.8 306.2 102.7 300.2 103.4C296.4 103.9 294.8 104 294 103.5C293.2 103.1 292.9 103.1 292.7 103.7C292.3 104.6 289.4 106.5 288.4 106.5C287.4 106.5 286 105.2 286 104.2C286 103.9 286.8 102.8 287.8 101.9C289.2 100.5 289.5 99.9 289.3 99.1C289.1 98.4 288.5 98 287.8 98C286 98 282.1 96.5 281.8 95.6C281.3 94.3 282 93 283.5 92.7C284.3 92.5 285 92.3 285 92.2C285 91.5 282.5 82.5 282.1 81.7C281.8 81.1 281.5 79.5 281.4 78.1C281.3 75.8 281.1 75.5 279.8 75C278 74.4 278 74.4 278 75.3C278 76.7 272.5 86.2 270.5 88.3C269.4 89.4 268.3 91 268 91.9C267.4 93.6 266 94.3 264.6 93.6C263.9 93.2 262.4 93.5 258.7 94.7C256 95.6 252.3 96.6 250.5 97C244.7 98.2 240.7 100.4 236.5 104.8C229.2 112.3 224.6 119.9 223.6 126C223.3 127.9 223 129.5 223 129.6C223 129.8 223.5 130 224.2 130.2C226.4 130.8 226.3 134 224 134.7C223.5 134.9 222.9 135.7 222.8 136.6C221.3 144.1 219.4 152.4 218 157.8C217.4 159.9 216.4 164.3 215.7 167.5C215.1 170.7 214.4 173.5 214.3 173.8C213.8 175 211.5 190.2 211.5 191.9C211.5 192.8 211.6 192.9 213.6 192.3C216.3 191.5 218 189.4 220 184.3C220.9 182.1 222 179.9 222.6 179.5C223.3 178.9 223.9 177.3 224.5 174.2C232.1 137.5 240.3 117.3 252.4 105.9C253.8 104.5 255.2 104.4 255.7 105.7C256 106.5 252 113.6 249.9 116C249 116.9 246.6 120.8 244.7 124.5C240.1 133 235.9 145.2 232.5 160C228.4 177.4 228.1 179.1 228.8 180.2C229.7 181.5 229.7 182.3 228.7 183.2C228.1 183.8 227.4 184 226.4 183.7C225.4 183.5 225 183.6 225 184.1C225 185.2 222.1 190.9 220.4 193.3C219 195.2 218.4 195.6 215.4 196.5C213.5 197.1 212 197.7 212 197.9C212 198.1 212.5 198.8 213 199.4C213.7 200.2 214.4 200.5 215.9 200.5C217.1 200.5 218.8 200.8 219.9 201.2C220.9 201.6 223.4 202.4 225.5 203C233.2 205.3 239.7 208 246.6 211.7C252.4 214.7 253 214.5 251 210.1C249.1 206.2 248.8 204.7 249.8 204.3C250.9 203.9 251.8 204.7 253.8 208.1C255.2 210.5 255.4 211.3 255 212C254.6 212.7 254.6 213 255 213C255.3 213 255.9 213.8 256.3 214.7C256.7 215.8 257.3 216.4 257.6 216.2C258 216.1 259 214.7 260 213.1ZM276.4 173.3C275.2 170.8 275.3 169.1 276.6 168.7C278.1 168.2 278.7 169.2 278.7 172.1C278.8 175.4 277.6 175.9 276.4 173.3ZM258.6 135.4C256.9 133.6 255 129.9 255 128.2C255 127.7 254.6 126.8 254 126.4C252.7 125.3 252.7 124.3 253.9 123.1C254.5 122.7 255.7 120.6 256.7 118.6C257.7 116.6 258.7 115 258.9 115C259.1 115 259.6 114.4 260 113.6C260.9 112.1 267.1 107.7 269.1 107.2C271.1 106.7 271.5 108.4 269.7 109.9C264.4 114.3 262.7 116.4 260.7 120.8C259.1 124.3 259.1 124.6 259.5 127.2C259.8 128.7 260.6 131.2 261.3 132.7C262.3 135.2 262.4 135.5 261.7 136.2C260.6 137.3 260.4 137.2 258.6 135.4ZM247.3 130.2C247.1 129.6 247.5 128.8 248.8 127.4C250.9 125.3 251.1 125.2 252.2 126.3C253.4 127.4 253.2 128.3 251.6 129.4C249.5 130.9 247.7 131.3 247.3 130.2ZM371.8 125.8C369 124.8 366 123 366 122.4C366 120.2 368.2 120.1 372.7 122C375.3 123.2 375.7 123.6 375.3 125C374.9 126.2 373.6 126.4 371.8 125.8ZM363.1 121.2C361.7 120.2 361.7 119 363.2 119C364.8 119 366.1 120.1 365.7 121.1C365.3 122.2 364.6 122.2 363.1 121.2ZM399.5 102.8C399.7 99.6 399.6 98.4 398.9 97.1C398.2 95.9 398 94.3 398 89.8C398 85 397.9 84 397.3 84C395.4 84 394 88.8 395.3 90.8C396.7 93 394.8 95.2 392.6 94C391.7 93.6 391.4 93.8 390.4 95.6C389.4 97.3 389.1 98.8 388.8 102.1C388.6 105.2 388.7 106.5 389.2 106.7C389.5 106.8 391.9 106.9 394.5 106.8L399.2 106.8L399.5 102.8ZM302.3 98.5C304.3 98.2 307.9 98.1 310.4 98.3C314.8 98.6 314.9 98.6 315.2 97.4C315.3 96.7 316.1 95.3 316.8 94.2C319 91 322.5 82.4 324.3 76C324.8 74.2 325.8 71.4 326.6 69.8C327.9 67.3 328.1 66 328.4 62C328.8 54.1 326.5 47.5 321.8 42.7C317.4 38.4 310.6 36.2 303.2 36.7C296.1 37.3 291.5 39.5 287 44.6C282.4 49.8 280.6 54.9 280.2 64L279.9 70.3L281.4 71C282.9 71.6 283.8 73 283.3 74C283.1 74.2 283.4 74.6 284 74.7C284.6 74.9 285.2 75.8 285.5 77.2C285.8 78.3 286.4 80 286.8 81C287.2 82 288.1 85.1 288.8 87.9C289.9 92.4 290.3 93.3 291.8 94.7C292.7 95.6 293.5 96.7 293.5 97.2C293.5 98.4 295.5 99.5 297.2 99.3C298.1 99.1 300.4 98.8 302.3 98.5ZM438.2 86.8C438.1 86.4 438 85.3 438.1 84.4C438.2 83.1 438.5 82.8 439.2 82.8C440.4 82.8 440.8 84.3 440.3 86.3C440 87.6 438.6 87.9 438.2 86.8Z"/></svg>
