<svg xmlns="http://www.w3.org/2000/svg" viewBox="0 0 512 512"><path fill="#fff" fill-rule="evenodd" d="M161 494.8C159.5 494.5 155.8 493 152.8 491.4C148.1 489.1 144.2 487.3 137.8 484.5C133.5 482.7 128.9 480.2 126.8 478.6C125.3 477.6 123.1 476.5 121.6 476.2C118.1 475.4 113.3 472.3 112 469.9C110.8 467.7 110.7 464.4 111.8 461.7C112.2 460.7 114.8 456.5 117.4 452.5C121.5 446.3 123 443.5 126.9 434.5C132.4 421.6 137.7 406 138.7 399.5C140.6 388.4 143.3 380 146.7 374.9C148.9 371.5 153.6 366 159.7 359.6C169.1 349.6 171.2 345.4 174.5 330.5C175.7 325.4 176.7 321.1 176.9 320.8C177.8 319.3 181.8 304.4 182.2 300.6C182.3 299.8 184.3 295.8 186.6 291.9C189 288 191.2 284.2 191.5 283.5C192 282.7 192.3 279.2 192.5 273L192.8 263.7L195.3 258.5C200 248.7 207.5 240.1 216 234.8C218 233.5 220 232.5 220.3 232.5C220.5 232.5 221 231.9 221.3 231.1C221.7 230 222.7 229.2 224.8 228.2C226.4 227.4 228 226.5 228.4 226.1C229.3 225.2 230.2 225.3 231.5 226.5C232.8 227.6 235.5 228.2 237.2 227.8C238.6 227.5 240.1 227.9 239.7 228.6C239.6 228.8 240.2 229 241.1 229C244.4 229 255.1 233.4 260.8 237.1C264.4 239.4 272.1 246.6 274.7 250.1C275.5 251.1 276 252.3 275.8 252.7C275.7 253.1 276 253.5 276.7 253.6C277.7 253.8 278.3 253.3 280.5 250.1C283.4 246 289.5 235.2 289.5 234.2C289.5 233 291.1 231.9 292.3 232.2C293.2 232.4 294 232 295.8 230.4C302.3 224.7 308.1 218.6 310 215.5C311.6 213 312.7 211.8 314.1 211.2C315.1 210.7 316 210.3 316 210.2C316 210.1 315.6 209.4 315.2 208.8C313.6 206.4 315.8 204.1 318.2 205.7C319.4 206.5 319.4 206.4 320.3 204C321 201.6 323.5 198.5 324.6 198.5C325.3 198.5 328.6 200.5 329.2 201.2C330.6 202.9 340.4 211.1 341.5 211.6C343.9 212.6 347.8 212.1 351.4 210.5C358.6 207.2 365.4 203.7 367.8 202.1C369.1 201.1 375.4 195.2 381.7 188.8C395.3 175 395.6 174.5 396.7 165C397.1 161.5 397.5 154 397.7 148.2C398 138.1 398 137.6 397.1 137.8C395.4 138.3 394.4 136.7 394.8 133.9C395.1 131.5 395.1 131.4 393.9 131.8C393 132 392.3 131.8 391.6 131L390.6 129.9L389.7 131C388.5 132.2 387.3 136.4 387.7 138.1C388.1 139.7 387.3 140.7 385.7 140.8C384.9 140.9 384.1 140.9 384 141C383.8 141 383.7 142 383.6 143.1C383.6 144.3 383.3 145.3 383 145.4C382.8 145.5 382.7 146.2 382.8 147C383 148 382.8 148.9 382.3 149.7C380.8 152 379.6 159.3 380 163.5C380.2 165.6 380.3 167.4 380.2 167.6C380 167.8 380.5 168.3 381.2 168.6C383.6 169.7 383.4 171.8 380.9 173.1C380 173.5 376.9 175 374.1 176.5C371.2 178 367.8 179.4 366.3 179.6C364.9 179.9 361.9 180.4 359.8 180.7C354.8 181.6 351.2 182.7 350.2 183.7C348.5 185.4 347.4 184.6 346 180.7C345.4 179 343.9 175.8 342.5 173.6L340.1 169.5L339.9 163.6C339.6 157.4 338.6 153.3 336.6 150.7C336 150 335.4 148.8 335.2 147.9C335 146.9 334.5 146.3 333.6 145.9C332.8 145.6 330.8 144.7 329 143.7L325.7 142L320 142.5C315.5 142.9 314.2 142.9 313.9 142.4C313.3 141.3 313.4 140.5 314.5 139.9C315.1 139.5 315.5 139 315.5 138.7C315.5 137.8 316.5 137.6 319.3 137.9C321.8 138.1 321.9 138.1 322.2 136.6C322.7 134.1 325.7 133.9 326.3 136.3C326.6 137.5 331.6 140.6 334.2 141.3C336.4 141.8 337.8 139.6 343.1 127.1C344.3 124.1 345.2 121 345.5 118.6C345.8 116.6 346.2 114.6 346.5 114.3C346.8 113.9 347.3 112.2 347.7 110.3C348.5 107.3 348.4 106.6 347.7 102.4C346.1 93.5 342 88.2 333.9 84.5C329.2 82.5 322.3 81.8 318.5 83.2C313.2 85.2 309.9 87.8 306.9 92.4C304 96.8 303.4 99.1 303.2 106.2C303 114.3 303 114.2 305.8 114.3C308 114.3 309 114.9 309 116.3C309 117.5 307.4 118.6 305.6 118.5C302.3 118.3 302 118.5 301.1 120.4C299.8 122.9 294.1 128.2 291.1 129.7C289.8 130.3 286.2 131.4 283 132C278.1 133 276.2 133.6 270.3 136.6C266.1 138.6 262.7 140 261.7 140C260.2 140 256 142.5 252.9 145.1C251.1 146.7 248.1 151.5 246.7 155.1C245.6 157.9 245.6 158.2 246.3 159.3C247 160.4 247 160.7 246.1 163.1C243.6 169.7 242.5 178.7 242.9 189.8C243.2 199.8 242.4 207.8 240.7 212.4C239.3 216.3 233.8 224.8 232.5 225.2C230 226.1 229 223.8 230.6 221.2C233.8 216.1 236.1 212 237.1 209.2C238.2 206.4 238.2 205.5 238.3 192.5C238.3 177.5 238.6 173.6 240 168.2C240.6 166.2 241.3 162 241.7 158.8C242.3 154 242.7 152.6 244.2 149.6C247.4 143.6 256.2 136 260 136C260.5 136 263.3 134.8 266.3 133.3C271.7 130.6 279.7 127.9 284 127.3C289.2 126.5 295.1 122.2 297.4 117.5C298.3 115.6 298.5 114 298.7 109.2C299.1 100.6 299.5 97.1 300.5 94.5C302.6 88.8 308.6 82.4 313.9 80.2C315.7 79.4 317.5 78.4 317.9 78C318.4 77.4 318.5 72.6 318.2 53.5C317.9 31.6 318 29.6 318.7 28.8C319.2 28.4 319.9 28 320.2 28C321.1 28 322.5 29.4 322.5 30.2C322.5 30.5 322.6 36.9 322.7 44.5C322.8 52.1 322.9 62.7 323 68.1L323 77.9L327.3 78.2C330.7 78.4 332.4 78.9 335.2 80.2C341.6 83.2 347.1 88.3 350.1 94.3C351.3 96.5 352.5 103.1 352.5 107C352.5 110.1 351.4 115.1 350.5 116.2C350.3 116.5 349.8 118.2 349.5 120C348.4 125.9 348 127.2 343.6 136C341.2 140.8 339.3 145.2 339.4 145.7C339.4 146.1 340.4 148.4 341.5 150.7C343.3 154.4 343.5 155.3 344 161.5C344.6 167.8 344.7 168.4 346.3 170.8C347.2 172.2 348.3 174.3 348.8 175.5C349.3 176.8 349.8 177.9 350 178.2C350.2 178.4 351.5 178.1 352.9 177.6C354.3 177 357.9 176.3 360.9 176C365.7 175.4 366.8 175.1 371.4 172.8C374.2 171.4 376.5 170 376.6 169.5C376.7 169.1 376.5 168.1 376.2 167.2C375 164.2 374.9 159.5 376 154.6C376.9 150.5 378.5 146.3 379.4 145.5C379.6 145.4 379.8 144.4 379.9 143.3C380 142.2 380.3 141.1 380.6 141C380.9 140.8 381 140.3 380.8 140C380.2 139.1 380.9 137.1 381.9 136.8C382.5 136.6 383 135.6 383.5 133.9C384.4 130.1 386 127.2 387.3 126.5C390.2 125.2 392.4 125.3 395.5 126.8C398.6 128.3 399.5 129.6 399.5 132.3C399.5 133 399.7 133.5 400 133.5C400.2 133.5 400.8 133.9 401.2 134.3C401.9 135 402 136.5 401.8 146.7C401.5 158.2 400.8 167.5 400 172.2C399.3 175.5 397.3 179.8 396.1 180.4C395.6 180.7 391.7 184.7 387.4 189.3C376 201.7 368.4 207.8 360.5 211.2C358.7 212 355.6 213.4 353.6 214.3C348.7 216.6 343.2 217.1 340 215.6C337.8 214.7 332.5 210.5 328.1 206.1C326.9 205 325.8 204 325.6 204C325.4 204 324.6 205.5 323.8 207.4L322.5 210.9L322.6 323.1C322.6 384.8 322.8 435.9 322.9 436.6C323.2 437.7 324.8 438.9 331.8 443C336.4 445.8 343.3 449.8 347 451.8C350.7 453.8 356.6 456.9 360 458.7C363.4 460.6 366.5 462.3 366.8 462.5C367 462.7 369.9 464.3 373.2 466.1C376.6 467.9 384.9 472.4 391.7 476.2C398.6 479.9 405 483.1 406 483.3L407.9 483.6L408.2 475.9C408.3 471.7 408.6 369.8 408.8 249.5C409.1 37.8 409.2 30.8 410.1 29.9C411.1 28.9 411.9 28.8 412.9 29.4C413.6 29.9 413.7 156.3 413.1 367.8C412.7 494.4 412.8 487.6 410.2 488.3C407.6 489 402.6 487.4 396.9 484.3C393.8 482.6 388.1 479.5 384.2 477.4C380.4 475.3 372.9 471.2 367.5 468.2C362.1 465.3 353.7 460.7 348.7 458C343.8 455.3 336.4 451.1 332.2 448.6C328.1 446.2 323.6 443.5 322.2 442.7C320.7 441.9 319.3 440.7 318.9 440C318.4 439 318.2 417.8 318 326.7L317.8 214.6L316.7 215.2C316.1 215.5 314.3 217.4 312.6 219.5C309.4 223.5 299.2 233.3 297.2 234.4C296.5 234.7 296 235.2 296 235.4C296 235.7 295.4 236.1 294.8 236.4C294.1 236.7 293 238 292.3 239.4C291.6 240.7 290 243.3 288.9 245.1C287.7 247 285.6 250.3 284.3 252.6C282.9 254.8 281.4 257 280.9 257.4C280.4 257.9 279.9 259 279.7 260C279.3 262 278.2 264.3 277.2 265.4C276.8 265.8 276.5 266.5 276.5 267.1C276.5 271.2 268.1 297.9 263.2 309C262.2 311.3 261 314.4 260.4 315.8C258.6 320.4 256.4 325 255.9 325C255.7 325 255.5 325.3 255.5 325.7C255.5 327.3 254.3 329 252.6 329.7C251.3 330.2 250.4 331.1 249.5 332.7C248.6 334.4 247.9 335.1 246.9 335.3C246 335.5 245.7 335.9 245.8 336.3C246 336.7 245.6 337.7 244.9 338.5C241.5 342.9 234.4 351.2 231.2 354.2C227.7 357.7 224.9 361.4 221.6 367.4C219.7 370.8 214.5 376.8 213 377.3C211.5 377.7 209.4 381.2 200.2 398C196.9 404.1 193.5 409.2 187.5 417C174.3 434 166.3 447.2 164 455.8L162.9 459.6L164.4 461.7C165.3 462.8 167.8 466.3 170.1 469.4C173.8 474.6 174.4 475.2 177.1 476.5C178.8 477.3 182.3 478.5 184.9 479.1C190 480.3 192.2 481.8 192.8 484.3C193.2 485.7 192.4 487.9 191 489.5C190.5 490.1 190 490.8 189.9 491.2C189.8 491.5 189.1 491.7 188.4 491.8C187.7 491.8 186.7 492.2 186.2 492.7C184.2 494.8 182.1 495.2 172.8 495.3C166.8 495.4 162.8 495.3 161 494.8ZM181.7 490C182.7 489.4 184.2 489 184.9 489.1C186 489.2 186.3 489 186.3 488.2C186.4 487.7 186.4 487 186.4 486.6C186.5 486.3 187.1 486 187.8 486C188.6 486 189 485.8 188.9 485.4C188.6 484.7 187.8 484.3 185 483.5C173.8 480.7 170.5 478.6 164.9 470.5C159.5 462.8 158.6 459.3 160.3 452.8C161.9 446.5 170.7 432 180.1 420C187 411.2 196.1 397.1 200.3 388.8C205.5 378.4 208.3 374.3 210.6 373.3C211.6 372.8 213.2 371.5 214.1 370.4C215.8 368.3 219 363.1 219.6 361.4C220.4 359.4 224.1 354.4 225.9 353.1C228.4 351.3 231.6 347.9 237.8 340.6C240.7 337.3 243.4 334.5 243.8 334.5C244.2 334.5 244.4 334.2 244.2 333.8C244 333.4 244.4 332.2 245 331.2C245.6 330.3 246.1 328.8 246.2 327.9C246.3 326.2 247.3 325.4 248.7 325.7C251.3 326.3 252.5 324.4 257 312.5C257.8 310.4 259.1 307.2 259.9 305.2C262.8 298.4 269.4 278.7 270.8 272.8C272.2 266.6 272.4 264.8 271.7 264.1C270.2 262.7 271.8 260.2 273.8 260.7C275.5 261.1 276.2 258.6 274.7 257.1C274.3 256.7 274 255.9 274.2 255.4C274.3 254.9 274.1 254.5 273.8 254.5C273.4 254.5 271.6 252.7 269.8 250.5C265.4 245.4 259.7 240.6 255 238.2C250.5 236 242.9 233.4 238.5 232.6C230.9 231.2 229.9 231.1 227.8 231.7C226 232.2 225.7 232.5 225.5 234.2C225.1 236.5 224.9 236.7 222.7 236.8C219.8 237.1 215.7 239.9 210.3 245.4C204.9 250.9 202 255 199.1 261L197.3 264.8L197.3 272.5C197.3 276.8 197.5 280.7 197.7 281.3C198 282.1 197.8 282.7 196.8 283.6C196.2 284.2 193.9 287.7 191.8 291.4C186.4 300.8 185.8 302 186.6 302.2C187 302.3 189.3 302.8 191.8 303.2C194.2 303.7 196.5 304.3 196.9 304.5C197.8 305 200.5 304.5 200.5 303.8C200.5 302.9 203.4 297.1 207 290.8L210.4 284.8L209 279.5C207 272.5 207 268.3 209 262.4C211.1 256.1 211.5 255.5 212.9 256.4C213.4 256.8 213.4 257.3 212.7 259C211.9 260.9 211.8 262.7 211.8 269.2C211.8 277.1 211.8 277.3 213.2 280.3C214.7 283.4 214.8 283.4 217.6 284C221.3 284.8 222.2 285.5 221.8 286.9C221.5 287.9 221.1 288 217.5 288L213.7 288L210.6 292.9C207.2 298.3 205 302.8 205 304.1C205 305 205.7 305.2 210.2 305.8C214 306.2 220.9 308.9 231.5 313.9L236.8 316.4L238.3 315.3C239.1 314.8 240.3 313.8 241.1 313.1C242.9 311.5 244.3 311.9 244.6 314.3C244.7 315.2 244.6 316.3 244.4 316.7C244.1 317.2 244.2 317.5 244.5 317.5C244.8 317.5 245 318.3 245 319.3C245 320.5 245.4 321.6 246 322.3C247.3 323.6 247 325.3 245.4 325.8C244.7 326 244 325.7 242.9 324.7C241.4 323.3 241.4 323.1 241.7 319.8L241.9 316.4L239.7 318.5C238.4 319.7 237 320.5 236.3 320.5C235.7 320.5 231.9 318.9 227.9 317C219 312.7 211.3 310.2 206.8 309.9L203.4 309.8L203.2 311.2C203.1 312.7 202.8 313.7 201 318.5C200.2 320.6 197.9 330.4 196.5 337.9C196.2 339.6 195.1 343.7 194 347.1C192.9 350.5 192.1 353.7 192.3 354.3C192.4 354.9 192.3 355.7 191.9 356.1C191.5 356.4 189.8 358.6 188 360.8C186.3 362.9 182.4 367.2 179.5 370.3C173 377 166.9 385 165 389.2C163.5 392.5 162.2 397.4 160.7 405C160.3 407.3 159 411.7 157.8 414.8C156.6 417.8 155.4 420.8 155.2 421.5C154.7 423.3 147.4 438.6 144.9 443.3C142.6 447.5 138.2 454.1 135 458C133.4 460 132.5 461.2 128.7 466.7C128.1 467.5 127.5 468.6 127.5 469.1C127.5 469.5 127.3 470 127 470.1C126.6 470.2 126.6 470.8 126.8 471.6C127 472.5 128.3 473.9 130.7 475.7C134.1 478.2 135.1 478.7 141.8 481.3C143.4 481.9 145.6 482.9 146.7 483.5C147.7 484.1 151.7 486.1 155.4 487.8L162.2 490.9L171 491C178.9 491 179.9 490.9 181.7 490ZM123.1 471.1C123.5 470.6 123.8 469.5 123.8 468.6C123.8 466.8 127.3 461 131.8 455.2C144 439.5 155.5 414 158 397.6C158.9 391.6 162.5 384.1 167.7 377.5C169.1 375.7 173 371.1 176.3 367.2C186.5 355.6 187 354.9 189.9 345.9C191.4 341.4 192.7 336.4 193 334.2C193.6 329.4 194.5 325.3 196.4 319.6C199.3 310.9 199.5 310.1 198.7 309.2C198 308.5 197.3 308.3 196.3 308.5C196.1 308.5 194.8 308.2 193.4 307.8C190 306.8 185.5 306.7 185.5 307.7C185.5 308.1 184.5 311.4 183.3 315.1C182.1 318.7 180.7 323.3 180.3 325.2C179.9 327.2 178.8 331.8 178 335.5C177.1 339.2 175.9 343.5 175.2 344.9C174.5 346.4 174.1 348.1 174.3 348.7C174.6 349.9 173.7 351.1 164.2 360.9C156.2 369.4 150.5 376.9 147.7 382.8C145.6 387.2 145.3 388.4 143 401C141.8 407.4 137.3 421.5 133.4 430.8C127.1 445.7 123.8 452.3 119.7 457.4C117.5 460 115 464.8 115 466.2C115 467.4 116.8 469.3 119.5 470.9C121.6 472.2 122.1 472.2 123.1 471.1ZM144.5 464.2C143 462.4 145.7 454.6 150.2 447.9C151.9 445.3 152.5 445.1 153.7 446.3C154.5 447 154.4 447.3 153.1 449.7C150.5 454.4 150.1 455.2 148.8 458.1C148.1 459.7 147.5 461.4 147.5 462C147.5 464.5 145.8 465.8 144.5 464.2ZM171.3 410.7C171.1 410.3 171.7 409.3 172.9 408.1C175.6 405.4 182.5 397.2 184.5 394.3C185.6 392.7 186.3 392 186.8 392.2C187.2 392.4 187.7 392.5 187.8 392.5C188.4 392.5 187.8 394.5 186.4 397C184.1 401.1 180.3 405.7 176.7 408.8C173.4 411.5 171.8 412.1 171.3 410.7ZM201.1 362.6C200.4 362.1 200.6 361.2 203.7 353.7C206.9 345.8 207.9 344 208.8 344.3C209.8 344.7 209.7 346.2 208.2 350.5C206.8 354.8 203 362.7 202.2 362.9C202 362.9 201.5 362.8 201.1 362.6ZM178.2 358.2C177.3 357.8 178.2 354.5 180.6 349.1C182.7 344.2 183 343.8 184.1 344.3C185.2 344.7 184 349.7 181.6 354.6C179.9 358.3 179.5 358.7 178.2 358.2ZM194.6 351.7C194.8 350.7 197.3 348.7 197.8 349.1C198 349.3 197.6 350.1 197 351C195.9 352.6 194.3 353.1 194.6 351.7ZM268.2 260C267.7 259.2 267.3 258.1 267.4 257.7C267.5 257.2 267.3 257 267 257.3C266.7 257.5 264.7 255.9 262.1 253.4C257.4 248.8 252.9 245.6 248.3 243.4C244.8 241.7 232.2 238 230.1 238C228.5 238 227.7 236.8 228.3 235.3C228.6 234.6 229.1 234.5 231.2 234.6C233.7 234.8 237.4 235.6 240.2 236.6C245.5 238.4 247.2 239.1 250.6 240.7C255.1 242.8 257.8 244.9 264 251.1C267 254 268.4 255.8 268.2 256.3C268 256.8 268.1 256.9 268.6 256.7C269.5 256.4 272 258.3 272 259.3C272 260.1 270.6 261.5 269.8 261.5C269.5 261.5 268.8 260.8 268.2 260ZM291.7 229C291.3 228.3 292.5 223.5 293 223.5C293.3 223.5 293.5 224.8 293.5 226.5C293.5 228.8 293.3 229.5 292.8 229.5C292.4 229.5 291.9 229.3 291.7 229ZM248.3 227.2C248 226.3 250.2 224.2 255.2 220.9C259.5 218 261.9 217.1 262.5 218.1C262.8 218.5 262.7 219 262.1 219.6C260.6 221 249.9 228 249.2 228C248.9 228 248.5 227.7 248.3 227.2ZM243.1 223.7C242 223.2 242.5 222 245.6 216.8C251.2 207.5 254.3 199.8 255.5 192C256.5 185.7 259 176.5 261.1 171.5C263.7 165.5 264.4 164.9 266.7 167.3C268.2 168.8 268.3 169.7 267 170.9C265.7 172.1 262.2 178.7 261 182.2C260.5 183.8 259.6 188 259.2 191.4C258.8 194.9 257.8 199.6 257.1 201.8C255.1 208.3 250 217.6 246 222.1C244.4 224 244.2 224.1 243.1 223.7ZM298.7 222.3C298.3 221.3 299.4 216.9 300.2 215.8C300.5 215.3 301.1 215.1 301.6 215.3C302.6 215.6 302.4 217.5 300.9 220.9C300 223.1 299.2 223.6 298.7 222.3ZM273.8 218.2C273.4 217.2 273.7 217 279.4 213.8C288.1 208.8 302.6 198.8 306.1 195.3C308.7 192.7 309.7 191.9 310.5 192.1C311.3 192.4 311.5 192.2 311.2 191.5C311.1 190.9 311.3 189.9 311.8 189.1C312.6 187.6 312.6 187.5 310.5 181.9C309.3 178.8 308.3 175.4 308.1 174.4C307.9 172.9 308 172.6 309 172.3C309.6 172.1 310.3 172.1 310.5 172.3C311.3 173.1 316.5 185.1 316.5 186C316.5 186.5 317.3 187.8 318.4 188.9C324.9 195.9 325.6 197.6 322.6 198.3C321.5 198.6 321 198.2 318.7 195.8C317.3 194.3 316 192.8 315.9 192.4C315.7 192 315.4 192 314.6 192.5C313.9 192.8 313.1 193 312.7 192.8C312.2 192.6 312.1 192.8 312.3 193.6C312.5 194.6 311.6 195.6 306.7 200C299.7 206.4 294.8 209.8 288.2 213C283.9 215.1 274.9 219 274.3 219C274.2 219 274 218.6 273.8 218.2ZM305.7 214.1C305.3 213.9 305.2 213 305.5 211.1C306 208 306.2 207.8 307.2 208.2C308.7 208.7 308 214.5 306.5 214.5C306.4 214.5 306 214.3 305.7 214.1ZM313.5 201.7C313.5 200.5 313.9 198.6 314.3 197.6L315.2 195.8L315.4 197.2C315.7 199.8 315 204 314.2 204C313.7 204 313.5 203.4 313.5 201.7ZM350.3 197.7C349.9 197.3 349.5 196.7 349.5 196.5C349.5 195.6 352.6 191.5 353.5 191.3C355.8 190.5 358 192.2 357.2 194.1C356.9 194.8 352.9 197.9 351.8 198.3C351.4 198.4 350.8 198.2 350.3 197.7ZM364.8 196.3C364.3 194.9 375.3 185.8 376.8 186.4C378.3 186.9 377.4 188.5 374.1 191C372.3 192.4 369.8 194.3 368.6 195.3C366.2 197.1 365.3 197.4 364.8 196.3ZM334.1 191.3C333.1 190.3 331 189.1 328.8 188.2C324.6 186.6 324 186.2 324 184.9C324 183.9 324.3 183.8 326.3 184.5C327.1 184.7 329.4 185.4 331.4 186C334.6 186.9 335.1 187.3 336.5 189.2C337.9 191.2 337.9 191.5 337.2 192.2C336.1 193.3 335.9 193.2 334.1 191.3ZM358.3 192.2C357.9 191.8 357.5 191.2 357.5 191C357.5 190.5 360.1 189 360.9 189C362 189 361.8 190.5 360.5 191.7C359.2 193 359.1 193 358.3 192.2ZM283.3 184.2C283.1 183.7 283 183.3 283.1 183.2C284.6 181.7 301.7 173 303.1 173C303.7 173 304.5 173.9 304.5 174.8C304.5 175.5 296.8 180.1 293 181.6C289.3 183.1 284.3 184.9 283.7 185C283.6 185 283.5 184.6 283.3 184.2ZM329.8 176.1C329.5 175.9 328.5 174.9 327.6 173.9C325.8 172 325.7 170.4 327.3 169.8C328.4 169.4 332.4 171.4 332.8 172.5C333.5 174.9 331.4 177.4 329.8 176.1ZM250.7 171.2C249.3 170.6 254.3 156 255.9 156C256.1 156 256.5 156.2 256.9 156.4C257.4 156.8 257.2 157.8 255.8 161.6C254.9 164.1 254 166.8 253.8 167.5C252.8 171.2 252.2 171.8 250.7 171.2ZM278.6 165.1C277.1 164.1 280.6 156.8 284.1 153.4C287 150.7 290.3 149.3 291 150.5C291.7 151.7 291.7 151.8 289 153.9C286 156.3 284.4 158.2 282 162.5C280.3 165.5 279.8 165.9 278.6 165.1ZM265.6 164.7C265.3 164.5 265 164.1 265 163.7C265 162 274.6 144.5 275.5 144.5C275.6 144.5 276.1 144.7 276.4 145C277 145.3 276.1 147.4 272.2 155.2C269.5 160.6 267 165 266.8 165C266.5 164.9 266 164.8 265.6 164.7ZM393.6 145.1C393.8 139.2 394.2 138.2 396 138.7C397 139.1 397 139.3 396.8 140.9C396.6 141.9 396.1 143.7 395.7 144.8C395.3 145.8 395 147.2 395 147.8C395 148.3 394.6 149.2 394.2 149.8C393.5 150.7 393.5 150.3 393.6 145.1ZM389.9 148.2C389.7 148 389.5 147 389.5 145.9C389.5 144.5 389.7 144 390.2 144C390.7 144 391 144.5 391 145.4C390.9 147.1 390.3 148.7 389.9 148.2ZM277.8 143.2C277.4 142.8 277 142.3 277 142.2C277 142.1 278.1 140.6 279.5 138.9C282.4 135.4 283.7 134.4 285.3 134.8C285.9 135 287.1 134.8 287.8 134.4C292.1 132.2 298.1 130.5 299.7 131.2C301.6 131.9 300.3 133 294.6 135.2C291.4 136.5 288.3 137.5 287.9 137.5C287.4 137.5 287 137.7 286.9 137.9C286.8 138.1 285.4 139.2 283.7 140.4C282.1 141.5 280.4 142.8 280 143.2C279.2 144.2 278.8 144.2 277.8 143.2ZM389.7 140.8C389.6 140.5 389.6 139.1 389.9 137.7C390.3 135.2 391 134.6 392.5 135.5C393.1 135.9 393.1 136.3 392.2 138.7C391.3 141.4 390.3 142.3 389.7 140.8ZM311.8 136.3C309.7 134.4 309.7 134.3 310.8 133.3C311.6 132.4 312.6 132.8 314.9 134.7C316.2 135.9 316.3 136.2 315.2 137.2C314.1 138.3 314 138.2 311.8 136.3ZM327.2 121.5C325.9 120 326 115.4 327.5 112.6C328.6 110.3 329 110.1 330.2 111.3C330.9 112 330.9 112.2 330.4 112.9C330 113.3 329.6 115.5 329.5 117.9C329.4 120.3 329 122.2 328.7 122.3C328.4 122.4 327.7 122 327.2 121.5Z"/></svg>
